KhmerDigital-Black.ufo
<glyph name="u0021" format="2">
  <advance width="592"/>
  <unicode hex="0021"/>
  <outline>
    <contour>
      <point x="476" y="556" type="line"/>
      <point x="120" y="556" type="line"/>
      <point x="65" y="1576" type="line"/>
      <point x="531" y="1576" type="line"/>
    </contour>
    <contour>
      <point x="69" y="179" type="qcurve" smooth="yes"/>
      <point x="69" y="293"/>
      <point x="204" y="386"/>
      <point x="297" y="386" type="qcurve" smooth="yes"/>
      <point x="387" y="386"/>
      <point x="520" y="293"/>
      <point x="520" y="179" type="qcurve" smooth="yes"/>
      <point x="520" y="71"/>
      <point x="387" y="-27"/>
      <point x="297" y="-27" type="qcurve" smooth="yes"/>
      <point x="204" y="-27"/>
      <point x="69" y="71"/>
    </contour>
  </outline>
</glyph>
<glyph name="u0022" format="2">
  <advance width="900"/>
  <unicode hex="0022"/>
  <outline>
    <contour>
      <point x="822" y="1007" type="line"/>
      <point x="552" y="1007" type="line"/>
      <point x="511" y="1576" type="line"/>
      <point x="862" y="1576" type="line"/>
    </contour>
    <contour>
      <point x="353" y="1007" type="line"/>
      <point x="83" y="1007" type="line"/>
      <point x="43" y="1576" type="line"/>
      <point x="394" y="1576" type="line"/>
    </contour>
  </outline>
</glyph>
<glyph name="u0023" format="2">
  <advance width="1426"/>
  <unicode hex="0023"/>
  <outline>
    <contour>
      <point x="481" y="0" type="line"/>
      <point x="201" y="0" type="line"/>
      <point x="275" y="421" type="line"/>
      <point x="38" y="421" type="line"/>
      <point x="38" y="695" type="line"/>
      <point x="327" y="695" type="line"/>
      <point x="360" y="876" type="line"/>
      <point x="110" y="876" type="line"/>
      <point x="110" y="1157" type="line"/>
      <point x="412" y="1157" type="line"/>
      <point x="487" y="1576" type="line"/>
      <point x="770" y="1576" type="line"/>
      <point x="693" y="1157" type="line"/>
      <point x="867" y="1157" type="line"/>
      <point x="943" y="1576" type="line"/>
      <point x="1226" y="1576" type="line"/>
      <point x="1149" y="1157" type="line"/>
      <point x="1391" y="1157" type="line"/>
      <point x="1391" y="876" type="line"/>
      <point x="1100" y="876" type="line"/>
      <point x="1066" y="695" type="line"/>
      <point x="1324" y="695" type="line"/>
      <point x="1324" y="421" type="line"/>
      <point x="1017" y="421" type="line"/>
      <point x="939" y="0" type="line"/>
      <point x="657" y="0" type="line"/>
      <point x="733" y="421" type="line"/>
      <point x="558" y="421" type="line"/>
    </contour>
    <contour>
      <point x="641" y="876" type="line"/>
      <point x="609" y="695" type="line"/>
      <point x="784" y="695" type="line"/>
      <point x="815" y="876" type="line"/>
    </contour>
  </outline>
</glyph>
<glyph name="u0024" format="2">
  <advance width="1262"/>
  <unicode hex="0024"/>
  <outline>
    <contour>
      <point x="737" y="1523" type="line"/>
      <point x="1001" y="1509"/>
      <point x="1180" y="1426" type="qcurve"/>
      <point x="1085" y="1131" type="line"/>
      <point x="947" y="1194"/>
      <point x="737" y="1206" type="qcurve"/>
      <point x="737" y="938" type="line"/>
      <point x="1222" y="748"/>
      <point x="1222" y="508" type="qcurve" smooth="yes"/>
      <point x="1222" y="317"/>
      <point x="980" y="84"/>
      <point x="737" y="63" type="qcurve"/>
      <point x="737" y="-128" type="line"/>
      <point x="533" y="-128" type="line"/>
      <point x="533" y="60" type="line"/>
      <point x="281" y="71"/>
      <point x="93" y="139" type="qcurve"/>
      <point x="93" y="476" type="line"/>
      <point x="331" y="388"/>
      <point x="533" y="371" type="qcurve"/>
      <point x="533" y="665" type="line"/>
      <point x="57" y="853"/>
      <point x="57" y="1108" type="qcurve" smooth="yes"/>
      <point x="57" y="1175"/>
      <point x="89" y="1312"/>
      <point x="186" y="1430"/>
      <point x="376" y="1512"/>
      <point x="533" y="1522" type="qcurve"/>
      <point x="533" y="1677" type="line"/>
      <point x="737" y="1677" type="line"/>
    </contour>
    <contour>
      <point x="533" y="1207" type="line"/>
      <point x="481" y="1204"/>
      <point x="413" y="1171"/>
      <point x="413" y="1126" type="qcurve" smooth="yes"/>
      <point x="413" y="1079"/>
      <point x="533" y="1021" type="qcurve"/>
    </contour>
    <contour>
      <point x="737" y="372" type="line"/>
      <point x="788" y="377"/>
      <point x="863" y="410"/>
      <point x="863" y="445" type="qcurve" smooth="yes"/>
      <point x="863" y="512"/>
      <point x="737" y="578" type="qcurve"/>
    </contour>
  </outline>
</glyph>
<glyph name="u0025" format="2">
  <advance width="1833"/>
  <unicode hex="0025"/>
  <outline>
    <contour>
      <point x="38" y="1106" type="qcurve" smooth="yes"/>
      <point x="38" y="1340"/>
      <point x="219" y="1599"/>
      <point x="388" y="1599" type="qcurve" smooth="yes"/>
      <point x="550" y="1599"/>
      <point x="746" y="1340"/>
      <point x="746" y="1106" type="qcurve" smooth="yes"/>
      <point x="746" y="872"/>
      <point x="563" y="609"/>
      <point x="388" y="609" type="qcurve" smooth="yes"/>
      <point x="231" y="609"/>
      <point x="38" y="872"/>
    </contour>
    <contour>
      <point x="390" y="0" type="line"/>
      <point x="1151" y="1576" type="line"/>
      <point x="1431" y="1576" type="line"/>
      <point x="670" y="0" type="line"/>
    </contour>
    <contour>
      <point x="464" y="1102" type="qcurve" smooth="yes"/>
      <point x="464" y="1336"/>
      <point x="393" y="1336" type="qcurve" smooth="yes"/>
      <point x="320" y="1336"/>
      <point x="320" y="1102" type="qcurve" smooth="yes"/>
      <point x="320" y="868"/>
      <point x="393" y="868" type="qcurve" smooth="yes"/>
      <point x="464" y="868"/>
    </contour>
    <contour>
      <point x="1082" y="479" type="qcurve" smooth="yes"/>
      <point x="1082" y="714"/>
      <point x="1264" y="971"/>
      <point x="1433" y="971" type="qcurve" smooth="yes"/>
      <point x="1594" y="971"/>
      <point x="1791" y="714"/>
      <point x="1791" y="480" type="qcurve" smooth="yes"/>
      <point x="1791" y="245"/>
      <point x="1607" y="-17"/>
      <point x="1433" y="-17" type="qcurve" smooth="yes"/>
      <point x="1275" y="-17"/>
      <point x="1082" y="245"/>
    </contour>
    <contour>
      <point x="1508" y="474" type="qcurve" smooth="yes"/>
      <point x="1508" y="708"/>
      <point x="1436" y="708" type="qcurve" smooth="yes"/>
      <point x="1365" y="708"/>
      <point x="1365" y="474" type="qcurve" smooth="yes"/>
      <point x="1365" y="240"/>
      <point x="1436" y="240" type="qcurve" smooth="yes"/>
      <point x="1508" y="240"/>
    </contour>
  </outline>
</glyph>
<glyph name="u0026" format="2">
  <advance width="1615"/>
  <unicode hex="0026"/>
  <outline>
    <contour>
      <point x="76" y="438" type="qcurve" smooth="yes"/>
      <point x="76" y="711"/>
      <point x="338" y="877" type="qcurve"/>
      <point x="214" y="1038"/>
      <point x="214" y="1221" type="qcurve" smooth="yes"/>
      <point x="214" y="1596"/>
      <point x="669" y="1596" type="qcurve" smooth="yes"/>
      <point x="1109" y="1596"/>
      <point x="1109" y="1221" type="qcurve" smooth="yes"/>
      <point x="1109" y="965"/>
      <point x="854" y="809" type="qcurve"/>
      <point x="1048" y="593" type="line"/>
      <point x="1110" y="714"/>
      <point x="1146" y="885" type="qcurve"/>
      <point x="1544" y="885" type="line"/>
      <point x="1465" y="527"/>
      <point x="1302" y="310" type="qcurve"/>
      <point x="1581" y="0" type="line"/>
      <point x="1126" y="0" type="line"/>
      <point x="1048" y="86" type="line"/>
      <point x="855" y="-22"/>
      <point x="597" y="-22" type="qcurve" smooth="yes"/>
      <point x="76" y="-22"/>
    </contour>
    <contour>
      <point x="638" y="1052" type="qcurve"/>
      <point x="762" y="1145"/>
      <point x="762" y="1221" type="qcurve" smooth="yes"/>
      <point x="762" y="1320"/>
      <point x="663" y="1320" type="qcurve" smooth="yes"/>
      <point x="561" y="1320"/>
      <point x="561" y="1207" type="qcurve" smooth="yes"/>
      <point x="561" y="1146"/>
    </contour>
    <contour>
      <point x="633" y="314" type="qcurve" smooth="yes"/>
      <point x="730" y="314"/>
      <point x="811" y="349" type="qcurve"/>
      <point x="561" y="626" type="line"/>
      <point x="472" y="545"/>
      <point x="472" y="468" type="qcurve" smooth="yes"/>
      <point x="472" y="314"/>
    </contour>
  </outline>
</glyph>
<glyph name="u0027" format="2">
  <advance width="495"/>
  <unicode hex="0027"/>
  <outline>
    <contour>
      <point x="404" y="1007" type="line"/>
      <point x="108" y="1007" type="line"/>
      <point x="64" y="1576" type="line"/>
      <point x="448" y="1576" type="line"/>
    </contour>
  </outline>
</glyph>
<glyph name="u0028" format="2">
  <advance width="661"/>
  <unicode hex="0028"/>
  <outline>
    <contour>
      <point x="342" y="-349" type="line"/>
      <point x="78" y="27"/>
      <point x="78" y="627" type="qcurve" smooth="yes"/>
      <point x="78" y="1254"/>
      <point x="342" y="1620" type="qcurve"/>
      <point x="647" y="1620" type="line"/>
      <point x="401" y="1286"/>
      <point x="401" y="629" type="qcurve" smooth="yes"/>
      <point x="401" y="-4"/>
      <point x="645" y="-349" type="qcurve"/>
    </contour>
  </outline>
</glyph>
<glyph name="u0029" format="2">
  <advance width="661"/>
  <unicode hex="0029"/>
  <outline>
    <contour>
      <point x="16" y="-349" type="line"/>
      <point x="260" y="-4"/>
      <point x="260" y="629" type="qcurve" smooth="yes"/>
      <point x="260" y="1286"/>
      <point x="14" y="1620" type="qcurve"/>
      <point x="319" y="1620" type="line"/>
      <point x="583" y="1254"/>
      <point x="583" y="627" type="qcurve" smooth="yes"/>
      <point x="583" y="27"/>
      <point x="319" y="-349" type="qcurve"/>
    </contour>
  </outline>
</glyph>
<glyph name="u002A" format="2">
  <advance width="1215"/>
  <unicode hex="002A"/>
  <outline>
    <contour>
      <point x="765" y="618" type="line"/>
      <point x="611" y="923" type="line"/>
      <point x="479" y="620" type="line"/>
      <point x="184" y="766" type="line"/>
      <point x="407" y="1066" type="line"/>
      <point x="70" y="1093" type="line"/>
      <point x="119" y="1407" type="line"/>
      <point x="494" y="1298" type="line"/>
      <point x="452" y="1677" type="line"/>
      <point x="778" y="1677" type="line"/>
      <point x="736" y="1298" type="line"/>
      <point x="1121" y="1407" type="line"/>
      <point x="1161" y="1089" type="line"/>
      <point x="822" y="1066" type="line"/>
      <point x="1045" y="766" type="line"/>
    </contour>
  </outline>
</glyph>
<glyph name="u002B" format="2">
  <advance width="1262"/>
  <unicode hex="002B"/>
  <outline>
    <contour>
      <point x="768" y="245" type="line"/>
      <point x="479" y="245" type="line"/>
      <point x="479" y="634" type="line"/>
      <point x="77" y="634" type="line"/>
      <point x="77" y="923" type="line"/>
      <point x="479" y="923" type="line"/>
      <point x="479" y="1318" type="line"/>
      <point x="768" y="1318" type="line"/>
      <point x="768" y="923" type="line"/>
      <point x="1170" y="923" type="line"/>
      <point x="1170" y="634" type="line"/>
      <point x="768" y="634" type="line"/>
    </contour>
  </outline>
</glyph>
<glyph name="u002C" format="2">
  <advance width="590"/>
  <unicode hex="002C"/>
  <outline>
    <contour>
      <point x="503" y="322" type="line"/>
      <point x="519" y="297" type="line"/>
      <point x="510" y="259"/>
      <point x="347" y="-266"/>
      <point x="330" y="-307" type="qcurve"/>
      <point x="29" y="-307" type="line"/>
      <point x="40" y="-258"/>
      <point x="130" y="278"/>
      <point x="135" y="322" type="qcurve"/>
    </contour>
  </outline>
</glyph>
<glyph name="u002D" format="2">
  <advance width="710"/>
  <unicode hex="002D"/>
  <outline>
    <contour>
      <point x="666" y="424" type="line"/>
      <point x="57" y="424" type="line"/>
      <point x="57" y="760" type="line"/>
      <point x="666" y="760" type="line"/>
    </contour>
  </outline>
</glyph>
<glyph name="u002E" format="2">
  <advance width="590"/>
  <unicode hex="002E"/>
  <outline>
    <contour>
      <point x="71" y="179" type="qcurve" smooth="yes"/>
      <point x="71" y="293"/>
      <point x="206" y="386"/>
      <point x="301" y="386" type="qcurve" smooth="yes"/>
      <point x="389" y="386"/>
      <point x="522" y="293"/>
      <point x="522" y="179" type="qcurve" smooth="yes"/>
      <point x="522" y="71"/>
      <point x="389" y="-27"/>
      <point x="301" y="-27" type="qcurve" smooth="yes"/>
      <point x="206" y="-27"/>
      <point x="71" y="71"/>
    </contour>
  </outline>
</glyph>
<glyph name="u002F" format="2">
  <advance width="820"/>
  <unicode hex="002F"/>
  <outline>
    <contour>
      <point x="324" y="-22" type="line"/>
      <point x="10" y="-22" type="line"/>
      <point x="505" y="1599" type="line"/>
      <point x="818" y="1599" type="line"/>
    </contour>
  </outline>
</glyph>
<glyph name="u0030" format="2">
  <advance width="1262"/>
  <unicode hex="0030"/>
  <outline>
    <contour>
      <point x="65" y="748" type="qcurve" smooth="yes"/>
      <point x="65" y="1500"/>
      <point x="634" y="1500" type="qcurve" smooth="yes"/>
      <point x="1204" y="1500"/>
      <point x="1204" y="748" type="qcurve" smooth="yes"/>
      <point x="1204" y="0"/>
      <point x="634" y="0" type="qcurve" smooth="yes"/>
      <point x="65" y="0"/>
    </contour>
    <contour>
      <point x="781" y="748" type="qcurve" smooth="yes"/>
      <point x="781" y="1184"/>
      <point x="634" y="1184" type="qcurve" smooth="yes"/>
      <point x="489" y="1184"/>
      <point x="489" y="748" type="qcurve" smooth="yes"/>
      <point x="489" y="315"/>
      <point x="634" y="315" type="qcurve" smooth="yes"/>
      <point x="781" y="315"/>
    </contour>
  </outline>
</glyph>
<glyph name="u0031" format="2">
  <advance width="1262"/>
  <unicode hex="0031"/>
  <outline>
    <contour>
      <point x="1014" y="0" type="line"/>
      <point x="582" y="0" type="line"/>
      <point x="582" y="1058" type="line"/>
      <point x="310" y="821" type="line"/>
      <point x="89" y="1080" type="line"/>
      <point x="630" y="1500" type="line"/>
      <point x="1014" y="1500" type="line"/>
    </contour>
  </outline>
</glyph>
<glyph name="u0032" format="2">
  <advance width="1262"/>
  <unicode hex="0032"/>
  <outline>
    <contour>
      <point x="1209" y="0" type="line"/>
      <point x="65" y="0" type="line"/>
      <point x="65" y="251" type="line"/>
      <point x="786" y="886"/>
      <point x="786" y="1039" type="qcurve" smooth="yes"/>
      <point x="786" y="1164"/>
      <point x="604" y="1164" type="qcurve" smooth="yes"/>
      <point x="487" y="1164"/>
      <point x="282" y="1007" type="qcurve"/>
      <point x="48" y="1263" type="line"/>
      <point x="353" y="1500"/>
      <point x="653" y="1500" type="qcurve" smooth="yes"/>
      <point x="1209" y="1500"/>
      <point x="1209" y="1055" type="qcurve" smooth="yes"/>
      <point x="1209" y="818"/>
      <point x="613" y="329" type="qcurve"/>
      <point x="1209" y="329" type="line"/>
    </contour>
  </outline>
</glyph>
<glyph name="u0033" format="2">
  <advance width="1262"/>
  <unicode hex="0033"/>
  <outline>
    <contour>
      <point x="74" y="80" type="qcurve"/>
      <point x="74" y="406" type="line"/>
      <point x="294" y="311"/>
      <point x="483" y="311" type="qcurve" smooth="yes"/>
      <point x="752" y="311"/>
      <point x="752" y="461" type="qcurve" smooth="yes"/>
      <point x="752" y="619"/>
      <point x="416" y="619" type="qcurve" smooth="yes"/>
      <point x="319" y="619" type="line"/>
      <point x="319" y="915" type="line"/>
      <point x="418" y="915" type="line" smooth="yes"/>
      <point x="743" y="915"/>
      <point x="743" y="1069" type="qcurve" smooth="yes"/>
      <point x="743" y="1183"/>
      <point x="567" y="1183" type="qcurve" smooth="yes"/>
      <point x="384" y="1183"/>
      <point x="253" y="1088" type="qcurve"/>
      <point x="76" y="1352" type="line"/>
      <point x="284" y="1500"/>
      <point x="632" y="1500" type="qcurve" smooth="yes"/>
      <point x="1156" y="1500"/>
      <point x="1156" y="1162" type="qcurve" smooth="yes"/>
      <point x="1156" y="844"/>
      <point x="807" y="788" type="qcurve"/>
      <point x="807" y="783" type="line"/>
      <point x="1203" y="733"/>
      <point x="1203" y="438" type="qcurve" smooth="yes"/>
      <point x="1203" y="0"/>
      <point x="544" y="0" type="qcurve" smooth="yes"/>
      <point x="255" y="0"/>
    </contour>
  </outline>
</glyph>
<glyph name="u0034" format="2">
  <advance width="1262"/>
  <unicode hex="0034"/>
  <outline>
    <contour>
      <point x="1074" y="0" type="line"/>
      <point x="654" y="0" type="line"/>
      <point x="654" y="290" type="line"/>
      <point x="25" y="290" type="line"/>
      <point x="25" y="588" type="line"/>
      <point x="680" y="1500" type="line"/>
      <point x="1074" y="1500" type="line"/>
      <point x="1074" y="593" type="line"/>
      <point x="1248" y="593" type="line"/>
      <point x="1248" y="290" type="line"/>
      <point x="1074" y="290" type="line"/>
    </contour>
    <contour>
      <point x="654" y="988" type="line"/>
      <point x="394" y="593" type="line"/>
      <point x="654" y="593" type="line"/>
    </contour>
  </outline>
</glyph>
<glyph name="u0035" format="2">
  <advance width="1262"/>
  <unicode hex="0035"/>
  <outline>
    <contour>
      <point x="90" y="81" type="qcurve"/>
      <point x="90" y="408" type="line"/>
      <point x="270" y="315"/>
      <point x="505" y="315" type="qcurve" smooth="yes"/>
      <point x="750" y="315"/>
      <point x="750" y="501" type="qcurve" smooth="yes"/>
      <point x="750" y="681"/>
      <point x="490" y="681" type="qcurve" smooth="yes"/>
      <point x="407" y="681"/>
      <point x="273" y="646" type="qcurve"/>
      <point x="117" y="719" type="line"/>
      <point x="176" y="1500" type="line"/>
      <point x="1074" y="1500" type="line"/>
      <point x="1074" y="1167" type="line"/>
      <point x="538" y="1167" type="line"/>
      <point x="518" y="972" type="line"/>
      <point x="596" y="990"/>
      <point x="703" y="990" type="qcurve" smooth="yes"/>
      <point x="1181" y="990"/>
      <point x="1181" y="513" type="qcurve" smooth="yes"/>
      <point x="1181" y="0"/>
      <point x="541" y="0" type="qcurve" smooth="yes"/>
      <point x="248" y="0"/>
    </contour>
  </outline>
</glyph>
<glyph name="u0036" format="2">
  <advance width="1262"/>
  <unicode hex="0036"/>
  <outline>
    <contour>
      <point x="63" y="637" type="qcurve" smooth="yes"/>
      <point x="63" y="1500"/>
      <point x="889" y="1500" type="qcurve" smooth="yes"/>
      <point x="1054" y="1500"/>
      <point x="1114" y="1482" type="qcurve"/>
      <point x="1114" y="1174" type="line"/>
      <point x="1047" y="1194"/>
      <point x="880" y="1194" type="qcurve" smooth="yes"/>
      <point x="528" y="1194"/>
      <point x="466" y="813" type="qcurve"/>
      <point x="613" y="993"/>
      <point x="771" y="993" type="qcurve" smooth="yes"/>
      <point x="1213" y="993"/>
      <point x="1213" y="519" type="qcurve" smooth="yes"/>
      <point x="1213" y="0"/>
      <point x="657" y="0" type="qcurve" smooth="yes"/>
      <point x="63" y="0"/>
    </contour>
    <contour>
      <point x="462" y="518" type="qcurve"/>
      <point x="493" y="313"/>
      <point x="648" y="313" type="qcurve" smooth="yes"/>
      <point x="800" y="313"/>
      <point x="800" y="511" type="qcurve" smooth="yes"/>
      <point x="800" y="688"/>
      <point x="653" y="688" type="qcurve" smooth="yes"/>
      <point x="555" y="688"/>
    </contour>
  </outline>
</glyph>
<glyph name="u0037" format="2">
  <advance width="1262"/>
  <unicode hex="0037"/>
  <outline>
    <contour>
      <point x="655" y="0" type="line"/>
      <point x="213" y="0" type="line"/>
      <point x="754" y="1164" type="line"/>
      <point x="72" y="1164" type="line"/>
      <point x="72" y="1500" type="line"/>
      <point x="1209" y="1500" type="line"/>
      <point x="1209" y="1261" type="line"/>
    </contour>
  </outline>
</glyph>
<glyph name="u0038" format="2">
  <advance width="1262"/>
  <unicode hex="0038"/>
  <outline>
    <contour>
      <point x="61" y="404" type="qcurve" smooth="yes"/>
      <point x="61" y="659"/>
      <point x="269" y="791" type="qcurve"/>
      <point x="107" y="919"/>
      <point x="107" y="1146" type="qcurve" smooth="yes"/>
      <point x="107" y="1500"/>
      <point x="640" y="1500" type="qcurve" smooth="yes"/>
      <point x="1165" y="1500"/>
      <point x="1165" y="1144" type="qcurve" smooth="yes"/>
      <point x="1165" y="926"/>
      <point x="998" y="799" type="qcurve"/>
      <point x="1211" y="670"/>
      <point x="1211" y="408" type="qcurve" smooth="yes"/>
      <point x="1211" y="0"/>
      <point x="634" y="0" type="qcurve" smooth="yes"/>
      <point x="61" y="0"/>
    </contour>
    <contour>
      <point x="634" y="957" type="qcurve"/>
      <point x="765" y="1033"/>
      <point x="765" y="1110" type="qcurve" smooth="yes"/>
      <point x="765" y="1215"/>
      <point x="638" y="1215" type="qcurve" smooth="yes"/>
      <point x="507" y="1215"/>
      <point x="507" y="1110" type="qcurve" smooth="yes"/>
      <point x="507" y="1031"/>
    </contour>
    <contour>
      <point x="821" y="413" type="qcurve" smooth="yes"/>
      <point x="821" y="529"/>
      <point x="629" y="624" type="qcurve"/>
      <point x="451" y="530"/>
      <point x="451" y="420" type="qcurve" smooth="yes"/>
      <point x="451" y="284"/>
      <point x="630" y="284" type="qcurve" smooth="yes"/>
      <point x="821" y="284"/>
    </contour>
  </outline>
</glyph>
<glyph name="u0039" format="2">
  <advance width="1262"/>
  <unicode hex="0039"/>
  <outline>
    <contour>
      <point x="156" y="18" type="qcurve"/>
      <point x="156" y="326" type="line"/>
      <point x="223" y="306"/>
      <point x="390" y="306" type="qcurve" smooth="yes"/>
      <point x="743" y="306"/>
      <point x="804" y="687" type="qcurve"/>
      <point x="657" y="507"/>
      <point x="499" y="507" type="qcurve" smooth="yes"/>
      <point x="57" y="507"/>
      <point x="57" y="981" type="qcurve" smooth="yes"/>
      <point x="57" y="1500"/>
      <point x="613" y="1500" type="qcurve" smooth="yes"/>
      <point x="1207" y="1500"/>
      <point x="1207" y="863" type="qcurve" smooth="yes"/>
      <point x="1207" y="0"/>
      <point x="381" y="0" type="qcurve" smooth="yes"/>
      <point x="217" y="0"/>
    </contour>
    <contour>
      <point x="618" y="812" type="qcurve" smooth="yes"/>
      <point x="716" y="812"/>
      <point x="808" y="982" type="qcurve"/>
      <point x="777" y="1187"/>
      <point x="622" y="1187" type="qcurve" smooth="yes"/>
      <point x="470" y="1187"/>
      <point x="470" y="989" type="qcurve" smooth="yes"/>
      <point x="470" y="812"/>
    </contour>
  </outline>
</glyph>
<glyph name="u003A" format="2">
  <advance width="590"/>
  <unicode hex="003A"/>
  <outline>
    <contour>
      <point x="60" y="1030" type="qcurve" smooth="yes"/>
      <point x="60" y="1144"/>
      <point x="195" y="1236"/>
      <point x="290" y="1236" type="qcurve" smooth="yes"/>
      <point x="378" y="1236"/>
      <point x="511" y="1144"/>
      <point x="511" y="1030" type="qcurve" smooth="yes"/>
      <point x="511" y="921"/>
      <point x="378" y="824"/>
      <point x="290" y="824" type="qcurve" smooth="yes"/>
      <point x="195" y="824"/>
      <point x="60" y="921"/>
    </contour>
    <contour>
      <point x="60" y="179" type="qcurve" smooth="yes"/>
      <point x="60" y="293"/>
      <point x="195" y="386"/>
      <point x="290" y="386" type="qcurve" smooth="yes"/>
      <point x="378" y="386"/>
      <point x="511" y="293"/>
      <point x="511" y="179" type="qcurve" smooth="yes"/>
      <point x="511" y="71"/>
      <point x="378" y="-27"/>
      <point x="290" y="-27" type="qcurve" smooth="yes"/>
      <point x="195" y="-27"/>
      <point x="60" y="71"/>
    </contour>
  </outline>
</glyph>
<glyph name="u003B" format="2">
  <advance width="590"/>
  <unicode hex="003B"/>
  <outline>
    <contour>
      <point x="77" y="1030" type="qcurve" smooth="yes"/>
      <point x="77" y="1144"/>
      <point x="209" y="1236"/>
      <point x="304" y="1236" type="qcurve" smooth="yes"/>
      <point x="393" y="1236"/>
      <point x="527" y="1144"/>
      <point x="527" y="1030" type="qcurve" smooth="yes"/>
      <point x="527" y="921"/>
      <point x="393" y="824"/>
      <point x="304" y="824" type="qcurve" smooth="yes"/>
      <point x="209" y="824"/>
      <point x="77" y="921"/>
    </contour>
    <contour>
      <point x="39" y="-307" type="line"/>
      <point x="50" y="-258"/>
      <point x="140" y="278"/>
      <point x="145" y="322" type="qcurve"/>
      <point x="513" y="322" type="line"/>
      <point x="529" y="297" type="line"/>
      <point x="520" y="259"/>
      <point x="357" y="-266"/>
      <point x="340" y="-307" type="qcurve"/>
    </contour>
  </outline>
</glyph>
<glyph name="u003C" format="2">
  <advance width="1262"/>
  <unicode hex="003C"/>
  <outline>
    <contour>
      <point x="1190" y="510" type="line"/>
      <point x="1190" y="192" type="line"/>
      <point x="99" y="676" type="line"/>
      <point x="99" y="861" type="line"/>
      <point x="1190" y="1407" type="line"/>
      <point x="1190" y="1087" type="line"/>
      <point x="520" y="781" type="line"/>
    </contour>
  </outline>
</glyph>
<glyph name="u003D" format="2">
  <advance width="1262"/>
  <unicode hex="003D"/>
  <outline>
    <contour>
      <point x="1183" y="878" type="line"/>
      <point x="88" y="878" type="line"/>
      <point x="88" y="1167" type="line"/>
      <point x="1183" y="1167" type="line"/>
    </contour>
    <contour>
      <point x="1183" y="386" type="line"/>
      <point x="88" y="386" type="line"/>
      <point x="88" y="678" type="line"/>
      <point x="1183" y="678" type="line"/>
    </contour>
  </outline>
</glyph>
<glyph name="u003E" format="2">
  <advance width="1262"/>
  <unicode hex="003E"/>
  <outline>
    <contour>
      <point x="1179" y="676" type="line"/>
      <point x="88" y="192" type="line"/>
      <point x="88" y="510" type="line"/>
      <point x="757" y="781" type="line"/>
      <point x="88" y="1087" type="line"/>
      <point x="88" y="1407" type="line"/>
      <point x="1179" y="861" type="line"/>
    </contour>
  </outline>
</glyph>
<glyph name="u003F" format="2">
  <advance width="957"/>
  <unicode hex="003F"/>
  <outline>
    <contour>
      <point x="567" y="556" type="line"/>
      <point x="278" y="556" type="line"/>
      <point x="278" y="649" type="line" smooth="yes"/>
      <point x="278" y="829"/>
      <point x="449" y="969" type="qcurve" smooth="yes"/>
      <point x="593" y="1081"/>
      <point x="593" y="1170" type="qcurve" smooth="yes"/>
      <point x="593" y="1268"/>
      <point x="463" y="1268" type="qcurve" smooth="yes"/>
      <point x="341" y="1268"/>
      <point x="130" y="1152" type="qcurve"/>
      <point x="0" y="1445" type="line"/>
      <point x="301" y="1599"/>
      <point x="489" y="1599" type="qcurve" smooth="yes"/>
      <point x="939" y="1599"/>
      <point x="939" y="1205" type="qcurve" smooth="yes"/>
      <point x="939" y="978"/>
      <point x="716" y="799" type="qcurve" smooth="yes"/>
      <point x="567" y="683"/>
      <point x="567" y="611" type="qcurve" smooth="yes"/>
    </contour>
    <contour>
      <point x="237" y="179" type="qcurve" smooth="yes"/>
      <point x="237" y="293"/>
      <point x="354" y="386"/>
      <point x="435" y="386" type="qcurve" smooth="yes"/>
      <point x="515" y="386"/>
      <point x="631" y="293"/>
      <point x="631" y="179" type="qcurve" smooth="yes"/>
      <point x="631" y="71"/>
      <point x="515" y="-27"/>
      <point x="435" y="-27" type="qcurve" smooth="yes"/>
      <point x="354" y="-27"/>
      <point x="237" y="71"/>
    </contour>
  </outline>
</glyph>
<glyph name="u0040" format="2">
  <advance width="1984"/>
  <unicode hex="0040"/>
  <outline>
    <contour>
      <point x="87" y="658" type="qcurve" smooth="yes"/>
      <point x="87" y="1596"/>
      <point x="1043" y="1596" type="qcurve" smooth="yes"/>
      <point x="1890" y="1596"/>
      <point x="1890" y="815" type="qcurve" smooth="yes"/>
      <point x="1890" y="251"/>
      <point x="1482" y="251" type="qcurve" smooth="yes"/>
      <point x="1257" y="251"/>
      <point x="1177" y="418" type="qcurve"/>
      <point x="1062" y="251"/>
      <point x="923" y="251" type="qcurve" smooth="yes"/>
      <point x="515" y="251"/>
      <point x="515" y="689" type="qcurve" smooth="yes"/>
      <point x="515" y="1201"/>
      <point x="1067" y="1201" type="qcurve" smooth="yes"/>
      <point x="1273" y="1201"/>
      <point x="1452" y="1135" type="qcurve"/>
      <point x="1429" y="680" type="line" smooth="yes"/>
      <point x="1423" y="486"/>
      <point x="1480" y="486" type="qcurve" smooth="yes"/>
      <point x="1606" y="486"/>
      <point x="1606" y="817" type="qcurve" smooth="yes"/>
      <point x="1606" y="1355"/>
      <point x="1047" y="1355" type="qcurve" smooth="yes"/>
      <point x="380" y="1355"/>
      <point x="380" y="653" type="qcurve" smooth="yes"/>
      <point x="380" y="80"/>
      <point x="968" y="80" type="qcurve" smooth="yes"/>
      <point x="1273" y="80"/>
      <point x="1522" y="183" type="qcurve"/>
      <point x="1522" y="-64" type="line"/>
      <point x="1271" y="-166"/>
      <point x="983" y="-166" type="qcurve" smooth="yes"/>
      <point x="87" y="-166"/>
    </contour>
    <contour>
      <point x="961" y="486" type="qcurve" smooth="yes"/>
      <point x="1044" y="486"/>
      <point x="1133" y="689" type="qcurve"/>
      <point x="1134" y="696"/>
      <point x="1134" y="704" type="qcurve" smooth="yes"/>
      <point x="1144" y="958" type="line"/>
      <point x="1125" y="965"/>
      <point x="1071" y="965" type="qcurve" smooth="yes"/>
      <point x="818" y="965"/>
      <point x="818" y="691" type="qcurve" smooth="yes"/>
      <point x="818" y="486"/>
    </contour>
  </outline>
</glyph>
<glyph name="u0041" format="2">
  <advance width="1409"/>
  <unicode hex="0041"/>
  <outline>
    <contour>
      <point x="982" y="0" type="line"/>
      <point x="918" y="283" type="line"/>
      <point x="484" y="283" type="line"/>
      <point x="420" y="0" type="line"/>
      <point x="27" y="0" type="line"/>
      <point x="459" y="1520" type="line"/>
      <point x="935" y="1520" type="line"/>
      <point x="1373" y="0" type="line"/>
    </contour>
    <contour>
      <point x="561" y="620" type="line"/>
      <point x="841" y="620" type="line"/>
      <point x="786" y="868" type="line"/>
      <point x="775" y="908"/>
      <point x="700" y="1271" type="qcurve"/>
      <point x="630" y="918"/>
      <point x="617" y="868" type="qcurve" smooth="yes"/>
    </contour>
  </outline>
</glyph>
<glyph name="u0042" format="2">
  <advance width="1434"/>
  <unicode hex="0042"/>
  <outline>
    <contour>
      <point x="169" y="0" type="line"/>
      <point x="169" y="1520" type="line"/>
      <point x="704" y="1520" type="line" smooth="yes"/>
      <point x="1310" y="1519"/>
      <point x="1310" y="1142" type="qcurve" smooth="yes"/>
      <point x="1311" y="851"/>
      <point x="1071" y="806" type="qcurve"/>
      <point x="1071" y="797" type="line"/>
      <point x="1339" y="755"/>
      <point x="1339" y="445" type="qcurve" smooth="yes"/>
      <point x="1339" y="0"/>
      <point x="733" y="0" type="qcurve" smooth="yes"/>
    </contour>
    <contour>
      <point x="579" y="1209" type="line"/>
      <point x="579" y="936" type="line"/>
      <point x="704" y="936" type="line" smooth="yes"/>
      <point x="888" y="937"/>
      <point x="888" y="1081" type="qcurve" smooth="yes"/>
      <point x="887" y="1209"/>
      <point x="704" y="1209" type="qcurve" smooth="yes"/>
    </contour>
    <contour>
      <point x="579" y="637" type="line"/>
      <point x="579" y="317" type="line"/>
      <point x="733" y="317" type="line" smooth="yes"/>
      <point x="916" y="318"/>
      <point x="916" y="479" type="qcurve" smooth="yes"/>
      <point x="915" y="637"/>
      <point x="733" y="637" type="qcurve" smooth="yes"/>
    </contour>
  </outline>
</glyph>
<glyph name="u0043" format="2">
  <advance width="1394"/>
  <unicode hex="0043"/>
  <outline>
    <contour>
      <point x="129" y="734" type="qcurve" smooth="yes"/>
      <point x="129" y="1498"/>
      <point x="845" y="1498" type="qcurve" smooth="yes"/>
      <point x="1076" y="1498"/>
      <point x="1302" y="1393" type="qcurve"/>
      <point x="1180" y="1079" type="line"/>
      <point x="984" y="1170"/>
      <point x="842" y="1170" type="qcurve"/>
      <point x="540" y="1169"/>
      <point x="540" y="731" type="qcurve" smooth="yes"/>
      <point x="541" y="305"/>
      <point x="864" y="305" type="qcurve" smooth="yes"/>
      <point x="1012" y="305"/>
      <point x="1239" y="398" type="qcurve"/>
      <point x="1239" y="61" type="line"/>
      <point x="1029" y="-22"/>
      <point x="820" y="-22" type="qcurve" smooth="yes"/>
      <point x="129" y="-21"/>
    </contour>
  </outline>
</glyph>
<glyph name="u0044" format="2">
  <advance width="1611"/>
  <unicode hex="0044"/>
  <outline>
    <contour>
      <point x="182" y="0" type="line"/>
      <point x="182" y="1520" type="line"/>
      <point x="710" y="1520" type="line" smooth="yes"/>
      <point x="1472" y="1519"/>
      <point x="1472" y="760" type="qcurve" smooth="yes"/>
      <point x="1472" y="0"/>
      <point x="710" y="0" type="qcurve" smooth="yes"/>
    </contour>
    <contour>
      <point x="593" y="1188" type="line"/>
      <point x="593" y="337" type="line"/>
      <point x="710" y="337" type="line" smooth="yes"/>
      <point x="1046" y="338"/>
      <point x="1046" y="763" type="qcurve" smooth="yes"/>
      <point x="1045" y="1188"/>
      <point x="712" y="1188" type="qcurve" smooth="yes"/>
    </contour>
  </outline>
</glyph>
<glyph name="u0045" format="2">
  <advance width="1226"/>
  <unicode hex="0045"/>
  <outline>
    <contour>
      <point x="1088" y="0" type="line"/>
      <point x="186" y="0" type="line"/>
      <point x="186" y="1520" type="line"/>
      <point x="1088" y="1520" type="line"/>
      <point x="1088" y="1190" type="line"/>
      <point x="596" y="1190" type="line"/>
      <point x="596" y="951" type="line"/>
      <point x="1053" y="951" type="line"/>
      <point x="1053" y="622" type="line"/>
      <point x="596" y="622" type="line"/>
      <point x="596" y="335" type="line"/>
      <point x="1088" y="335" type="line"/>
    </contour>
  </outline>
</glyph>
<glyph name="u0046" format="2">
  <advance width="1144"/>
  <unicode hex="0046"/>
  <outline>
    <contour>
      <point x="590" y="0" type="line"/>
      <point x="186" y="0" type="line"/>
      <point x="186" y="1520" type="line"/>
      <point x="1083" y="1520" type="line"/>
      <point x="1083" y="1190" type="line"/>
      <point x="590" y="1190" type="line"/>
      <point x="590" y="900" type="line"/>
      <point x="1045" y="900" type="line"/>
      <point x="1045" y="571" type="line"/>
      <point x="590" y="571" type="line"/>
    </contour>
  </outline>
</glyph>
<glyph name="u0047" format="2">
  <advance width="1606"/>
  <unicode hex="0047"/>
  <outline>
    <contour>
      <point x="155" y="741" type="qcurve" smooth="yes"/>
      <point x="155" y="1498"/>
      <point x="931" y="1498" type="qcurve" smooth="yes"/>
      <point x="1215" y="1498"/>
      <point x="1409" y="1404" type="qcurve"/>
      <point x="1283" y="1091" type="line"/>
      <point x="1120" y="1170"/>
      <point x="933" y="1170" type="qcurve"/>
      <point x="567" y="1169"/>
      <point x="567" y="731" type="qcurve" smooth="yes"/>
      <point x="568" y="307"/>
      <point x="902" y="307" type="qcurve" smooth="yes"/>
      <point x="1028" y="307"/>
      <point x="1065" y="324" type="qcurve"/>
      <point x="1065" y="556" type="line"/>
      <point x="803" y="556" type="line"/>
      <point x="803" y="864" type="line"/>
      <point x="1440" y="864" type="line"/>
      <point x="1440" y="67" type="line"/>
      <point x="1253" y="-22"/>
      <point x="869" y="-22" type="qcurve" smooth="yes"/>
      <point x="155" y="-21"/>
    </contour>
  </outline>
</glyph>
<glyph name="u0048" format="2">
  <advance width="1635"/>
  <unicode hex="0048"/>
  <outline>
    <contour>
      <point x="584" y="0" type="line"/>
      <point x="171" y="0" type="line"/>
      <point x="171" y="1520" type="line"/>
      <point x="584" y="1520" type="line"/>
      <point x="584" y="957" type="line"/>
      <point x="1061" y="957" type="line"/>
      <point x="1061" y="1520" type="line"/>
      <point x="1474" y="1520" type="line"/>
      <point x="1474" y="0" type="line"/>
      <point x="1061" y="0" type="line"/>
      <point x="1061" y="619" type="line"/>
      <point x="584" y="619" type="line"/>
    </contour>
  </outline>
</glyph>
<glyph name="u0049" format="2">
  <advance width="748"/>
  <unicode hex="0049"/>
  <outline>
    <contour>
      <point x="711" y="0" type="line"/>
      <point x="43" y="0" type="line"/>
      <point x="43" y="234" type="line"/>
      <point x="202" y="307" type="line"/>
      <point x="202" y="1215" type="line"/>
      <point x="43" y="1286" type="line"/>
      <point x="43" y="1520" type="line"/>
      <point x="711" y="1520" type="line"/>
      <point x="711" y="1286" type="line"/>
      <point x="552" y="1215" type="line"/>
      <point x="552" y="307" type="line"/>
      <point x="711" y="234" type="line"/>
    </contour>
  </outline>
</glyph>
<glyph name="u004A" format="2">
  <advance width="602"/>
  <unicode hex="004A"/>
  <outline>
    <contour>
      <point x="-238" y="-472" type="qcurve"/>
      <point x="-238" y="-141" type="line"/>
      <point x="-161" y="-164"/>
      <point x="-82" y="-164" type="qcurve" smooth="yes"/>
      <point x="116" y="-164"/>
      <point x="116" y="117" type="qcurve" smooth="yes"/>
      <point x="116" y="1520" type="line"/>
      <point x="543" y="1520" type="line"/>
      <point x="543" y="154" type="line" smooth="yes"/>
      <point x="543" y="-495"/>
      <point x="-17" y="-495" type="qcurve" smooth="yes"/>
      <point x="-157" y="-495"/>
    </contour>
  </outline>
</glyph>
<glyph name="u004B" format="2">
  <advance width="1365"/>
  <unicode hex="004B"/>
  <outline>
    <contour>
      <point x="555" y="0" type="line"/>
      <point x="190" y="0" type="line"/>
      <point x="190" y="1520" type="line"/>
      <point x="555" y="1520" type="line"/>
      <point x="555" y="859" type="line"/>
      <point x="637" y="1009"/>
      <point x="667" y="1054" type="qcurve" smooth="yes"/>
      <point x="948" y="1520" type="line"/>
      <point x="1346" y="1520" type="line"/>
      <point x="922" y="839" type="line"/>
      <point x="1338" y="0" type="line"/>
      <point x="928" y="0" type="line"/>
      <point x="662" y="582" type="line"/>
      <point x="555" y="508" type="line"/>
    </contour>
  </outline>
</glyph>
<glyph name="u004C" format="2">
  <advance width="1156"/>
  <unicode hex="004C"/>
  <outline>
    <contour>
      <point x="1120" y="0" type="line"/>
      <point x="186" y="0" type="line"/>
      <point x="186" y="1520" type="line"/>
      <point x="586" y="1520" type="line"/>
      <point x="586" y="332" type="line"/>
      <point x="1120" y="332" type="line"/>
    </contour>
  </outline>
</glyph>
<glyph name="u004D" format="2">
  <advance width="2001"/>
  <unicode hex="004D"/>
  <outline>
    <contour>
      <point x="510" y="0" type="line"/>
      <point x="147" y="0" type="line"/>
      <point x="147" y="1520" type="line"/>
      <point x="694" y="1520" type="line"/>
      <point x="1011" y="441" type="line"/>
      <point x="1020" y="441" type="line"/>
      <point x="1331" y="1520" type="line"/>
      <point x="1878" y="1520" type="line"/>
      <point x="1878" y="0" type="line"/>
      <point x="1501" y="0" type="line"/>
      <point x="1501" y="666" type="line" smooth="yes"/>
      <point x="1501" y="738"/>
      <point x="1516" y="1093" type="qcurve"/>
      <point x="1508" y="1093" type="line"/>
      <point x="1201" y="0" type="line"/>
      <point x="809" y="0" type="line"/>
      <point x="498" y="1095" type="line"/>
      <point x="490" y="1095" type="line"/>
      <point x="510" y="736"/>
      <point x="510" y="660" type="qcurve" smooth="yes"/>
    </contour>
  </outline>
</glyph>
<glyph name="u004E" format="2">
  <advance width="1677"/>
  <unicode hex="004E"/>
  <outline>
    <contour>
      <point x="494" y="0" type="line"/>
      <point x="131" y="0" type="line"/>
      <point x="131" y="1520" type="line"/>
      <point x="667" y="1520" type="line"/>
      <point x="1221" y="464" type="line"/>
      <point x="1227" y="464" type="line"/>
      <point x="1212" y="780"/>
      <point x="1212" y="832" type="qcurve" smooth="yes"/>
      <point x="1212" y="1520" type="line"/>
      <point x="1579" y="1520" type="line"/>
      <point x="1579" y="0" type="line"/>
      <point x="1039" y="0" type="line"/>
      <point x="484" y="1071" type="line"/>
      <point x="476" y="1071" type="line"/>
      <point x="494" y="743"/>
      <point x="494" y="685" type="qcurve" smooth="yes"/>
    </contour>
  </outline>
</glyph>
<glyph name="u004F" format="2">
  <advance width="1723"/>
  <unicode hex="004F"/>
  <outline>
    <contour>
      <point x="150" y="738" type="qcurve" smooth="yes"/>
      <point x="150" y="1498"/>
      <point x="867" y="1498" type="qcurve" smooth="yes"/>
      <point x="1584" y="1497"/>
      <point x="1584" y="738" type="qcurve" smooth="yes"/>
      <point x="1584" y="-22"/>
      <point x="867" y="-22" type="qcurve" smooth="yes"/>
      <point x="150" y="-21"/>
    </contour>
    <contour>
      <point x="1165" y="739" type="qcurve" smooth="yes"/>
      <point x="1164" y="1168"/>
      <point x="867" y="1168" type="qcurve"/>
      <point x="569" y="1167"/>
      <point x="569" y="739" type="qcurve" smooth="yes"/>
      <point x="570" y="309"/>
      <point x="867" y="309" type="qcurve" smooth="yes"/>
      <point x="1165" y="310"/>
    </contour>
  </outline>
</glyph>
<glyph name="u0050" format="2">
  <advance width="1335"/>
  <unicode hex="0050"/>
  <outline>
    <contour>
      <point x="578" y="0" type="line"/>
      <point x="167" y="0" type="line"/>
      <point x="167" y="1520" type="line"/>
      <point x="690" y="1520" type="line" smooth="yes"/>
      <point x="1271" y="1519"/>
      <point x="1271" y="1013" type="qcurve" smooth="yes"/>
      <point x="1270" y="504"/>
      <point x="690" y="504" type="qcurve" smooth="yes"/>
      <point x="578" y="504" type="line"/>
    </contour>
    <contour>
      <point x="578" y="1188" type="line"/>
      <point x="578" y="839" type="line"/>
      <point x="690" y="839" type="line" smooth="yes"/>
      <point x="860" y="840"/>
      <point x="860" y="1014" type="qcurve" smooth="yes"/>
      <point x="859" y="1188"/>
      <point x="690" y="1188" type="qcurve" smooth="yes"/>
    </contour>
  </outline>
</glyph>
<glyph name="u0051" format="2">
  <advance width="1723"/>
  <unicode hex="0051"/>
  <outline>
    <contour>
      <point x="123" y="757" type="qcurve" smooth="yes"/>
      <point x="123" y="1525"/>
      <point x="868" y="1525" type="qcurve" smooth="yes"/>
      <point x="1612" y="1524"/>
      <point x="1612" y="757" type="qcurve" smooth="yes"/>
      <point x="1613" y="232"/>
      <point x="1283" y="56" type="qcurve"/>
      <point x="1655" y="-375" type="line"/>
      <point x="1141" y="-375" type="line"/>
      <point x="878" y="-32" type="line"/>
      <point x="872" y="-32"/>
      <point x="868" y="-32" type="qcurve" smooth="yes"/>
      <point x="123" y="-31"/>
    </contour>
    <contour>
      <point x="1177" y="757" type="qcurve" smooth="yes"/>
      <point x="1177" y="1183"/>
      <point x="868" y="1183" type="qcurve"/>
      <point x="559" y="1182"/>
      <point x="559" y="757" type="qcurve" smooth="yes"/>
      <point x="560" y="311"/>
      <point x="868" y="311" type="qcurve" smooth="yes"/>
      <point x="1177" y="312"/>
    </contour>
  </outline>
</glyph>
<glyph name="u0052" format="2">
  <advance width="1372"/>
  <unicode hex="0052"/>
  <outline>
    <contour>
      <point x="557" y="504" type="line"/>
      <point x="557" y="0" type="line"/>
      <point x="190" y="0" type="line"/>
      <point x="190" y="1520" type="line"/>
      <point x="658" y="1520" type="line" smooth="yes"/>
      <point x="1176" y="1519"/>
      <point x="1176" y="1013" type="qcurve" smooth="yes"/>
      <point x="1177" y="717"/>
      <point x="1001" y="592" type="qcurve"/>
      <point x="1355" y="0" type="line"/>
      <point x="939" y="0" type="line"/>
      <point x="676" y="504" type="line"/>
      <point x="667" y="504"/>
      <point x="658" y="504" type="qcurve" smooth="yes"/>
    </contour>
    <contour>
      <point x="557" y="1188" type="line"/>
      <point x="557" y="839" type="line"/>
      <point x="658" y="839" type="line" smooth="yes"/>
      <point x="809" y="840"/>
      <point x="809" y="1014" type="qcurve" smooth="yes"/>
      <point x="808" y="1188"/>
      <point x="658" y="1188" type="qcurve" smooth="yes"/>
    </contour>
  </outline>
</glyph>
<glyph name="u0053" format="2">
  <advance width="1211"/>
  <unicode hex="0053"/>
  <outline>
    <contour>
      <point x="98" y="72" type="qcurve"/>
      <point x="98" y="427" type="line"/>
      <point x="480" y="302"/>
      <point x="563" y="302" type="qcurve" smooth="yes"/>
      <point x="734" y="303"/>
      <point x="734" y="413" type="qcurve" smooth="yes"/>
      <point x="733" y="522"/>
      <point x="467" y="607" type="qcurve" smooth="yes"/>
      <point x="109" y="724"/>
      <point x="109" y="1065" type="qcurve" smooth="yes"/>
      <point x="109" y="1498"/>
      <point x="666" y="1498" type="qcurve" smooth="yes"/>
      <point x="889" y="1498"/>
      <point x="1134" y="1391" type="qcurve"/>
      <point x="1011" y="1084" type="line"/>
      <point x="792" y="1178"/>
      <point x="654" y="1178" type="qcurve"/>
      <point x="503" y="1177"/>
      <point x="503" y="1084" type="qcurve" smooth="yes"/>
      <point x="503" y="975"/>
      <point x="794" y="880" type="qcurve" smooth="yes"/>
      <point x="1134" y="773"/>
      <point x="1134" y="448" type="qcurve" smooth="yes"/>
      <point x="1134" y="-22"/>
      <point x="554" y="-22" type="qcurve" smooth="yes"/>
      <point x="389" y="-22"/>
    </contour>
  </outline>
</glyph>
<glyph name="u0054" format="2">
  <advance width="1226"/>
  <unicode hex="0054"/>
  <outline>
    <contour>
      <point x="825" y="0" type="line"/>
      <point x="414" y="0" type="line"/>
      <point x="414" y="1184" type="line"/>
      <point x="43" y="1184" type="line"/>
      <point x="43" y="1520" type="line"/>
      <point x="1195" y="1520" type="line"/>
      <point x="1195" y="1184" type="line"/>
      <point x="825" y="1184" type="line"/>
    </contour>
  </outline>
</glyph>
<glyph name="u0055" format="2">
  <advance width="1613"/>
  <unicode hex="0055"/>
  <outline>
    <contour>
      <point x="172" y="587" type="qcurve" smooth="yes"/>
      <point x="172" y="1498" type="line"/>
      <point x="579" y="1498" type="line"/>
      <point x="579" y="587" type="line" smooth="yes"/>
      <point x="580" y="316"/>
      <point x="815" y="316" type="qcurve" smooth="yes"/>
      <point x="1050" y="317"/>
      <point x="1050" y="587" type="qcurve" smooth="yes"/>
      <point x="1050" y="1498" type="line"/>
      <point x="1454" y="1498" type="line"/>
      <point x="1454" y="587" type="line" smooth="yes"/>
      <point x="1454" y="-22"/>
      <point x="814" y="-22" type="qcurve" smooth="yes"/>
      <point x="172" y="-21"/>
    </contour>
  </outline>
</glyph>
<glyph name="u0056" format="2">
  <advance width="1323"/>
  <unicode hex="0056"/>
  <outline>
    <contour>
      <point x="866" y="0" type="line"/>
      <point x="451" y="0" type="line"/>
      <point x="23" y="1520" type="line"/>
      <point x="421" y="1520" type="line"/>
      <point x="599" y="749" type="line" smooth="yes"/>
      <point x="608" y="708"/>
      <point x="660" y="392" type="qcurve"/>
      <point x="707" y="703"/>
      <point x="718" y="746" type="qcurve" smooth="yes"/>
      <point x="900" y="1520" type="line"/>
      <point x="1296" y="1520" type="line"/>
    </contour>
  </outline>
</glyph>
<glyph name="u0057" format="2">
  <advance width="2052"/>
  <unicode hex="0057"/>
  <outline>
    <contour>
      <point x="828" y="0" type="line"/>
      <point x="388" y="0" type="line"/>
      <point x="46" y="1520" type="line"/>
      <point x="406" y="1520" type="line"/>
      <point x="556" y="758" type="line" smooth="yes"/>
      <point x="562" y="731"/>
      <point x="625" y="356" type="qcurve"/>
      <point x="689" y="752"/>
      <point x="728" y="945" type="qcurve" smooth="yes"/>
      <point x="849" y="1520" type="line"/>
      <point x="1196" y="1520" type="line"/>
      <point x="1313" y="945" type="line" smooth="yes"/>
      <point x="1352" y="752"/>
      <point x="1416" y="356" type="qcurve"/>
      <point x="1476" y="718"/>
      <point x="1484" y="756" type="qcurve" smooth="yes"/>
      <point x="1636" y="1520" type="line"/>
      <point x="1995" y="1520" type="line"/>
      <point x="1656" y="0" type="line"/>
      <point x="1215" y="0" type="line"/>
      <point x="1084" y="663" type="line" smooth="yes"/>
      <point x="1063" y="772"/>
      <point x="1023" y="1035" type="qcurve"/>
      <point x="982" y="772"/>
      <point x="962" y="663" type="qcurve" smooth="yes"/>
    </contour>
  </outline>
</glyph>
<glyph name="u0058" format="2">
  <advance width="1293"/>
  <unicode hex="0058"/>
  <outline>
    <contour>
      <point x="875" y="0" type="line"/>
      <point x="645" y="413" type="line"/>
      <point x="415" y="0" type="line"/>
      <point x="31" y="0" type="line"/>
      <point x="454" y="759" type="line"/>
      <point x="31" y="1520" type="line"/>
      <point x="406" y="1520" type="line"/>
      <point x="644" y="1099" type="line"/>
      <point x="878" y="1520" type="line"/>
      <point x="1266" y="1520" type="line"/>
      <point x="839" y="756" type="line"/>
      <point x="1266" y="0" type="line"/>
    </contour>
  </outline>
</glyph>
<glyph name="u0059" format="2">
  <advance width="1249"/>
  <unicode hex="0059"/>
  <outline>
    <contour>
      <point x="806" y="0" type="line"/>
      <point x="452" y="0" type="line"/>
      <point x="452" y="582" type="line"/>
      <point x="22" y="1520" type="line"/>
      <point x="406" y="1520" type="line"/>
      <point x="629" y="957" type="line"/>
      <point x="854" y="1520" type="line"/>
      <point x="1236" y="1520" type="line"/>
      <point x="806" y="593" type="line"/>
    </contour>
  </outline>
</glyph>
<glyph name="u005A" format="2">
  <advance width="1262"/>
  <unicode hex="005A"/>
  <outline>
    <contour>
      <point x="1228" y="0" type="line"/>
      <point x="44" y="0" type="line"/>
      <point x="44" y="254" type="line"/>
      <point x="702" y="1188" type="line"/>
      <point x="58" y="1188" type="line"/>
      <point x="58" y="1520" type="line"/>
      <point x="1210" y="1520" type="line"/>
      <point x="1210" y="1267" type="line"/>
      <point x="552" y="332" type="line"/>
      <point x="1228" y="332" type="line"/>
    </contour>
  </outline>
</glyph>
<glyph name="u005B" format="2">
  <advance width="725"/>
  <unicode hex="005B"/>
  <outline>
    <contour>
      <point x="664" y="-371" type="line"/>
      <point x="125" y="-371" type="line"/>
      <point x="125" y="1620" type="line"/>
      <point x="664" y="1620" type="line"/>
      <point x="664" y="1346" type="line"/>
      <point x="467" y="1346" type="line"/>
      <point x="467" y="-97" type="line"/>
      <point x="664" y="-97" type="line"/>
    </contour>
  </outline>
</glyph>
<glyph name="u005C" format="2">
  <advance width="820"/>
  <unicode hex="005C"/>
  <outline>
    <contour>
      <point x="824" y="-22" type="line"/>
      <point x="506" y="-22" type="line"/>
      <point x="6" y="1599" type="line"/>
      <point x="324" y="1599" type="line"/>
    </contour>
  </outline>
</glyph>
<glyph name="u005D" format="2">
  <advance width="725"/>
  <unicode hex="005D"/>
  <outline>
    <contour>
      <point x="589" y="-371" type="line"/>
      <point x="50" y="-371" type="line"/>
      <point x="50" y="-97" type="line"/>
      <point x="246" y="-97" type="line"/>
      <point x="246" y="1346" type="line"/>
      <point x="50" y="1346" type="line"/>
      <point x="50" y="1620" type="line"/>
      <point x="589" y="1620" type="line"/>
    </contour>
  </outline>
</glyph>
<glyph name="u005E" format="2">
  <advance width="1262"/>
  <unicode hex="005E"/>
  <outline>
    <contour>
      <point x="435" y="1041" type="line"/>
      <point x="126" y="1041" type="line"/>
      <point x="510" y="1652" type="line"/>
      <point x="694" y="1652" type="line"/>
      <point x="1121" y="1041" type="line"/>
      <point x="803" y="1041" type="line"/>
      <point x="613" y="1288" type="line"/>
    </contour>
  </outline>
</glyph>
<glyph name="u005F" format="2">
  <advance width="979"/>
  <unicode hex="005F"/>
  <outline>
    <contour>
      <point x="979" y="-409" type="line"/>
      <point x="-4" y="-409" type="line"/>
      <point x="-4" y="-143" type="line"/>
      <point x="979" y="-143" type="line"/>
    </contour>
  </outline>
</glyph>
<glyph name="u0060" format="2">
  <advance width="619"/>
  <unicode hex="0060"/>
  <outline>
    <contour>
      <point x="392" y="1338" type="line"/>
      <point x="378" y="1350"/>
      <point x="35" y="1657"/>
      <point x="22" y="1669" type="qcurve"/>
      <point x="22" y="1691" type="line"/>
      <point x="390" y="1691" type="line"/>
      <point x="447" y="1600"/>
      <point x="570" y="1431"/>
      <point x="614" y="1369" type="qcurve"/>
      <point x="614" y="1338" type="line"/>
    </contour>
  </outline>
</glyph>
<glyph name="u0061" format="2">
  <advance width="1237"/>
  <unicode hex="0061"/>
  <outline>
    <contour>
      <point x="170" y="1133" type="line"/>
      <point x="414" y="1243"/>
      <point x="708" y="1243" type="qcurve" smooth="yes"/>
      <point x="1200" y="1243"/>
      <point x="1200" y="801" type="qcurve" smooth="yes"/>
      <point x="1200" y="0" type="line"/>
      <point x="909" y="0" type="line"/>
      <point x="809" y="195" type="line"/>
      <point x="653" y="-22"/>
      <point x="417" y="-22" type="qcurve" smooth="yes"/>
      <point x="46" y="-22"/>
      <point x="46" y="373" type="qcurve" smooth="yes"/>
      <point x="46" y="734"/>
      <point x="576" y="766" type="qcurve" smooth="yes"/>
      <point x="781" y="777" type="line"/>
      <point x="781" y="801" type="line" smooth="yes"/>
      <point x="781" y="945"/>
      <point x="631" y="945" type="qcurve" smooth="yes"/>
      <point x="493" y="945"/>
      <point x="291" y="855" type="qcurve"/>
    </contour>
    <contour>
      <point x="596" y="276" type="qcurve" smooth="yes"/>
      <point x="705" y="276"/>
      <point x="781" y="418" type="qcurve"/>
      <point x="781" y="545" type="line"/>
      <point x="684" y="541" type="line" smooth="yes"/>
      <point x="474" y="528"/>
      <point x="474" y="398" type="qcurve" smooth="yes"/>
      <point x="474" y="276"/>
    </contour>
  </outline>
</glyph>
<glyph name="u0062" format="2">
  <advance width="1357"/>
  <unicode hex="0062"/>
  <outline>
    <contour>
      <point x="528" y="137" type="qcurve"/>
      <point x="452" y="0" type="line"/>
      <point x="123" y="0" type="line"/>
      <point x="123" y="1677" type="line"/>
      <point x="544" y="1677" type="line"/>
      <point x="544" y="1101" type="line"/>
      <point x="693" y="1243"/>
      <point x="856" y="1243" type="qcurve" smooth="yes"/>
      <point x="1302" y="1243"/>
      <point x="1302" y="611" type="qcurve" smooth="yes"/>
      <point x="1302" y="-22"/>
      <point x="856" y="-22" type="qcurve" smooth="yes"/>
      <point x="684" y="-22"/>
    </contour>
    <contour>
      <point x="544" y="772" type="qcurve"/>
      <point x="544" y="449" type="line"/>
      <point x="633" y="318"/>
      <point x="719" y="318" type="qcurve" smooth="yes"/>
      <point x="873" y="318"/>
      <point x="873" y="611" type="qcurve" smooth="yes"/>
      <point x="873" y="903"/>
      <point x="719" y="903" type="qcurve" smooth="yes"/>
      <point x="633" y="903"/>
    </contour>
  </outline>
</glyph>
<glyph name="u0063" format="2">
  <advance width="1059"/>
  <unicode hex="0063"/>
  <outline>
    <contour>
      <point x="71" y="605" type="qcurve" smooth="yes"/>
      <point x="71" y="1243"/>
      <point x="679" y="1243" type="qcurve" smooth="yes"/>
      <point x="850" y="1243"/>
      <point x="1057" y="1150" type="qcurve"/>
      <point x="940" y="839" type="line"/>
      <point x="776" y="912"/>
      <point x="679" y="912" type="qcurve" smooth="yes"/>
      <point x="476" y="912"/>
      <point x="476" y="607" type="qcurve" smooth="yes"/>
      <point x="476" y="314"/>
      <point x="681" y="314" type="qcurve" smooth="yes"/>
      <point x="775" y="314"/>
      <point x="1017" y="421" type="qcurve"/>
      <point x="1017" y="86" type="line"/>
      <point x="771" y="-22"/>
      <point x="648" y="-22" type="qcurve" smooth="yes"/>
      <point x="71" y="-22"/>
    </contour>
  </outline>
</glyph>
<glyph name="u0065" format="2">
  <advance width="1244"/>
  <unicode hex="0065"/>
  <outline>
    <contour>
      <point x="71" y="611" type="qcurve" smooth="yes"/>
      <point x="71" y="1243"/>
      <point x="653" y="1243" type="qcurve" smooth="yes"/>
      <point x="1210" y="1243"/>
      <point x="1210" y="684" type="qcurve" smooth="yes"/>
      <point x="1210" y="497" type="line"/>
      <point x="492" y="497" type="line"/>
      <point x="533" y="278"/>
      <point x="740" y="278" type="qcurve" smooth="yes"/>
      <point x="934" y="278"/>
      <point x="1134" y="371" type="qcurve"/>
      <point x="1134" y="68" type="line"/>
      <point x="939" y="-22"/>
      <point x="692" y="-22" type="qcurve" smooth="yes"/>
      <point x="71" y="-22"/>
    </contour>
    <contour>
      <point x="494" y="762" type="qcurve"/>
      <point x="841" y="762" type="line"/>
      <point x="838" y="956"/>
      <point x="661" y="956" type="qcurve" smooth="yes"/>
      <point x="526" y="956"/>
    </contour>
  </outline>
</glyph>
<glyph name="u0066" format="2">
  <advance width="758"/>
  <unicode hex="0066"/>
  <outline>
    <contour>
      <point x="534" y="0" type="line"/>
      <point x="183" y="0" type="line"/>
      <point x="183" y="905" type="line"/>
      <point x="48" y="905" type="line"/>
      <point x="48" y="1112" type="line"/>
      <point x="190" y="1216" type="line"/>
      <point x="190" y="1236" type="line" smooth="yes"/>
      <point x="190" y="1689"/>
      <point x="536" y="1689" type="qcurve" smooth="yes"/>
      <point x="633" y="1689"/>
      <point x="814" y="1631" type="qcurve"/>
      <point x="739" y="1358" type="line"/>
      <point x="667" y="1380"/>
      <point x="612" y="1380" type="qcurve" smooth="yes"/>
      <point x="534" y="1380"/>
      <point x="534" y="1254" type="qcurve" smooth="yes"/>
      <point x="534" y="1221" type="line"/>
      <point x="752" y="1221" type="line"/>
      <point x="752" y="905" type="line"/>
      <point x="534" y="905" type="line"/>
    </contour>
  </outline>
</glyph>
<glyph name="u0067" format="2">
  <advance width="1357"/>
  <unicode hex="0067"/>
  <outline>
    <contour>
      <point x="94" y="611" type="qcurve" smooth="yes"/>
      <point x="94" y="1243"/>
      <point x="540" y="1243" type="qcurve" smooth="yes"/>
      <point x="717" y="1243"/>
      <point x="877" y="1076" type="qcurve"/>
      <point x="909" y="1221" type="line"/>
      <point x="1273" y="1221" type="line"/>
      <point x="1273" y="-2" type="line" smooth="yes"/>
      <point x="1273" y="-530"/>
      <point x="622" y="-530" type="qcurve" smooth="yes"/>
      <point x="321" y="-530"/>
      <point x="145" y="-459" type="qcurve"/>
      <point x="145" y="-108" type="line"/>
      <point x="379" y="-200"/>
      <point x="597" y="-200" type="qcurve" smooth="yes"/>
      <point x="852" y="-200"/>
      <point x="852" y="2" type="qcurve" smooth="yes"/>
      <point x="852" y="121" type="line"/>
      <point x="703" y="-22"/>
      <point x="540" y="-22" type="qcurve" smooth="yes"/>
      <point x="94" y="-22"/>
    </contour>
    <contour>
      <point x="677" y="318" type="qcurve" smooth="yes"/>
      <point x="763" y="318"/>
      <point x="852" y="449" type="qcurve"/>
      <point x="852" y="772" type="line"/>
      <point x="763" y="903"/>
      <point x="677" y="903" type="qcurve" smooth="yes"/>
      <point x="523" y="903"/>
      <point x="523" y="611" type="qcurve" smooth="yes"/>
      <point x="523" y="318"/>
    </contour>
  </outline>
</glyph>
<glyph name="u0068" format="2">
  <advance width="1363"/>
  <unicode hex="0068"/>
  <outline>
    <contour>
      <point x="523" y="727" type="qcurve"/>
      <point x="523" y="0" type="line"/>
      <point x="102" y="0" type="line"/>
      <point x="102" y="1677" type="line"/>
      <point x="523" y="1677" type="line"/>
      <point x="523" y="1014" type="line"/>
      <point x="703" y="1243"/>
      <point x="883" y="1243" type="qcurve" smooth="yes"/>
      <point x="1294" y="1243"/>
      <point x="1294" y="794" type="qcurve" smooth="yes"/>
      <point x="1294" y="0" type="line"/>
      <point x="871" y="0" type="line"/>
      <point x="871" y="666" type="line" smooth="yes"/>
      <point x="871" y="912"/>
      <point x="725" y="912" type="qcurve" smooth="yes"/>
      <point x="631" y="912"/>
    </contour>
  </outline>
</glyph>
<glyph name="u0069" format="2">
  <advance width="569"/>
  <unicode hex="0069"/>
  <outline>
    <contour>
      <point x="60" y="1525" type="qcurve" smooth="yes"/>
      <point x="60" y="1638"/>
      <point x="190" y="1713"/>
      <point x="283" y="1713" type="qcurve" smooth="yes"/>
      <point x="374" y="1713"/>
      <point x="508" y="1638"/>
      <point x="508" y="1525" type="qcurve" smooth="yes"/>
      <point x="508" y="1417"/>
      <point x="374" y="1340"/>
      <point x="283" y="1340" type="qcurve" smooth="yes"/>
      <point x="190" y="1340"/>
      <point x="60" y="1417"/>
    </contour>
    <contour>
      <point x="492" y="0" type="line"/>
      <point x="71" y="0" type="line"/>
      <point x="71" y="1221" type="line"/>
      <point x="492" y="1221" type="line"/>
    </contour>
  </outline>
</glyph>
<glyph name="u006A" format="2">
  <advance width="569"/>
  <unicode hex="006A"/>
  <outline>
    <contour>
      <point x="71" y="1525" type="qcurve" smooth="yes"/>
      <point x="71" y="1638"/>
      <point x="201" y="1713"/>
      <point x="294" y="1713" type="qcurve" smooth="yes"/>
      <point x="385" y="1713"/>
      <point x="519" y="1638"/>
      <point x="519" y="1525" type="qcurve" smooth="yes"/>
      <point x="519" y="1417"/>
      <point x="385" y="1340"/>
      <point x="294" y="1340" type="qcurve" smooth="yes"/>
      <point x="201" y="1340"/>
      <point x="71" y="1417"/>
    </contour>
    <contour>
      <point x="-176" y="-503" type="qcurve"/>
      <point x="-176" y="-175" type="line"/>
      <point x="-103" y="-194"/>
      <point x="-46" y="-194" type="qcurve" smooth="yes"/>
      <point x="83" y="-194"/>
      <point x="83" y="-11" type="qcurve" smooth="yes"/>
      <point x="83" y="1221" type="line"/>
      <point x="504" y="1221" type="line"/>
      <point x="504" y="-99" type="line" smooth="yes"/>
      <point x="504" y="-530"/>
      <point x="51" y="-530" type="qcurve" smooth="yes"/>
      <point x="-75" y="-530"/>
    </contour>
  </outline>
</glyph>
<glyph name="u006B" format="2">
  <advance width="1198"/>
  <unicode hex="006B"/>
  <outline>
    <contour>
      <point x="436" y="0" type="line"/>
      <point x="70" y="0" type="line"/>
      <point x="70" y="1677" type="line"/>
      <point x="436" y="1677" type="line"/>
      <point x="436" y="708" type="line"/>
      <point x="773" y="1221" type="line"/>
      <point x="1178" y="1221" type="line"/>
      <point x="813" y="702" type="line"/>
      <point x="1201" y="0" type="line"/>
      <point x="786" y="0" type="line"/>
      <point x="554" y="438" type="line"/>
      <point x="436" y="333" type="line"/>
    </contour>
  </outline>
</glyph>
<glyph name="u006C" format="2">
  <advance width="569"/>
  <unicode hex="006C"/>
  <outline>
    <contour>
      <point x="501" y="0" type="line"/>
      <point x="80" y="0" type="line"/>
      <point x="80" y="1677" type="line"/>
      <point x="501" y="1677" type="line"/>
    </contour>
  </outline>
</glyph>
<glyph name="u006D" format="2">
  <advance width="2063"/>
  <unicode hex="006D"/>
  <outline>
    <contour>
      <point x="398" y="1221" type="line"/>
      <point x="496" y="1037" type="line"/>
      <point x="667" y="1243"/>
      <point x="839" y="1243" type="qcurve" smooth="yes"/>
      <point x="1140" y="1243"/>
      <point x="1220" y="1001" type="qcurve"/>
      <point x="1405" y="1243"/>
      <point x="1590" y="1243" type="qcurve" smooth="yes"/>
      <point x="2001" y="1243"/>
      <point x="2001" y="794" type="qcurve" smooth="yes"/>
      <point x="2001" y="0" type="line"/>
      <point x="1577" y="0" type="line"/>
      <point x="1577" y="666" type="line" smooth="yes"/>
      <point x="1577" y="912"/>
      <point x="1432" y="912" type="qcurve" smooth="yes"/>
      <point x="1347" y="912"/>
      <point x="1250" y="758" type="qcurve"/>
      <point x="1250" y="0" type="line"/>
      <point x="826" y="0" type="line"/>
      <point x="826" y="666" type="line" smooth="yes"/>
      <point x="826" y="912"/>
      <point x="680" y="912" type="qcurve" smooth="yes"/>
      <point x="596" y="912"/>
      <point x="501" y="763" type="qcurve"/>
      <point x="501" y="0" type="line"/>
      <point x="80" y="0" type="line"/>
      <point x="80" y="1221" type="line"/>
    </contour>
  </outline>
</glyph>
<glyph name="u006F" format="2">
  <advance width="1335"/>
  <unicode hex="006F"/>
  <outline>
    <contour>
      <point x="60" y="611" type="qcurve" smooth="yes"/>
      <point x="60" y="1243"/>
      <point x="669" y="1243" type="qcurve" smooth="yes"/>
      <point x="1278" y="1243"/>
      <point x="1278" y="611" type="qcurve" smooth="yes"/>
      <point x="1278" y="-22"/>
      <point x="669" y="-22" type="qcurve" smooth="yes"/>
      <point x="60" y="-22"/>
    </contour>
    <contour>
      <point x="850" y="610" type="qcurve" smooth="yes"/>
      <point x="850" y="929"/>
      <point x="669" y="929" type="qcurve" smooth="yes"/>
      <point x="488" y="929"/>
      <point x="488" y="610" type="qcurve" smooth="yes"/>
      <point x="488" y="291"/>
      <point x="669" y="291" type="qcurve" smooth="yes"/>
      <point x="850" y="291"/>
    </contour>
  </outline>
</glyph>
<glyph name="u0070" format="2">
  <advance width="1357"/>
  <unicode hex="0070"/>
  <outline>
    <contour>
      <point x="537" y="121" type="qcurve"/>
      <point x="537" y="-456" type="line"/>
      <point x="116" y="-456" type="line"/>
      <point x="116" y="1221" type="line"/>
      <point x="445" y="1221" type="line"/>
      <point x="521" y="1084" type="line"/>
      <point x="677" y="1243"/>
      <point x="849" y="1243" type="qcurve" smooth="yes"/>
      <point x="1295" y="1243"/>
      <point x="1295" y="611" type="qcurve" smooth="yes"/>
      <point x="1295" y="-22"/>
      <point x="849" y="-22" type="qcurve" smooth="yes"/>
      <point x="686" y="-22"/>
    </contour>
    <contour>
      <point x="537" y="772" type="qcurve"/>
      <point x="537" y="449" type="line"/>
      <point x="626" y="318"/>
      <point x="712" y="318" type="qcurve" smooth="yes"/>
      <point x="866" y="318"/>
      <point x="866" y="611" type="qcurve" smooth="yes"/>
      <point x="866" y="903"/>
      <point x="712" y="903" type="qcurve" smooth="yes"/>
      <point x="626" y="903"/>
    </contour>
  </outline>
</glyph>
<glyph name="u0071" format="2">
  <advance width="1357"/>
  <unicode hex="0071"/>
  <outline>
    <contour>
      <point x="84" y="611" type="qcurve" smooth="yes"/>
      <point x="84" y="1243"/>
      <point x="530" y="1243" type="qcurve" smooth="yes"/>
      <point x="703" y="1243"/>
      <point x="858" y="1084" type="qcurve"/>
      <point x="934" y="1221" type="line"/>
      <point x="1263" y="1221" type="line"/>
      <point x="1263" y="-456" type="line"/>
      <point x="842" y="-456" type="line"/>
      <point x="842" y="121" type="line"/>
      <point x="693" y="-22"/>
      <point x="530" y="-22" type="qcurve" smooth="yes"/>
      <point x="84" y="-22"/>
    </contour>
    <contour>
      <point x="667" y="318" type="qcurve" smooth="yes"/>
      <point x="753" y="318"/>
      <point x="842" y="449" type="qcurve"/>
      <point x="842" y="772" type="line"/>
      <point x="753" y="903"/>
      <point x="667" y="903" type="qcurve" smooth="yes"/>
      <point x="513" y="903"/>
      <point x="513" y="611" type="qcurve" smooth="yes"/>
      <point x="513" y="318"/>
    </contour>
  </outline>
</glyph>
<glyph name="u0072" format="2">
  <advance width="910"/>
  <unicode hex="0072"/>
  <outline>
    <contour>
      <point x="484" y="707" type="qcurve"/>
      <point x="484" y="0" type="line"/>
      <point x="91" y="0" type="line"/>
      <point x="91" y="1221" type="line"/>
      <point x="388" y="1221" type="line"/>
      <point x="484" y="1027" type="line"/>
      <point x="484" y="1021" type="line"/>
      <point x="641" y="1243"/>
      <point x="780" y="1243" type="qcurve" smooth="yes"/>
      <point x="842" y="1243"/>
      <point x="899" y="1226" type="qcurve"/>
      <point x="864" y="831" type="line"/>
      <point x="814" y="845"/>
      <point x="730" y="845" type="qcurve" smooth="yes"/>
      <point x="593" y="845"/>
    </contour>
  </outline>
</glyph>
<glyph name="u0073" format="2">
  <advance width="1056"/>
  <unicode hex="0073"/>
  <outline>
    <contour>
      <point x="62" y="46" type="qcurve"/>
      <point x="62" y="384" type="line"/>
      <point x="284" y="285"/>
      <point x="486" y="285" type="qcurve" smooth="yes"/>
      <point x="623" y="285"/>
      <point x="623" y="347" type="qcurve" smooth="yes"/>
      <point x="623" y="421"/>
      <point x="363" y="503" type="qcurve" smooth="yes"/>
      <point x="60" y="599"/>
      <point x="60" y="883" type="qcurve" smooth="yes"/>
      <point x="60" y="1243"/>
      <point x="563" y="1243" type="qcurve" smooth="yes"/>
      <point x="762" y="1243"/>
      <point x="1012" y="1139" type="qcurve"/>
      <point x="896" y="868" type="line"/>
      <point x="684" y="958"/>
      <point x="566" y="958" type="qcurve" smooth="yes"/>
      <point x="462" y="958"/>
      <point x="462" y="908" type="qcurve" smooth="yes"/>
      <point x="462" y="841"/>
      <point x="707" y="764" type="qcurve" smooth="yes"/>
      <point x="1020" y="665"/>
      <point x="1020" y="375" type="qcurve" smooth="yes"/>
      <point x="1020" y="-22"/>
      <point x="504" y="-22" type="qcurve" smooth="yes"/>
      <point x="223" y="-22"/>
    </contour>
  </outline>
</glyph>
<glyph name="u0074" format="2">
  <advance width="796"/>
  <unicode hex="0074"/>
  <outline>
    <contour>
      <point x="146" y="402" type="qcurve" smooth="yes"/>
      <point x="146" y="905" type="line"/>
      <point x="14" y="905" type="line"/>
      <point x="14" y="1077" type="line"/>
      <point x="181" y="1209" type="line"/>
      <point x="277" y="1466" type="line"/>
      <point x="523" y="1466" type="line"/>
      <point x="523" y="1221" type="line"/>
      <point x="790" y="1221" type="line"/>
      <point x="790" y="905" type="line"/>
      <point x="523" y="905" type="line"/>
      <point x="523" y="430" type="line" smooth="yes"/>
      <point x="523" y="312"/>
      <point x="625" y="312" type="qcurve" smooth="yes"/>
      <point x="679" y="312"/>
      <point x="805" y="354" type="qcurve"/>
      <point x="805" y="46" type="line"/>
      <point x="607" y="-22"/>
      <point x="501" y="-22" type="qcurve" smooth="yes"/>
      <point x="146" y="-22"/>
    </contour>
  </outline>
</glyph>
<glyph name="u0075" format="2">
  <advance width="1363"/>
  <unicode hex="0075"/>
  <outline>
    <contour>
      <point x="91" y="427" type="qcurve" smooth="yes"/>
      <point x="91" y="1221" type="line"/>
      <point x="515" y="1221" type="line"/>
      <point x="515" y="555" type="line" smooth="yes"/>
      <point x="515" y="309"/>
      <point x="660" y="309" type="qcurve" smooth="yes"/>
      <point x="754" y="309"/>
      <point x="862" y="495" type="qcurve"/>
      <point x="862" y="1221" type="line"/>
      <point x="1283" y="1221" type="line"/>
      <point x="1283" y="0" type="line"/>
      <point x="965" y="0" type="line"/>
      <point x="862" y="194" type="line"/>
      <point x="862" y="207" type="line"/>
      <point x="682" y="-22"/>
      <point x="502" y="-22" type="qcurve" smooth="yes"/>
      <point x="91" y="-22"/>
    </contour>
  </outline>
</glyph>
<glyph name="u0076" format="2">
  <advance width="1121"/>
  <unicode hex="0076"/>
  <outline>
    <contour>
      <point x="733" y="0" type="line"/>
      <point x="387" y="0" type="line"/>
      <point x="0" y="1221" type="line"/>
      <point x="365" y="1221" type="line"/>
      <point x="537" y="499" type="line" smooth="yes"/>
      <point x="539" y="490"/>
      <point x="553" y="375" type="qcurve"/>
      <point x="559" y="375" type="line"/>
      <point x="572" y="479"/>
      <point x="576" y="497" type="qcurve" smooth="yes"/>
      <point x="756" y="1221" type="line"/>
      <point x="1120" y="1221" type="line"/>
    </contour>
  </outline>
</glyph>
<glyph name="u0077" format="2">
  <advance width="1734"/>
  <unicode hex="0077"/>
  <outline>
    <contour>
      <point x="698" y="0" type="line"/>
      <point x="308" y="0" type="line"/>
      <point x="15" y="1221" type="line"/>
      <point x="379" y="1221" type="line"/>
      <point x="467" y="752" type="line" smooth="yes"/>
      <point x="476" y="702"/>
      <point x="515" y="351" type="qcurve"/>
      <point x="522" y="351" type="line"/>
      <point x="570" y="714"/>
      <point x="573" y="729" type="qcurve" smooth="yes"/>
      <point x="673" y="1221" type="line"/>
      <point x="1082" y="1221" type="line"/>
      <point x="1174" y="722" type="line" smooth="yes"/>
      <point x="1181" y="680"/>
      <point x="1228" y="351" type="qcurve"/>
      <point x="1233" y="351" type="line"/>
      <point x="1272" y="706"/>
      <point x="1282" y="752" type="qcurve" smooth="yes"/>
      <point x="1377" y="1221" type="line"/>
      <point x="1734" y="1221" type="line"/>
      <point x="1439" y="0" type="line"/>
      <point x="1042" y="0" type="line"/>
      <point x="931" y="535" type="line" smooth="yes"/>
      <point x="918" y="590"/>
      <point x="874" y="899" type="qcurve"/>
      <point x="869" y="899" type="line"/>
      <point x="818" y="583"/>
      <point x="807" y="518" type="qcurve" smooth="yes"/>
    </contour>
  </outline>
</glyph>
<glyph name="u0078" format="2">
  <advance width="1167"/>
  <unicode hex="0078"/>
  <outline>
    <contour>
      <point x="416" y="0" type="line"/>
      <point x="10" y="0" type="line"/>
      <point x="388" y="623" type="line"/>
      <point x="26" y="1221" type="line"/>
      <point x="434" y="1221" type="line"/>
      <point x="592" y="958" type="line"/>
      <point x="752" y="1221" type="line"/>
      <point x="1157" y="1221" type="line"/>
      <point x="795" y="623" type="line"/>
      <point x="1171" y="0" type="line"/>
      <point x="765" y="0" type="line"/>
      <point x="591" y="288" type="line"/>
    </contour>
  </outline>
</glyph>
<glyph name="u0079" format="2">
  <advance width="1125"/>
  <unicode hex="0079"/>
  <outline>
    <contour>
      <point x="92" y="-512" type="qcurve"/>
      <point x="92" y="-181" type="line"/>
      <point x="123" y="-194"/>
      <point x="202" y="-194" type="qcurve" smooth="yes"/>
      <point x="331" y="-194"/>
      <point x="381" y="-41" type="qcurve" smooth="yes"/>
      <point x="400" y="22" type="line"/>
      <point x="-2" y="1221" type="line"/>
      <point x="371" y="1221" type="line"/>
      <point x="564" y="554" type="line"/>
      <point x="769" y="1221" type="line"/>
      <point x="1130" y="1221" type="line"/>
      <point x="716" y="-78" type="line" smooth="yes"/>
      <point x="568" y="-530"/>
      <point x="237" y="-530" type="qcurve" smooth="yes"/>
      <point x="135" y="-530"/>
    </contour>
  </outline>
</glyph>
<glyph name="u007A" format="2">
  <advance width="1036"/>
  <unicode hex="007A"/>
  <outline>
    <contour>
      <point x="1031" y="0" type="line"/>
      <point x="20" y="0" type="line"/>
      <point x="20" y="240" type="line"/>
      <point x="526" y="899" type="line"/>
      <point x="49" y="899" type="line"/>
      <point x="49" y="1221" type="line"/>
      <point x="1006" y="1221" type="line"/>
      <point x="1006" y="960" type="line"/>
      <point x="523" y="322" type="line"/>
      <point x="1031" y="322" type="line"/>
    </contour>
  </outline>
</glyph>
<glyph name="u007B" format="2">
  <advance width="838"/>
  <unicode hex="007B"/>
  <outline>
    <contour>
      <point x="818" y="-371" type="line"/>
      <point x="290" y="-371"/>
      <point x="290" y="0" type="qcurve" smooth="yes"/>
      <point x="290" y="267" type="line" smooth="yes"/>
      <point x="290" y="451"/>
      <point x="37" y="451" type="qcurve"/>
      <point x="37" y="775" type="line"/>
      <point x="290" y="775"/>
      <point x="290" y="958" type="qcurve" smooth="yes"/>
      <point x="290" y="1232" type="line" smooth="yes"/>
      <point x="290" y="1599"/>
      <point x="818" y="1599" type="qcurve"/>
      <point x="818" y="1298" type="line"/>
      <point x="623" y="1298"/>
      <point x="623" y="1184" type="qcurve" smooth="yes"/>
      <point x="623" y="891" type="line" smooth="yes"/>
      <point x="623" y="636"/>
      <point x="377" y="620" type="qcurve"/>
      <point x="377" y="607" type="line"/>
      <point x="624" y="587"/>
      <point x="623" y="342" type="qcurve" smooth="yes"/>
      <point x="623" y="44" type="line" smooth="yes"/>
      <point x="623" y="-71"/>
      <point x="818" y="-71" type="qcurve"/>
    </contour>
  </outline>
</glyph>
<glyph name="u007C" format="2">
  <advance width="1215"/>
  <unicode hex="007C"/>
  <outline>
    <contour>
      <point x="770" y="-481" type="line"/>
      <point x="481" y="-481" type="line"/>
      <point x="481" y="1677" type="line"/>
      <point x="770" y="1677" type="line"/>
    </contour>
  </outline>
</glyph>
<glyph name="u007D" format="2">
  <advance width="838"/>
  <unicode hex="007D"/>
  <outline>
    <contour>
      <point x="565" y="0" type="line" smooth="yes"/>
      <point x="565" y="-371"/>
      <point x="37" y="-371" type="qcurve"/>
      <point x="37" y="-71" type="line"/>
      <point x="232" y="-71"/>
      <point x="232" y="44" type="qcurve" smooth="yes"/>
      <point x="232" y="342" type="line" smooth="yes"/>
      <point x="232" y="587"/>
      <point x="479" y="607" type="qcurve"/>
      <point x="479" y="620" type="line"/>
      <point x="233" y="636"/>
      <point x="232" y="891" type="qcurve" smooth="yes"/>
      <point x="232" y="1184" type="line" smooth="yes"/>
      <point x="232" y="1298"/>
      <point x="37" y="1298" type="qcurve"/>
      <point x="37" y="1599" type="line"/>
      <point x="565" y="1599"/>
      <point x="565" y="1232" type="qcurve" smooth="yes"/>
      <point x="565" y="958" type="line" smooth="yes"/>
      <point x="565" y="775"/>
      <point x="818" y="775" type="qcurve"/>
      <point x="818" y="451" type="line"/>
      <point x="565" y="451"/>
      <point x="565" y="267" type="qcurve" smooth="yes"/>
    </contour>
  </outline>
</glyph>
<glyph name="u007E" format="2">
  <advance width="1262"/>
  <unicode hex="007E"/>
  <outline>
    <contour>
      <point x="1192" y="687" type="line"/>
      <point x="1079" y="569"/>
      <point x="907" y="569" type="qcurve" smooth="yes"/>
      <point x="746" y="569"/>
      <point x="605" y="638" type="qcurve" smooth="yes"/>
      <point x="488" y="697"/>
      <point x="350" y="697" type="qcurve" smooth="yes"/>
      <point x="232" y="697"/>
      <point x="99" y="567" type="qcurve"/>
      <point x="99" y="870" type="line"/>
      <point x="220" y="986"/>
      <point x="384" y="986" type="qcurve" smooth="yes"/>
      <point x="545" y="986"/>
      <point x="686" y="918" type="qcurve" smooth="yes"/>
      <point x="803" y="859"/>
      <point x="942" y="859" type="qcurve" smooth="yes"/>
      <point x="1065" y="859"/>
      <point x="1192" y="990" type="qcurve"/>
    </contour>
  </outline>
</glyph>
<glyph name="guillemotleft" format="2">
  <advance width="1123"/>
  <unicode hex="00AB"/>
  <outline>
    <contour>
      <point x="1119" y="245" type="line"/>
      <point x="871" y="86" type="line"/>
      <point x="530" y="605" type="line"/>
      <point x="530" y="634" type="line"/>
      <point x="871" y="1154" type="line"/>
      <point x="1119" y="994" type="line"/>
      <point x="878" y="620" type="line"/>
    </contour>
    <contour>
      <point x="614" y="245" type="line"/>
      <point x="366" y="86" type="line"/>
      <point x="24" y="605" type="line"/>
      <point x="24" y="634" type="line"/>
      <point x="366" y="1154" type="line"/>
      <point x="614" y="994" type="line"/>
      <point x="373" y="620" type="line"/>
    </contour>
  </outline>
</glyph>
<glyph name="guillemotright" format="2">
  <advance width="1123"/>
  <unicode hex="00BB"/>
  <outline>
    <contour>
      <point x="1109" y="605" type="line"/>
      <point x="767" y="86" type="line"/>
      <point x="520" y="245" type="line"/>
      <point x="760" y="620" type="line"/>
      <point x="520" y="994" type="line"/>
      <point x="767" y="1154" type="line"/>
      <point x="1109" y="634" type="line"/>
    </contour>
    <contour>
      <point x="604" y="605" type="line"/>
      <point x="262" y="86" type="line"/>
      <point x="14" y="245" type="line"/>
      <point x="255" y="620" type="line"/>
      <point x="14" y="994" type="line"/>
      <point x="262" y="1154" type="line"/>
      <point x="604" y="634" type="line"/>
    </contour>
  </outline>
</glyph>
<glyph name="uni1780" format="2">
  <advance width="1450"/>
  <unicode hex="1780"/>
  <outline>
    <contour>
      <point x="200" y="750" type="line" smooth="yes"/>
      <point x="200" y="850"/>
      <point x="500" y="1050"/>
      <point x="700" y="1050" type="qcurve" smooth="yes"/>
      <point x="750" y="1050" type="line" smooth="yes"/>
      <point x="950" y="1050"/>
      <point x="1250" y="850"/>
      <point x="1250" y="750" type="qcurve" smooth="yes"/>
      <point x="1250" y="0" type="line"/>
      <point x="892" y="0" type="line"/>
      <point x="892" y="750" type="line" smooth="yes"/>
      <point x="892" y="808"/>
      <point x="806" y="856"/>
      <point x="750" y="856" type="qcurve" smooth="yes"/>
      <point x="700" y="856" type="line" smooth="yes"/>
      <point x="644" y="856"/>
      <point x="558" y="808"/>
      <point x="558" y="750" type="qcurve" smooth="yes"/>
      <point x="558" y="0" type="line"/>
      <point x="200" y="0" type="line"/>
    </contour>
    <contour>
      <point x="352" y="1010" type="line"/>
      <point x="150" y="1097"/>
      <point x="150" y="1173" type="qcurve" smooth="yes"/>
      <point x="150" y="1249" type="line" smooth="yes"/>
      <point x="150" y="1326"/>
      <point x="392" y="1500"/>
      <point x="463" y="1500" type="qcurve" smooth="yes"/>
      <point x="533" y="1500"/>
      <point x="727" y="1347"/>
      <point x="750" y="1347" type="qcurve" smooth="yes"/>
      <point x="773" y="1347"/>
      <point x="952" y="1500"/>
      <point x="1013" y="1500" type="qcurve" smooth="yes"/>
      <point x="1073" y="1500"/>
      <point x="1258" y="1301"/>
      <point x="1285" y="1301" type="qcurve" smooth="yes"/>
      <point x="1311" y="1301"/>
      <point x="1330" y="1316" type="qcurve"/>
      <point x="1280" y="1127"/>
      <point x="1195" y="1127" type="qcurve" smooth="yes"/>
      <point x="1099" y="1127"/>
      <point x="945" y="1255"/>
      <point x="920" y="1255" type="qcurve" smooth="yes"/>
      <point x="897" y="1255"/>
      <point x="750" y="1127"/>
      <point x="710" y="1127" type="qcurve" smooth="yes"/>
      <point x="637" y="1127"/>
      <point x="466" y="1255"/>
      <point x="437" y="1255" type="qcurve" smooth="yes"/>
      <point x="404" y="1255"/>
      <point x="370" y="1228"/>
      <point x="370" y="1194" type="qcurve" smooth="yes"/>
      <point x="370" y="1173"/>
      <point x="512" y="1094" type="qcurve"/>
    </contour>
  </outline>
</glyph>
<glyph name="uni1781" format="2">
  <advance width="1450"/>
  <unicode hex="1781"/>
  <outline>
    <contour>
      <point x="1250" y="700" type="line"/>
      <point x="1250" y="300" type="line" smooth="yes"/>
      <point x="1250" y="200"/>
      <point x="950" y="0"/>
      <point x="750" y="0" type="qcurve" smooth="yes"/>
      <point x="700" y="0" type="line" smooth="yes"/>
      <point x="500" y="0"/>
      <point x="200" y="200"/>
      <point x="200" y="300" type="qcurve" smooth="yes"/>
      <point x="200" y="550" type="line"/>
      <point x="719" y="830" type="line" smooth="yes"/>
      <point x="892" y="923"/>
      <point x="892" y="1050" type="qcurve" smooth="yes"/>
      <point x="892" y="1200" type="line" smooth="yes"/>
      <point x="892" y="1258"/>
      <point x="806" y="1306"/>
      <point x="750" y="1306" type="qcurve" smooth="yes"/>
      <point x="700" y="1306" type="line" smooth="yes"/>
      <point x="644" y="1306"/>
      <point x="558" y="1258"/>
      <point x="558" y="1200" type="qcurve" smooth="yes"/>
      <point x="558" y="990" type="line" smooth="yes"/>
      <point x="558" y="970"/>
      <point x="582" y="970" type="qcurve" smooth="yes"/>
      <point x="606" y="970"/>
      <point x="606" y="1010" type="qcurve" smooth="yes"/>
      <point x="606" y="1045"/>
      <point x="564" y="1045" type="qcurve" smooth="yes"/>
      <point x="552" y="1045" type="line"/>
      <point x="552" y="1145" type="line"/>
      <point x="564" y="1145" type="line" smooth="yes"/>
      <point x="706" y="1145"/>
      <point x="706" y="1010" type="qcurve" smooth="yes"/>
      <point x="706" y="850"/>
      <point x="488" y="850" type="qcurve" smooth="yes"/>
      <point x="200" y="850"/>
      <point x="200" y="970" type="qcurve" smooth="yes"/>
      <point x="200" y="1200" type="line" smooth="yes"/>
      <point x="200" y="1300"/>
      <point x="500" y="1500"/>
      <point x="700" y="1500" type="qcurve" smooth="yes"/>
      <point x="750" y="1500" type="line" smooth="yes"/>
      <point x="950" y="1500"/>
      <point x="1250" y="1300"/>
      <point x="1250" y="1200" type="qcurve" smooth="yes"/>
      <point x="1250" y="1050" type="line" smooth="yes"/>
      <point x="1250" y="878"/>
      <point x="904" y="682" type="qcurve" smooth="yes"/>
      <point x="558" y="485" type="line"/>
      <point x="558" y="300" type="line" smooth="yes"/>
      <point x="558" y="242"/>
      <point x="644" y="194"/>
      <point x="700" y="194" type="qcurve" smooth="yes"/>
      <point x="750" y="194" type="line" smooth="yes"/>
      <point x="806" y="194"/>
      <point x="892" y="242"/>
      <point x="892" y="300" type="qcurve" smooth="yes"/>
      <point x="892" y="600" type="line"/>
    </contour>
  </outline>
</glyph>
<glyph name="uni1784" format="2">
  <advance width="1450"/>
  <unicode hex="1784"/>
  <outline>
    <contour>
      <point x="200" y="707" type="line"/>
      <point x="185" y="707"/>
      <point x="171" y="686"/>
      <point x="171" y="665" type="qcurve" smooth="yes"/>
      <point x="171" y="640"/>
      <point x="200" y="640" type="qcurve" smooth="yes"/>
      <point x="210" y="640" type="line"/>
      <point x="210" y="510" type="line"/>
      <point x="200" y="510" type="line" smooth="yes"/>
      <point x="80" y="510"/>
      <point x="80" y="665" type="qcurve" smooth="yes"/>
      <point x="80" y="742"/>
      <point x="200" y="880"/>
      <point x="344" y="880" type="qcurve" smooth="yes"/>
      <point x="558" y="880"/>
      <point x="558" y="750" type="qcurve" smooth="yes"/>
      <point x="558" y="272" type="line"/>
      <point x="725" y="438" type="line"/>
      <point x="892" y="272" type="line"/>
      <point x="892" y="850" type="line" smooth="yes"/>
      <point x="892" y="1114"/>
      <point x="671" y="1220"/>
      <point x="671" y="1305" type="qcurve" smooth="yes"/>
      <point x="671" y="1500"/>
      <point x="894" y="1500" type="qcurve" smooth="yes"/>
      <point x="1138" y="1500"/>
      <point x="1138" y="1305" type="qcurve" smooth="yes"/>
      <point x="1138" y="1202"/>
      <point x="744" y="978"/>
      <point x="539" y="978" type="qcurve" smooth="yes"/>
      <point x="200" y="978"/>
      <point x="200" y="1251" type="qcurve" smooth="yes"/>
      <point x="200" y="1326"/>
      <point x="250" y="1421"/>
      <point x="250" y="1501" type="qcurve" smooth="yes"/>
      <point x="250" y="1561"/>
      <point x="150" y="1561" type="qcurve"/>
      <point x="150" y="1701"/>
      <point x="365" y="1701" type="qcurve" smooth="yes"/>
      <point x="588" y="1701"/>
      <point x="588" y="1501" type="qcurve" smooth="yes"/>
      <point x="588" y="1426"/>
      <point x="558" y="1331"/>
      <point x="558" y="1251" type="qcurve" smooth="yes"/>
      <point x="558" y="1141"/>
      <point x="639" y="1141" type="qcurve" smooth="yes"/>
      <point x="697" y="1141"/>
      <point x="938" y="1268"/>
      <point x="938" y="1305" type="qcurve" smooth="yes"/>
      <point x="938" y="1350"/>
      <point x="894" y="1350" type="qcurve" smooth="yes"/>
      <point x="849" y="1350"/>
      <point x="849" y="1305" type="qcurve" smooth="yes"/>
      <point x="849" y="1255"/>
      <point x="1250" y="1072"/>
      <point x="1250" y="850" type="qcurve" smooth="yes"/>
      <point x="1250" y="0" type="line"/>
      <point x="892" y="0" type="line"/>
      <point x="725" y="163" type="line"/>
      <point x="558" y="0" type="line"/>
      <point x="200" y="0" type="line"/>
    </contour>
  </outline>
</glyph>
<glyph name="uni1785" format="2">
  <advance width="1450"/>
  <unicode hex="1785"/>
  <outline>
    <contour>
      <point x="1250" y="930" type="qcurve" smooth="yes"/>
      <point x="1250" y="300" type="line" smooth="yes"/>
      <point x="1250" y="200"/>
      <point x="950" y="0"/>
      <point x="750" y="0" type="qcurve" smooth="yes"/>
      <point x="700" y="0" type="line" smooth="yes"/>
      <point x="500" y="0"/>
      <point x="200" y="200"/>
      <point x="200" y="300" type="qcurve" smooth="yes"/>
      <point x="200" y="1036" type="line"/>
      <point x="120" y="1108"/>
      <point x="120" y="1153" type="qcurve" smooth="yes"/>
      <point x="120" y="1249" type="line" smooth="yes"/>
      <point x="120" y="1326"/>
      <point x="392" y="1500"/>
      <point x="463" y="1500" type="qcurve" smooth="yes"/>
      <point x="533" y="1500"/>
      <point x="727" y="1347"/>
      <point x="750" y="1347" type="qcurve" smooth="yes"/>
      <point x="773" y="1347"/>
      <point x="952" y="1500"/>
      <point x="1013" y="1500" type="qcurve" smooth="yes"/>
      <point x="1073" y="1500"/>
      <point x="1258" y="1301"/>
      <point x="1285" y="1301" type="qcurve" smooth="yes"/>
      <point x="1311" y="1301"/>
      <point x="1330" y="1316" type="qcurve"/>
      <point x="1280" y="1127"/>
      <point x="1195" y="1127" type="qcurve" smooth="yes"/>
      <point x="1099" y="1127"/>
      <point x="945" y="1255"/>
      <point x="920" y="1255" type="qcurve" smooth="yes"/>
      <point x="897" y="1255"/>
      <point x="750" y="1127"/>
      <point x="710" y="1127" type="qcurve" smooth="yes"/>
      <point x="637" y="1127"/>
      <point x="466" y="1255"/>
      <point x="437" y="1255" type="qcurve" smooth="yes"/>
      <point x="404" y="1255"/>
      <point x="350" y="1228"/>
      <point x="350" y="1194" type="qcurve" smooth="yes"/>
      <point x="350" y="1153"/>
      <point x="558" y="1030" type="qcurve"/>
      <point x="558" y="300" type="line" smooth="yes"/>
      <point x="558" y="242"/>
      <point x="644" y="194"/>
      <point x="700" y="194" type="qcurve" smooth="yes"/>
      <point x="750" y="194" type="line" smooth="yes"/>
      <point x="806" y="194"/>
      <point x="892" y="242"/>
      <point x="892" y="300" type="qcurve" smooth="yes"/>
      <point x="892" y="876" type="line"/>
      <point x="877" y="876"/>
      <point x="857" y="836"/>
      <point x="857" y="795" type="qcurve" smooth="yes"/>
      <point x="857" y="770"/>
      <point x="892" y="770" type="qcurve" smooth="yes"/>
      <point x="902" y="770" type="line"/>
      <point x="902" y="630" type="line"/>
      <point x="892" y="630" type="line" smooth="yes"/>
      <point x="742" y="630"/>
      <point x="742" y="795" type="qcurve" smooth="yes"/>
      <point x="742" y="862"/>
      <point x="862" y="1030"/>
      <point x="1046" y="1030" type="qcurve" smooth="yes"/>
      <point x="1250" y="1030"/>
    </contour>
  </outline>
</glyph>
<glyph name="uni1787" format="2">
  <advance width="1450"/>
  <unicode hex="1787"/>
  <outline>
    <contour>
      <point x="1250" y="1000" type="line"/>
      <point x="1250" y="-10" type="line"/>
      <point x="892" y="-10" type="line"/>
      <point x="725" y="163" type="line"/>
      <point x="558" y="-10" type="line"/>
      <point x="200" y="-10" type="line"/>
      <point x="200" y="995" type="line"/>
      <point x="100" y="1068"/>
      <point x="100" y="1147" type="qcurve" smooth="yes"/>
      <point x="100" y="1202" type="line" smooth="yes"/>
      <point x="100" y="1254"/>
      <point x="422" y="1500"/>
      <point x="454" y="1500" type="qcurve" smooth="yes"/>
      <point x="491" y="1500"/>
      <point x="770" y="1280"/>
      <point x="890" y="1280" type="qcurve" smooth="yes"/>
      <point x="1006" y="1280"/>
      <point x="1006" y="1380" type="qcurve" smooth="yes"/>
      <point x="1006" y="1462"/>
      <point x="920" y="1462" type="qcurve" smooth="yes"/>
      <point x="820" y="1462"/>
      <point x="820" y="1581" type="qcurve" smooth="yes"/>
      <point x="820" y="1700"/>
      <point x="960" y="1700" type="qcurve" smooth="yes"/>
      <point x="1250" y="1700"/>
      <point x="1250" y="1400" type="qcurve" smooth="yes"/>
      <point x="1250" y="1076"/>
      <point x="890" y="1076" type="qcurve" smooth="yes"/>
      <point x="678" y="1077"/>
      <point x="465" y="1208"/>
      <point x="427" y="1208" type="qcurve" smooth="yes"/>
      <point x="404" y="1208"/>
      <point x="360" y="1174"/>
      <point x="360" y="1148" type="qcurve" smooth="yes"/>
      <point x="360" y="1118"/>
      <point x="558" y="1030" type="qcurve"/>
      <point x="558" y="272" type="line"/>
      <point x="725" y="438" type="line"/>
      <point x="892" y="272" type="line"/>
      <point x="892" y="1000" type="line"/>
    </contour>
  </outline>
</glyph>
<glyph name="uni1789" format="2">
  <advance width="2162"/>
  <unicode hex="1789"/>
  <outline>
    <contour>
      <point x="892" y="0" type="line"/>
      <point x="892" y="1127" type="line" smooth="yes"/>
      <point x="892" y="1187"/>
      <point x="815" y="1235"/>
      <point x="790" y="1235" type="qcurve" smooth="yes"/>
      <point x="767" y="1235"/>
      <point x="670" y="1127"/>
      <point x="630" y="1127" type="qcurve" smooth="yes"/>
      <point x="577" y="1127"/>
      <point x="446" y="1235"/>
      <point x="417" y="1235" type="qcurve" smooth="yes"/>
      <point x="384" y="1235"/>
      <point x="350" y="1218"/>
      <point x="350" y="1194" type="qcurve" smooth="yes"/>
      <point x="350" y="1153"/>
      <point x="558" y="1030" type="qcurve"/>
      <point x="558" y="254" type="line"/>
      <point x="618" y="314"/>
      <point x="618" y="370" type="qcurve" smooth="yes"/>
      <point x="618" y="411"/>
      <point x="565" y="411" type="qcurve" smooth="yes"/>
      <point x="550" y="411" type="line"/>
      <point x="550" y="620" type="line"/>
      <point x="565" y="620" type="line" smooth="yes"/>
      <point x="793" y="620"/>
      <point x="793" y="400" type="qcurve" smooth="yes"/>
      <point x="793" y="252"/>
      <point x="676" y="126" type="qcurve" smooth="yes"/>
      <point x="558" y="0" type="line"/>
      <point x="200" y="0" type="line"/>
      <point x="200" y="1036" type="line"/>
      <point x="120" y="1108"/>
      <point x="120" y="1153" type="qcurve" smooth="yes"/>
      <point x="120" y="1249" type="line" smooth="yes"/>
      <point x="120" y="1326"/>
      <point x="342" y="1500"/>
      <point x="413" y="1500" type="qcurve" smooth="yes"/>
      <point x="483" y="1500"/>
      <point x="647" y="1347"/>
      <point x="670" y="1347" type="qcurve" smooth="yes"/>
      <point x="693" y="1347"/>
      <point x="822" y="1500"/>
      <point x="883" y="1500" type="qcurve" smooth="yes"/>
      <point x="963" y="1500"/>
      <point x="1250" y="1301"/>
      <point x="1250" y="1127" type="qcurve" smooth="yes"/>
      <point x="1250" y="0" type="line"/>
    </contour>
    <contour>
      <point x="1584" y="1150" type="line" smooth="yes"/>
      <point x="1584" y="1208"/>
      <point x="1488" y="1276"/>
      <point x="1432" y="1276" type="qcurve" smooth="yes"/>
      <point x="1366" y="1276"/>
      <point x="1210" y="1148"/>
      <point x="1180" y="1070" type="qcurve"/>
      <point x="1104" y="1313" type="line"/>
      <point x="1292" y="1500"/>
      <point x="1462" y="1500" type="qcurve" smooth="yes"/>
      <point x="1662" y="1500"/>
      <point x="1942" y="1270"/>
      <point x="1942" y="1150" type="qcurve" smooth="yes"/>
      <point x="1942" y="0" type="line"/>
      <point x="1584" y="0" type="line"/>
    </contour>
    <contour>
      <point x="1942" y="-300" type="qcurve" smooth="yes"/>
      <point x="1942" y="-600"/>
      <point x="1475" y="-600" type="qcurve" smooth="yes"/>
      <point x="1169" y="-600"/>
      <point x="690" y="-340"/>
      <point x="493" y="-340" type="qcurve" smooth="yes"/>
      <point x="282" y="-340"/>
      <point x="200" y="-430" type="qcurve"/>
      <point x="200" y="-100"/>
      <point x="663" y="-100" type="qcurve" smooth="yes"/>
      <point x="917" y="-100"/>
      <point x="1421" y="-376"/>
      <point x="1525" y="-376" type="qcurve" smooth="yes"/>
      <point x="1604" y="-376"/>
      <point x="1604" y="-300" type="qcurve" smooth="yes"/>
      <point x="1604" y="-285"/>
      <point x="1602" y="-273" type="qcurve"/>
      <point x="1587" y="-281"/>
      <point x="1571" y="-281" type="qcurve" smooth="yes"/>
      <point x="1495" y="-281"/>
      <point x="1495" y="-200" type="qcurve" smooth="yes"/>
      <point x="1495" y="-100"/>
      <point x="1679" y="-100" type="qcurve" smooth="yes"/>
      <point x="1942" y="-100"/>
    </contour>
  </outline>
</glyph>
<glyph name="uni178A" format="2">
  <advance width="1450"/>
  <unicode hex="178A"/>
  <outline>
    <contour>
      <point x="200" y="1304" type="qcurve" smooth="yes"/>
      <point x="200" y="1500"/>
      <point x="430" y="1500" type="qcurve" smooth="yes"/>
      <point x="660" y="1500"/>
      <point x="660" y="1304" type="qcurve" smooth="yes"/>
      <point x="660" y="1195"/>
      <point x="458" y="1117" type="qcurve"/>
      <point x="390" y="1194" type="line"/>
      <point x="470" y="1260"/>
      <point x="470" y="1304" type="qcurve" smooth="yes"/>
      <point x="470" y="1336"/>
      <point x="430" y="1336" type="qcurve" smooth="yes"/>
      <point x="400" y="1336"/>
      <point x="400" y="1304" type="qcurve" smooth="yes"/>
      <point x="400" y="1214"/>
      <point x="735" y="1214" type="qcurve" smooth="yes"/>
      <point x="932" y="1214"/>
      <point x="932" y="1376" type="qcurve" smooth="yes"/>
      <point x="932" y="1492"/>
      <point x="840" y="1492" type="qcurve" smooth="yes"/>
      <point x="740" y="1492"/>
      <point x="740" y="1596" type="qcurve" smooth="yes"/>
      <point x="740" y="1700"/>
      <point x="890" y="1700" type="qcurve" smooth="yes"/>
      <point x="1250" y="1700"/>
      <point x="1250" y="1376" type="qcurve" smooth="yes"/>
      <point x="1250" y="1040"/>
      <point x="735" y="1040" type="qcurve" smooth="yes"/>
      <point x="200" y="1040"/>
    </contour>
    <contour>
      <point x="1250" y="1000" type="line"/>
      <point x="1250" y="0" type="line"/>
      <point x="892" y="0" type="line"/>
      <point x="725" y="163" type="line"/>
      <point x="558" y="0" type="line"/>
      <point x="200" y="-10" type="line"/>
      <point x="200" y="1020" type="line"/>
      <point x="558" y="950" type="line"/>
      <point x="558" y="272" type="line"/>
      <point x="725" y="438" type="line"/>
      <point x="892" y="272" type="line"/>
      <point x="892" y="1000" type="line"/>
    </contour>
  </outline>
</glyph>
<glyph name="uni178B" format="2">
  <advance width="1450"/>
  <unicode hex="178B"/>
  <outline>
    <contour>
      <point x="558" y="1399" type="qcurve" smooth="yes"/>
      <point x="558" y="300" type="line" smooth="yes"/>
      <point x="558" y="242"/>
      <point x="644" y="194"/>
      <point x="700" y="194" type="qcurve" smooth="yes"/>
      <point x="750" y="194" type="line" smooth="yes"/>
      <point x="806" y="194"/>
      <point x="892" y="242"/>
      <point x="892" y="300" type="qcurve" smooth="yes"/>
      <point x="892" y="943" type="line"/>
      <point x="822" y="996" type="line" smooth="yes"/>
      <point x="752" y="1049"/>
      <point x="752" y="1111" type="qcurve" smooth="yes"/>
      <point x="752" y="1162"/>
      <point x="803" y="1247" type="qcurve" smooth="yes"/>
      <point x="956" y="1500" type="line"/>
      <point x="1128" y="1388"/>
      <point x="1155" y="1388" type="qcurve" smooth="yes"/>
      <point x="1182" y="1388"/>
      <point x="1182" y="1440" type="qcurve" smooth="yes"/>
      <point x="1182" y="1492"/>
      <point x="995" y="1542"/>
      <point x="995" y="1641" type="qcurve" smooth="yes"/>
      <point x="995" y="1750"/>
      <point x="1118" y="1750" type="qcurve" smooth="yes"/>
      <point x="1370" y="1750"/>
      <point x="1370" y="1440" type="qcurve" smooth="yes"/>
      <point x="1370" y="1136"/>
      <point x="1215" y="1136" type="qcurve" smooth="yes"/>
      <point x="1130" y="1136"/>
      <point x="1026" y="1208" type="qcurve"/>
      <point x="993" y="1149" type="line"/>
      <point x="1250" y="1000" type="line"/>
      <point x="1250" y="300" type="line" smooth="yes"/>
      <point x="1250" y="200"/>
      <point x="950" y="0"/>
      <point x="750" y="0" type="qcurve" smooth="yes"/>
      <point x="700" y="0" type="line" smooth="yes"/>
      <point x="500" y="0"/>
      <point x="200" y="200"/>
      <point x="200" y="300" type="qcurve" smooth="yes"/>
      <point x="200" y="1266" type="line"/>
      <point x="150" y="1216"/>
      <point x="150" y="1185" type="qcurve" smooth="yes"/>
      <point x="150" y="1139"/>
      <point x="193" y="1139" type="qcurve" smooth="yes"/>
      <point x="208" y="1139" type="line"/>
      <point x="208" y="980" type="line"/>
      <point x="193" y="980" type="line" smooth="yes"/>
      <point x="5" y="980"/>
      <point x="5" y="1155" type="qcurve" smooth="yes"/>
      <point x="5" y="1248"/>
      <point x="102" y="1374" type="qcurve" smooth="yes"/>
      <point x="200" y="1500"/>
      <point x="379" y="1500" type="qcurve" smooth="yes"/>
      <point x="558" y="1500"/>
    </contour>
  </outline>
</glyph>
<glyph name="uni178D" format="2">
  <advance width="2162"/>
  <unicode hex="178D"/>
  <outline>
    <contour>
      <point x="651" y="126" type="qcurve" smooth="yes"/>
      <point x="558" y="0" type="line"/>
      <point x="200" y="0" type="line"/>
      <point x="200" y="1036" type="line"/>
      <point x="120" y="1108"/>
      <point x="120" y="1153" type="qcurve" smooth="yes"/>
      <point x="120" y="1249" type="line" smooth="yes"/>
      <point x="120" y="1326"/>
      <point x="342" y="1500"/>
      <point x="413" y="1500" type="qcurve" smooth="yes"/>
      <point x="483" y="1500"/>
      <point x="647" y="1347"/>
      <point x="670" y="1347" type="qcurve" smooth="yes"/>
      <point x="693" y="1347"/>
      <point x="822" y="1500"/>
      <point x="883" y="1500" type="qcurve" smooth="yes"/>
      <point x="963" y="1500"/>
      <point x="1250" y="1301"/>
      <point x="1250" y="1127" type="qcurve" smooth="yes"/>
      <point x="1250" y="0" type="line"/>
      <point x="912" y="0" type="line"/>
      <point x="762" y="90"/>
      <point x="762" y="306" type="qcurve" smooth="yes"/>
      <point x="762" y="550"/>
      <point x="1087" y="550" type="qcurve" smooth="yes"/>
      <point x="1482" y="550"/>
      <point x="1482" y="237" type="qcurve" smooth="yes"/>
      <point x="1482" y="180"/>
      <point x="1533" y="180" type="qcurve" smooth="yes"/>
      <point x="1581" y="180"/>
      <point x="1581" y="237" type="qcurve" smooth="yes"/>
      <point x="1581" y="943" type="line"/>
      <point x="1511" y="996" type="line" smooth="yes"/>
      <point x="1441" y="1049"/>
      <point x="1441" y="1111" type="qcurve" smooth="yes"/>
      <point x="1441" y="1162"/>
      <point x="1507" y="1247" type="qcurve" smooth="yes"/>
      <point x="1705" y="1500" type="line"/>
      <point x="1867" y="1406" type="line" smooth="yes"/>
      <point x="1921" y="1375"/>
      <point x="1950" y="1375" type="qcurve" smooth="yes"/>
      <point x="1988" y="1375"/>
      <point x="2044" y="1385" type="qcurve"/>
      <point x="2044" y="1290"/>
      <point x="1956" y="1132"/>
      <point x="1896" y="1132" type="qcurve" smooth="yes"/>
      <point x="1855" y="1132"/>
      <point x="1793" y="1169" type="qcurve" smooth="yes"/>
      <point x="1725" y="1208" type="line"/>
      <point x="1682" y="1149" type="line"/>
      <point x="1939" y="1000" type="line"/>
      <point x="1939" y="237" type="line" smooth="yes"/>
      <point x="1939" y="0"/>
      <point x="1639" y="0" type="qcurve" smooth="yes"/>
      <point x="1312" y="0"/>
      <point x="1312" y="237" type="qcurve" smooth="yes"/>
      <point x="1312" y="400"/>
      <point x="1087" y="400" type="qcurve" smooth="yes"/>
      <point x="862" y="400"/>
      <point x="862" y="326" type="qcurve" smooth="yes"/>
      <point x="862" y="240"/>
      <point x="892" y="190" type="qcurve"/>
      <point x="892" y="1127" type="line" smooth="yes"/>
      <point x="892" y="1187"/>
      <point x="815" y="1235"/>
      <point x="790" y="1235" type="qcurve" smooth="yes"/>
      <point x="767" y="1235"/>
      <point x="670" y="1127"/>
      <point x="630" y="1127" type="qcurve" smooth="yes"/>
      <point x="577" y="1127"/>
      <point x="446" y="1235"/>
      <point x="417" y="1235" type="qcurve" smooth="yes"/>
      <point x="384" y="1235"/>
      <point x="350" y="1218"/>
      <point x="350" y="1194" type="qcurve" smooth="yes"/>
      <point x="350" y="1153"/>
      <point x="558" y="1030" type="qcurve"/>
      <point x="558" y="254" type="line"/>
      <point x="608" y="314"/>
      <point x="608" y="370" type="qcurve" smooth="yes"/>
      <point x="608" y="411"/>
      <point x="565" y="411" type="qcurve" smooth="yes"/>
      <point x="550" y="411" type="line"/>
      <point x="550" y="620" type="line"/>
      <point x="565" y="620" type="line" smooth="yes"/>
      <point x="743" y="620"/>
      <point x="743" y="400" type="qcurve" smooth="yes"/>
      <point x="743" y="252"/>
    </contour>
  </outline>
</glyph>
<glyph name="uni1791" format="2">
  <advance width="1450"/>
  <unicode hex="1791"/>
  <outline>
    <contour>
      <point x="272" y="450" type="line"/>
      <point x="570" y="450" type="line"/>
      <point x="570" y="300" type="line" smooth="yes"/>
      <point x="570" y="194"/>
      <point x="650" y="194" type="qcurve" smooth="yes"/>
      <point x="740" y="194"/>
      <point x="740" y="301" type="qcurve" smooth="yes"/>
      <point x="740" y="671" type="line" smooth="yes"/>
      <point x="740" y="851"/>
      <point x="1042" y="851" type="qcurve" smooth="yes"/>
      <point x="1250" y="851"/>
      <point x="1250" y="692" type="qcurve" smooth="yes"/>
      <point x="1250" y="491"/>
      <point x="1076" y="491" type="qcurve" smooth="yes"/>
      <point x="726" y="491" type="line" smooth="yes"/>
      <point x="200" y="491"/>
      <point x="200" y="895" type="qcurve" smooth="yes"/>
      <point x="200" y="1200" type="line" smooth="yes"/>
      <point x="200" y="1300"/>
      <point x="500" y="1500"/>
      <point x="700" y="1500" type="qcurve" smooth="yes"/>
      <point x="750" y="1500" type="line" smooth="yes"/>
      <point x="950" y="1500"/>
      <point x="1250" y="1300"/>
      <point x="1250" y="1200" type="qcurve" smooth="yes"/>
      <point x="1250" y="1040" type="line" smooth="yes"/>
      <point x="1250" y="920"/>
      <point x="962" y="920" type="qcurve" smooth="yes"/>
      <point x="744" y="920"/>
      <point x="744" y="1080" type="qcurve" smooth="yes"/>
      <point x="744" y="1215"/>
      <point x="886" y="1215" type="qcurve" smooth="yes"/>
      <point x="898" y="1215" type="line"/>
      <point x="898" y="1115" type="line"/>
      <point x="886" y="1115" type="line" smooth="yes"/>
      <point x="844" y="1115"/>
      <point x="844" y="1080" type="qcurve" smooth="yes"/>
      <point x="844" y="1040"/>
      <point x="868" y="1040" type="qcurve" smooth="yes"/>
      <point x="892" y="1040"/>
      <point x="892" y="1060" type="qcurve" smooth="yes"/>
      <point x="892" y="1200" type="line" smooth="yes"/>
      <point x="892" y="1258"/>
      <point x="806" y="1306"/>
      <point x="750" y="1306" type="qcurve" smooth="yes"/>
      <point x="700" y="1306" type="line" smooth="yes"/>
      <point x="644" y="1306"/>
      <point x="558" y="1258"/>
      <point x="558" y="1200" type="qcurve" smooth="yes"/>
      <point x="558" y="895" type="line" smooth="yes"/>
      <point x="558" y="671"/>
      <point x="726" y="671" type="qcurve" smooth="yes"/>
      <point x="1076" y="673" type="line" smooth="yes"/>
      <point x="1120" y="674"/>
      <point x="1120" y="691" type="qcurve" smooth="yes"/>
      <point x="1120" y="710"/>
      <point x="1092" y="710" type="qcurve" smooth="yes"/>
      <point x="1058" y="710"/>
      <point x="1058" y="671" type="qcurve" smooth="yes"/>
      <point x="1058" y="302" type="line" smooth="yes"/>
      <point x="1058" y="0"/>
      <point x="650" y="0" type="qcurve" smooth="yes"/>
      <point x="272" y="0"/>
      <point x="272" y="300" type="qcurve" smooth="yes"/>
    </contour>
  </outline>
</glyph>
<glyph name="uni1795" format="2">
  <advance width="1450"/>
  <unicode hex="1795"/>
  <outline>
    <contour>
      <point x="725" y="438" type="line"/>
      <point x="892" y="272" type="line"/>
      <point x="892" y="846" type="line"/>
      <point x="877" y="846"/>
      <point x="857" y="806"/>
      <point x="857" y="765" type="qcurve" smooth="yes"/>
      <point x="857" y="740"/>
      <point x="892" y="740" type="qcurve" smooth="yes"/>
      <point x="902" y="740" type="line"/>
      <point x="902" y="600" type="line"/>
      <point x="892" y="600" type="line" smooth="yes"/>
      <point x="742" y="600"/>
      <point x="742" y="765" type="qcurve" smooth="yes"/>
      <point x="742" y="832"/>
      <point x="862" y="1000"/>
      <point x="1046" y="1000" type="qcurve" smooth="yes"/>
      <point x="1250" y="1000"/>
      <point x="1250" y="900" type="qcurve" smooth="yes"/>
      <point x="1250" y="0" type="line"/>
      <point x="892" y="0" type="line"/>
      <point x="725" y="163" type="line"/>
      <point x="558" y="0" type="line"/>
      <point x="200" y="-10" type="line"/>
      <point x="200" y="995" type="line"/>
      <point x="100" y="1068"/>
      <point x="100" y="1147" type="qcurve" smooth="yes"/>
      <point x="100" y="1202" type="line" smooth="yes"/>
      <point x="100" y="1254"/>
      <point x="422" y="1500"/>
      <point x="454" y="1500" type="qcurve" smooth="yes"/>
      <point x="491" y="1500"/>
      <point x="770" y="1280"/>
      <point x="890" y="1280" type="qcurve" smooth="yes"/>
      <point x="1006" y="1280"/>
      <point x="1006" y="1380" type="qcurve" smooth="yes"/>
      <point x="1006" y="1462"/>
      <point x="920" y="1462" type="qcurve" smooth="yes"/>
      <point x="820" y="1462"/>
      <point x="820" y="1581" type="qcurve" smooth="yes"/>
      <point x="820" y="1700"/>
      <point x="960" y="1700" type="qcurve" smooth="yes"/>
      <point x="1250" y="1700"/>
      <point x="1250" y="1400" type="qcurve" smooth="yes"/>
      <point x="1250" y="1076"/>
      <point x="890" y="1076" type="qcurve" smooth="yes"/>
      <point x="678" y="1077"/>
      <point x="465" y="1208"/>
      <point x="427" y="1208" type="qcurve" smooth="yes"/>
      <point x="404" y="1208"/>
      <point x="360" y="1174"/>
      <point x="360" y="1148" type="qcurve" smooth="yes"/>
      <point x="360" y="1118"/>
      <point x="558" y="1030" type="qcurve"/>
      <point x="558" y="272" type="line"/>
    </contour>
  </outline>
</glyph>
<glyph name="uni179B" format="2">
  <advance width="2162"/>
  <unicode hex="179B"/>
  <outline>
    <contour>
      <point x="1940" y="300" type="line" smooth="yes"/>
      <point x="1940" y="200"/>
      <point x="1640" y="0"/>
      <point x="1415" y="0" type="qcurve" smooth="yes"/>
      <point x="1190" y="0"/>
      <point x="890" y="200"/>
      <point x="890" y="300" type="qcurve" smooth="yes"/>
      <point x="890" y="1050" type="line" smooth="yes"/>
      <point x="890" y="1106"/>
      <point x="629" y="1242"/>
      <point x="574" y="1242" type="qcurve" smooth="yes"/>
      <point x="519" y="1242"/>
      <point x="468" y="1211" type="qcurve" smooth="yes"/>
      <point x="409" y="1173" type="line"/>
      <point x="447" y="1148" type="line"/>
      <point x="558" y="1090"/>
      <point x="558" y="1030" type="qcurve" smooth="yes"/>
      <point x="558" y="254" type="line"/>
      <point x="618" y="314"/>
      <point x="618" y="370" type="qcurve" smooth="yes"/>
      <point x="618" y="411"/>
      <point x="565" y="411" type="qcurve" smooth="yes"/>
      <point x="550" y="411" type="line"/>
      <point x="550" y="620" type="line"/>
      <point x="565" y="620" type="line" smooth="yes"/>
      <point x="793" y="620"/>
      <point x="793" y="400" type="qcurve" smooth="yes"/>
      <point x="793" y="252"/>
      <point x="676" y="126" type="qcurve" smooth="yes"/>
      <point x="558" y="0" type="line"/>
      <point x="200" y="0" type="line"/>
      <point x="200" y="1008" type="line"/>
      <point x="138" y="1046" type="line" smooth="yes"/>
      <point x="90" y="1075"/>
      <point x="90" y="1140" type="qcurve" smooth="yes"/>
      <point x="90" y="1205"/>
      <point x="190" y="1279" type="qcurve" smooth="yes"/>
      <point x="327" y="1381" type="line" smooth="yes"/>
      <point x="488" y="1500"/>
      <point x="640" y="1500" type="qcurve" smooth="yes"/>
      <point x="798" y="1500"/>
      <point x="1248" y="1225"/>
      <point x="1248" y="1050" type="qcurve" smooth="yes"/>
      <point x="1248" y="300" type="line" smooth="yes"/>
      <point x="1248" y="242"/>
      <point x="1334" y="194"/>
      <point x="1415" y="194" type="qcurve" smooth="yes"/>
      <point x="1496" y="194"/>
      <point x="1582" y="242"/>
      <point x="1582" y="300" type="qcurve" smooth="yes"/>
      <point x="1582" y="943" type="line"/>
      <point x="1512" y="996" type="line" smooth="yes"/>
      <point x="1442" y="1049"/>
      <point x="1442" y="1111" type="qcurve" smooth="yes"/>
      <point x="1442" y="1162"/>
      <point x="1508" y="1247" type="qcurve" smooth="yes"/>
      <point x="1706" y="1500" type="line"/>
      <point x="1868" y="1406" type="line" smooth="yes"/>
      <point x="1922" y="1375"/>
      <point x="1951" y="1375" type="qcurve" smooth="yes"/>
      <point x="1989" y="1375"/>
      <point x="2045" y="1385" type="qcurve"/>
      <point x="2045" y="1290"/>
      <point x="1957" y="1132"/>
      <point x="1897" y="1132" type="qcurve" smooth="yes"/>
      <point x="1856" y="1132"/>
      <point x="1794" y="1169" type="qcurve" smooth="yes"/>
      <point x="1726" y="1208" type="line"/>
      <point x="1683" y="1149" type="line"/>
      <point x="1940" y="1000" type="line"/>
    </contour>
  </outline>
</glyph>
<glyph name="uni179C" format="2">
  <advance width="713"/>
  <unicode hex="179C"/>
  <outline>
    <contour>
      <point x="208" y="361" type="line"/>
      <point x="193" y="361" type="line" smooth="yes"/>
      <point x="150" y="361"/>
      <point x="150" y="315" type="qcurve" smooth="yes"/>
      <point x="150" y="284"/>
      <point x="200" y="234" type="qcurve"/>
      <point x="200" y="943" type="line"/>
      <point x="130" y="996" type="line" smooth="yes"/>
      <point x="60" y="1049"/>
      <point x="60" y="1111" type="qcurve" smooth="yes"/>
      <point x="60" y="1162"/>
      <point x="111" y="1247" type="qcurve" smooth="yes"/>
      <point x="264" y="1500" type="line"/>
      <point x="436" y="1388"/>
      <point x="463" y="1388" type="qcurve" smooth="yes"/>
      <point x="490" y="1388"/>
      <point x="490" y="1440" type="qcurve" smooth="yes"/>
      <point x="490" y="1492"/>
      <point x="303" y="1542"/>
      <point x="303" y="1641" type="qcurve" smooth="yes"/>
      <point x="303" y="1750"/>
      <point x="426" y="1750" type="qcurve" smooth="yes"/>
      <point x="678" y="1750"/>
      <point x="678" y="1440" type="qcurve" smooth="yes"/>
      <point x="678" y="1136"/>
      <point x="523" y="1136" type="qcurve" smooth="yes"/>
      <point x="438" y="1136"/>
      <point x="334" y="1208" type="qcurve"/>
      <point x="301" y="1149" type="line"/>
      <point x="558" y="1000" type="line"/>
      <point x="558" y="0" type="line"/>
      <point x="200" y="0" type="line"/>
      <point x="102" y="126" type="line" smooth="yes"/>
      <point x="5" y="252"/>
      <point x="5" y="345" type="qcurve" smooth="yes"/>
      <point x="5" y="520"/>
      <point x="193" y="520" type="qcurve" smooth="yes"/>
      <point x="208" y="520" type="line"/>
    </contour>
  </outline>
</glyph>
<glyph name="uni179E" format="2">
  <advance width="1475"/>
  <unicode hex="179E"/>
  <outline>
    <contour>
      <point x="750" y="570" type="line"/>
      <point x="750" y="774" type="line"/>
      <point x="1350" y="774" type="line"/>
      <point x="1350" y="570" type="line"/>
    </contour>
    <contour>
      <point x="1250" y="300" type="line" smooth="yes"/>
      <point x="1250" y="200"/>
      <point x="950" y="0"/>
      <point x="750" y="0" type="qcurve" smooth="yes"/>
      <point x="700" y="0" type="line" smooth="yes"/>
      <point x="500" y="0"/>
      <point x="200" y="200"/>
      <point x="200" y="300" type="qcurve" smooth="yes"/>
      <point x="200" y="943" type="line"/>
      <point x="130" y="996" type="line" smooth="yes"/>
      <point x="60" y="1049"/>
      <point x="60" y="1111" type="qcurve" smooth="yes"/>
      <point x="60" y="1162"/>
      <point x="126" y="1247" type="qcurve" smooth="yes"/>
      <point x="324" y="1500" type="line"/>
      <point x="486" y="1406" type="line" smooth="yes"/>
      <point x="540" y="1375"/>
      <point x="569" y="1375" type="qcurve" smooth="yes"/>
      <point x="607" y="1375"/>
      <point x="663" y="1385" type="qcurve"/>
      <point x="663" y="1290"/>
      <point x="575" y="1132"/>
      <point x="515" y="1132" type="qcurve" smooth="yes"/>
      <point x="474" y="1132"/>
      <point x="412" y="1169" type="qcurve" smooth="yes"/>
      <point x="344" y="1208" type="line"/>
      <point x="301" y="1149" type="line"/>
      <point x="558" y="1000" type="line"/>
      <point x="558" y="300" type="line" smooth="yes"/>
      <point x="558" y="242"/>
      <point x="644" y="194"/>
      <point x="700" y="194" type="qcurve" smooth="yes"/>
      <point x="750" y="194" type="line" smooth="yes"/>
      <point x="806" y="194"/>
      <point x="892" y="242"/>
      <point x="892" y="300" type="qcurve" smooth="yes"/>
      <point x="892" y="943" type="line"/>
      <point x="822" y="996" type="line" smooth="yes"/>
      <point x="752" y="1049"/>
      <point x="752" y="1111" type="qcurve" smooth="yes"/>
      <point x="752" y="1162"/>
      <point x="818" y="1247" type="qcurve" smooth="yes"/>
      <point x="1016" y="1500" type="line"/>
      <point x="1178" y="1406" type="line" smooth="yes"/>
      <point x="1232" y="1375"/>
      <point x="1261" y="1375" type="qcurve" smooth="yes"/>
      <point x="1299" y="1375"/>
      <point x="1355" y="1385" type="qcurve"/>
      <point x="1355" y="1290"/>
      <point x="1267" y="1132"/>
      <point x="1207" y="1132" type="qcurve" smooth="yes"/>
      <point x="1166" y="1132"/>
      <point x="1104" y="1169" type="qcurve" smooth="yes"/>
      <point x="1036" y="1208" type="line"/>
      <point x="993" y="1149" type="line"/>
      <point x="1250" y="1000" type="line"/>
    </contour>
  </outline>
</glyph>
<glyph name="uni179F" format="2">
  <advance width="2162"/>
  <unicode hex="179F"/>
  <outline>
    <contour>
      <point x="1940" y="300" type="line" smooth="yes"/>
      <point x="1940" y="200"/>
      <point x="1640" y="0"/>
      <point x="1415" y="0" type="qcurve" smooth="yes"/>
      <point x="1190" y="0"/>
      <point x="890" y="200"/>
      <point x="890" y="300" type="qcurve" smooth="yes"/>
      <point x="892" y="750" type="line" smooth="yes"/>
      <point x="892" y="808"/>
      <point x="806" y="856"/>
      <point x="750" y="856" type="qcurve" smooth="yes"/>
      <point x="700" y="856" type="line" smooth="yes"/>
      <point x="644" y="856"/>
      <point x="558" y="808"/>
      <point x="558" y="750" type="qcurve" smooth="yes"/>
      <point x="558" y="234" type="line"/>
      <point x="608" y="284"/>
      <point x="608" y="315" type="qcurve" smooth="yes"/>
      <point x="608" y="361"/>
      <point x="565" y="361" type="qcurve" smooth="yes"/>
      <point x="550" y="361" type="line"/>
      <point x="550" y="520" type="line"/>
      <point x="565" y="520" type="line" smooth="yes"/>
      <point x="753" y="520"/>
      <point x="753" y="345" type="qcurve" smooth="yes"/>
      <point x="753" y="252"/>
      <point x="656" y="126" type="qcurve" smooth="yes"/>
      <point x="558" y="0" type="line"/>
      <point x="200" y="0" type="line"/>
      <point x="200" y="750" type="line" smooth="yes"/>
      <point x="200" y="850"/>
      <point x="500" y="1050"/>
      <point x="700" y="1050" type="qcurve" smooth="yes"/>
      <point x="750" y="1050" type="line" smooth="yes"/>
      <point x="950" y="1050"/>
      <point x="1250" y="850"/>
      <point x="1250" y="750" type="qcurve" smooth="yes"/>
      <point x="1248" y="300" type="line" smooth="yes"/>
      <point x="1248" y="242"/>
      <point x="1334" y="194"/>
      <point x="1415" y="194" type="qcurve" smooth="yes"/>
      <point x="1496" y="194"/>
      <point x="1582" y="242"/>
      <point x="1582" y="300" type="qcurve" smooth="yes"/>
      <point x="1582" y="943" type="line"/>
      <point x="1512" y="996" type="line" smooth="yes"/>
      <point x="1442" y="1049"/>
      <point x="1442" y="1111" type="qcurve" smooth="yes"/>
      <point x="1442" y="1162"/>
      <point x="1508" y="1247" type="qcurve" smooth="yes"/>
      <point x="1706" y="1500" type="line"/>
      <point x="1868" y="1406" type="line" smooth="yes"/>
      <point x="1922" y="1375"/>
      <point x="1951" y="1375" type="qcurve" smooth="yes"/>
      <point x="1989" y="1375"/>
      <point x="2045" y="1385" type="qcurve"/>
      <point x="2045" y="1290"/>
      <point x="1957" y="1132"/>
      <point x="1897" y="1132" type="qcurve" smooth="yes"/>
      <point x="1856" y="1132"/>
      <point x="1794" y="1169" type="qcurve" smooth="yes"/>
      <point x="1726" y="1208" type="line"/>
      <point x="1683" y="1149" type="line"/>
      <point x="1940" y="1000" type="line"/>
    </contour>
    <contour>
      <point x="382" y="943" type="line"/>
      <point x="312" y="996" type="line" smooth="yes"/>
      <point x="242" y="1049"/>
      <point x="242" y="1111" type="qcurve" smooth="yes"/>
      <point x="242" y="1162"/>
      <point x="308" y="1247" type="qcurve" smooth="yes"/>
      <point x="506" y="1500" type="line"/>
      <point x="668" y="1406" type="line" smooth="yes"/>
      <point x="722" y="1375"/>
      <point x="781" y="1375" type="qcurve" smooth="yes"/>
      <point x="839" y="1375"/>
      <point x="895" y="1385" type="qcurve"/>
      <point x="895" y="1290"/>
      <point x="797" y="1132"/>
      <point x="717" y="1132" type="qcurve" smooth="yes"/>
      <point x="656" y="1132"/>
      <point x="594" y="1169" type="qcurve" smooth="yes"/>
      <point x="526" y="1208" type="line"/>
      <point x="483" y="1149" type="line"/>
      <point x="740" y="1000" type="line"/>
    </contour>
  </outline>
</glyph>
<glyph name="uni17A0" format="2">
  <advance width="2137"/>
  <unicode hex="17A0"/>
  <outline>
    <contour>
      <point x="1940" y="0" type="line"/>
      <point x="1582" y="0" type="line"/>
      <point x="1582" y="1050" type="line" smooth="yes"/>
      <point x="1582" y="1106"/>
      <point x="1321" y="1242"/>
      <point x="1266" y="1242" type="qcurve" smooth="yes"/>
      <point x="1211" y="1242"/>
      <point x="1160" y="1211" type="qcurve" smooth="yes"/>
      <point x="1101" y="1173" type="line"/>
      <point x="1139" y="1148" type="line"/>
      <point x="1250" y="1090"/>
      <point x="1250" y="1030" type="qcurve" smooth="yes"/>
      <point x="1250" y="300" type="line" smooth="yes"/>
      <point x="1250" y="200"/>
      <point x="950" y="0"/>
      <point x="725" y="0" type="qcurve" smooth="yes"/>
      <point x="500" y="0"/>
      <point x="200" y="200"/>
      <point x="200" y="300" type="qcurve" smooth="yes"/>
      <point x="200" y="943" type="line"/>
      <point x="130" y="996" type="line" smooth="yes"/>
      <point x="60" y="1049"/>
      <point x="60" y="1111" type="qcurve" smooth="yes"/>
      <point x="60" y="1162"/>
      <point x="126" y="1247" type="qcurve" smooth="yes"/>
      <point x="324" y="1500" type="line"/>
      <point x="486" y="1406" type="line" smooth="yes"/>
      <point x="540" y="1375"/>
      <point x="569" y="1375" type="qcurve" smooth="yes"/>
      <point x="607" y="1375"/>
      <point x="663" y="1385" type="qcurve"/>
      <point x="663" y="1290"/>
      <point x="575" y="1132"/>
      <point x="515" y="1132" type="qcurve" smooth="yes"/>
      <point x="474" y="1132"/>
      <point x="412" y="1169" type="qcurve" smooth="yes"/>
      <point x="344" y="1208" type="line"/>
      <point x="301" y="1149" type="line"/>
      <point x="558" y="1000" type="line"/>
      <point x="558" y="300" type="line" smooth="yes"/>
      <point x="558" y="242"/>
      <point x="644" y="194"/>
      <point x="725" y="194" type="qcurve" smooth="yes"/>
      <point x="806" y="194"/>
      <point x="892" y="242"/>
      <point x="892" y="300" type="qcurve" smooth="yes"/>
      <point x="892" y="1008" type="line"/>
      <point x="830" y="1046" type="line" smooth="yes"/>
      <point x="782" y="1075"/>
      <point x="782" y="1140" type="qcurve" smooth="yes"/>
      <point x="782" y="1205"/>
      <point x="882" y="1279" type="qcurve" smooth="yes"/>
      <point x="1019" y="1381" type="line" smooth="yes"/>
      <point x="1180" y="1500"/>
      <point x="1332" y="1500" type="qcurve" smooth="yes"/>
      <point x="1490" y="1500"/>
      <point x="1940" y="1225"/>
      <point x="1940" y="1050" type="qcurve" smooth="yes"/>
    </contour>
  </outline>
</glyph>
<glyph name="uni17A1" format="2">
  <advance width="2162"/>
  <unicode hex="17A1"/>
  <outline>
    <contour>
      <point x="272" y="300" type="qcurve" smooth="yes"/>
      <point x="272" y="450" type="line"/>
      <point x="570" y="450" type="line"/>
      <point x="570" y="300" type="line" smooth="yes"/>
      <point x="570" y="194"/>
      <point x="650" y="194" type="qcurve" smooth="yes"/>
      <point x="740" y="194"/>
      <point x="740" y="301" type="qcurve" smooth="yes"/>
      <point x="740" y="671" type="line" smooth="yes"/>
      <point x="740" y="851"/>
      <point x="1042" y="851" type="qcurve" smooth="yes"/>
      <point x="1250" y="851"/>
      <point x="1250" y="692" type="qcurve" smooth="yes"/>
      <point x="1250" y="491"/>
      <point x="1076" y="491" type="qcurve" smooth="yes"/>
      <point x="726" y="491" type="line" smooth="yes"/>
      <point x="200" y="491"/>
      <point x="200" y="895" type="qcurve" smooth="yes"/>
      <point x="200" y="1200" type="line" smooth="yes"/>
      <point x="200" y="1300"/>
      <point x="500" y="1500"/>
      <point x="700" y="1500" type="qcurve" smooth="yes"/>
      <point x="750" y="1500" type="line" smooth="yes"/>
      <point x="950" y="1500"/>
      <point x="1250" y="1300"/>
      <point x="1250" y="1200" type="qcurve" smooth="yes"/>
      <point x="1250" y="1040" type="line" smooth="yes"/>
      <point x="1250" y="920"/>
      <point x="962" y="920" type="qcurve" smooth="yes"/>
      <point x="744" y="920"/>
      <point x="744" y="1080" type="qcurve" smooth="yes"/>
      <point x="744" y="1215"/>
      <point x="886" y="1215" type="qcurve" smooth="yes"/>
      <point x="898" y="1215" type="line"/>
      <point x="898" y="1115" type="line"/>
      <point x="886" y="1115" type="line" smooth="yes"/>
      <point x="844" y="1115"/>
      <point x="844" y="1080" type="qcurve" smooth="yes"/>
      <point x="844" y="1040"/>
      <point x="868" y="1040" type="qcurve" smooth="yes"/>
      <point x="892" y="1040"/>
      <point x="892" y="1060" type="qcurve" smooth="yes"/>
      <point x="892" y="1200" type="line" smooth="yes"/>
      <point x="892" y="1258"/>
      <point x="806" y="1306"/>
      <point x="750" y="1306" type="qcurve" smooth="yes"/>
      <point x="700" y="1306" type="line" smooth="yes"/>
      <point x="644" y="1306"/>
      <point x="558" y="1258"/>
      <point x="558" y="1200" type="qcurve" smooth="yes"/>
      <point x="558" y="895" type="line" smooth="yes"/>
      <point x="558" y="671"/>
      <point x="726" y="671" type="qcurve" smooth="yes"/>
      <point x="1076" y="673" type="line" smooth="yes"/>
      <point x="1120" y="674"/>
      <point x="1120" y="691" type="qcurve" smooth="yes"/>
      <point x="1120" y="710"/>
      <point x="1092" y="710" type="qcurve" smooth="yes"/>
      <point x="1058" y="710"/>
      <point x="1058" y="671" type="qcurve" smooth="yes"/>
      <point x="1058" y="302" type="line" smooth="yes"/>
      <point x="1058" y="0"/>
      <point x="650" y="0" type="qcurve" smooth="yes"/>
      <point x="272" y="0"/>
    </contour>
    <contour>
      <point x="1939" y="-600" type="line"/>
      <point x="1581" y="-600" type="line"/>
      <point x="1414" y="-437" type="line"/>
      <point x="1247" y="-600" type="line"/>
      <point x="889" y="-600" type="line"/>
      <point x="889" y="-233" type="line"/>
      <point x="875" y="-233"/>
      <point x="860" y="-254"/>
      <point x="860" y="-275" type="qcurve" smooth="yes"/>
      <point x="860" y="-300"/>
      <point x="889" y="-300" type="qcurve" smooth="yes"/>
      <point x="899" y="-300" type="line"/>
      <point x="899" y="-430" type="line"/>
      <point x="889" y="-430" type="line" smooth="yes"/>
      <point x="769" y="-430"/>
      <point x="769" y="-275" type="qcurve" smooth="yes"/>
      <point x="769" y="-198"/>
      <point x="889" y="-60"/>
      <point x="1033" y="-60" type="qcurve" smooth="yes"/>
      <point x="1247" y="-60"/>
      <point x="1247" y="-190" type="qcurve" smooth="yes"/>
      <point x="1247" y="-378" type="line"/>
      <point x="1414" y="-212" type="line"/>
      <point x="1581" y="-378" type="line"/>
      <point x="1581" y="943" type="line"/>
      <point x="1511" y="996" type="line" smooth="yes"/>
      <point x="1441" y="1049"/>
      <point x="1441" y="1111" type="qcurve" smooth="yes"/>
      <point x="1441" y="1162"/>
      <point x="1507" y="1247" type="qcurve" smooth="yes"/>
      <point x="1705" y="1500" type="line"/>
      <point x="1867" y="1406" type="line" smooth="yes"/>
      <point x="1921" y="1375"/>
      <point x="1950" y="1375" type="qcurve" smooth="yes"/>
      <point x="1988" y="1375"/>
      <point x="2044" y="1385" type="qcurve"/>
      <point x="2044" y="1290"/>
      <point x="1956" y="1132"/>
      <point x="1896" y="1132" type="qcurve" smooth="yes"/>
      <point x="1855" y="1132"/>
      <point x="1793" y="1169" type="qcurve" smooth="yes"/>
      <point x="1725" y="1208" type="line"/>
      <point x="1682" y="1149" type="line"/>
      <point x="1939" y="1000" type="line"/>
    </contour>
  </outline>
</glyph>
<glyph name="uni17A3" format="2">
  <advance width="1475"/>
  <unicode hex="17A3"/>
  <outline>
    <contour>
      <point x="208" y="361" type="line"/>
      <point x="193" y="361" type="line" smooth="yes"/>
      <point x="150" y="361"/>
      <point x="150" y="315" type="qcurve" smooth="yes"/>
      <point x="150" y="284"/>
      <point x="200" y="234" type="qcurve"/>
      <point x="200" y="943" type="line"/>
      <point x="130" y="996" type="line" smooth="yes"/>
      <point x="60" y="1049"/>
      <point x="60" y="1111" type="qcurve" smooth="yes"/>
      <point x="60" y="1162"/>
      <point x="126" y="1247" type="qcurve" smooth="yes"/>
      <point x="324" y="1500" type="line"/>
      <point x="486" y="1406" type="line" smooth="yes"/>
      <point x="540" y="1375"/>
      <point x="569" y="1375" type="qcurve" smooth="yes"/>
      <point x="607" y="1375"/>
      <point x="663" y="1385" type="qcurve"/>
      <point x="663" y="1290"/>
      <point x="575" y="1132"/>
      <point x="515" y="1132" type="qcurve" smooth="yes"/>
      <point x="474" y="1132"/>
      <point x="412" y="1169" type="qcurve" smooth="yes"/>
      <point x="344" y="1208" type="line"/>
      <point x="301" y="1149" type="line"/>
      <point x="558" y="1000" type="line"/>
      <point x="558" y="0" type="line"/>
      <point x="200" y="0" type="line"/>
      <point x="102" y="126" type="line" smooth="yes"/>
      <point x="5" y="252"/>
      <point x="5" y="345" type="qcurve" smooth="yes"/>
      <point x="5" y="520"/>
      <point x="193" y="520" type="qcurve" smooth="yes"/>
      <point x="208" y="520" type="line"/>
    </contour>
    <contour>
      <point x="892" y="943" type="line"/>
      <point x="822" y="996" type="line" smooth="yes"/>
      <point x="752" y="1049"/>
      <point x="752" y="1111" type="qcurve" smooth="yes"/>
      <point x="752" y="1162"/>
      <point x="818" y="1247" type="qcurve" smooth="yes"/>
      <point x="1016" y="1500" type="line"/>
      <point x="1178" y="1406" type="line" smooth="yes"/>
      <point x="1232" y="1375"/>
      <point x="1261" y="1375" type="qcurve" smooth="yes"/>
      <point x="1299" y="1375"/>
      <point x="1355" y="1385" type="qcurve"/>
      <point x="1355" y="1290"/>
      <point x="1267" y="1132"/>
      <point x="1207" y="1132" type="qcurve" smooth="yes"/>
      <point x="1166" y="1132"/>
      <point x="1104" y="1169" type="qcurve" smooth="yes"/>
      <point x="1036" y="1208" type="line"/>
      <point x="993" y="1149" type="line"/>
      <point x="1250" y="1000" type="line"/>
      <point x="1250" y="0" type="line"/>
      <point x="892" y="0" type="line"/>
      <point x="794" y="126" type="line" smooth="yes"/>
      <point x="697" y="252"/>
      <point x="697" y="345" type="qcurve" smooth="yes"/>
      <point x="697" y="520"/>
      <point x="885" y="520" type="qcurve" smooth="yes"/>
      <point x="900" y="520" type="line"/>
      <point x="900" y="361" type="line"/>
      <point x="885" y="361" type="line" smooth="yes"/>
      <point x="842" y="361"/>
      <point x="842" y="315" type="qcurve"/>
      <point x="845" y="281"/>
      <point x="892" y="234" type="qcurve"/>
    </contour>
    <contour>
      <point x="543" y="603" type="line"/>
      <point x="543" y="797" type="line"/>
      <point x="907" y="797" type="line"/>
      <point x="907" y="603" type="line"/>
    </contour>
  </outline>
</glyph>
<glyph name="uni17A4" format="2">
  <advance width="2187"/>
  <unicode hex="17A4"/>
  <outline>
    <contour>
      <point x="208" y="361" type="line"/>
      <point x="193" y="361" type="line" smooth="yes"/>
      <point x="150" y="361"/>
      <point x="150" y="315" type="qcurve" smooth="yes"/>
      <point x="150" y="284"/>
      <point x="200" y="234" type="qcurve"/>
      <point x="200" y="943" type="line"/>
      <point x="130" y="996" type="line" smooth="yes"/>
      <point x="60" y="1049"/>
      <point x="60" y="1111" type="qcurve" smooth="yes"/>
      <point x="60" y="1162"/>
      <point x="126" y="1247" type="qcurve" smooth="yes"/>
      <point x="324" y="1500" type="line"/>
      <point x="486" y="1406" type="line" smooth="yes"/>
      <point x="540" y="1375"/>
      <point x="569" y="1375" type="qcurve" smooth="yes"/>
      <point x="607" y="1375"/>
      <point x="663" y="1385" type="qcurve"/>
      <point x="663" y="1290"/>
      <point x="575" y="1132"/>
      <point x="515" y="1132" type="qcurve" smooth="yes"/>
      <point x="474" y="1132"/>
      <point x="412" y="1169" type="qcurve" smooth="yes"/>
      <point x="344" y="1208" type="line"/>
      <point x="301" y="1149" type="line"/>
      <point x="558" y="1000" type="line"/>
      <point x="558" y="0" type="line"/>
      <point x="200" y="0" type="line"/>
      <point x="102" y="126" type="line" smooth="yes"/>
      <point x="5" y="252"/>
      <point x="5" y="345" type="qcurve" smooth="yes"/>
      <point x="5" y="520"/>
      <point x="193" y="520" type="qcurve" smooth="yes"/>
      <point x="208" y="520" type="line"/>
    </contour>
    <contour>
      <point x="543" y="603" type="line"/>
      <point x="543" y="797" type="line"/>
      <point x="907" y="797" type="line"/>
      <point x="907" y="603" type="line"/>
    </contour>
    <contour>
      <point x="1940" y="0" type="line"/>
      <point x="1582" y="0" type="line"/>
      <point x="1582" y="1050" type="line" smooth="yes"/>
      <point x="1582" y="1106"/>
      <point x="1321" y="1242"/>
      <point x="1266" y="1242" type="qcurve" smooth="yes"/>
      <point x="1211" y="1242"/>
      <point x="1160" y="1211" type="qcurve" smooth="yes"/>
      <point x="1101" y="1173" type="line"/>
      <point x="1250" y="1090" type="line"/>
      <point x="1250" y="0" type="line"/>
      <point x="892" y="0" type="line"/>
      <point x="794" y="126" type="line" smooth="yes"/>
      <point x="697" y="252"/>
      <point x="697" y="345" type="qcurve" smooth="yes"/>
      <point x="697" y="520"/>
      <point x="885" y="520" type="qcurve" smooth="yes"/>
      <point x="900" y="520" type="line"/>
      <point x="900" y="361" type="line"/>
      <point x="885" y="361" type="line" smooth="yes"/>
      <point x="842" y="361"/>
      <point x="842" y="315" type="qcurve"/>
      <point x="845" y="281"/>
      <point x="892" y="234" type="qcurve"/>
      <point x="892" y="1008" type="line"/>
      <point x="830" y="1046" type="line" smooth="yes"/>
      <point x="782" y="1075"/>
      <point x="782" y="1140" type="qcurve" smooth="yes"/>
      <point x="782" y="1205"/>
      <point x="882" y="1279" type="qcurve" smooth="yes"/>
      <point x="1019" y="1381" type="line" smooth="yes"/>
      <point x="1180" y="1500"/>
      <point x="1332" y="1500" type="qcurve" smooth="yes"/>
      <point x="1490" y="1500"/>
      <point x="1940" y="1225"/>
      <point x="1940" y="1050" type="qcurve" smooth="yes"/>
    </contour>
  </outline>
</glyph>
<glyph name="uni17A5" format="2">
  <advance width="1450"/>
  <unicode hex="17A5"/>
  <outline>
    <contour>
      <point x="1250" y="0" type="line"/>
      <point x="892" y="0" type="line"/>
      <point x="892" y="750" type="line" smooth="yes"/>
      <point x="892" y="808"/>
      <point x="806" y="856"/>
      <point x="750" y="856" type="qcurve" smooth="yes"/>
      <point x="700" y="856" type="line" smooth="yes"/>
      <point x="644" y="856"/>
      <point x="558" y="808"/>
      <point x="558" y="750" type="qcurve" smooth="yes"/>
      <point x="558" y="234" type="line"/>
      <point x="608" y="284"/>
      <point x="608" y="315" type="qcurve" smooth="yes"/>
      <point x="608" y="361"/>
      <point x="565" y="361" type="qcurve" smooth="yes"/>
      <point x="550" y="361" type="line"/>
      <point x="550" y="520" type="line"/>
      <point x="565" y="520" type="line" smooth="yes"/>
      <point x="753" y="520"/>
      <point x="753" y="345" type="qcurve" smooth="yes"/>
      <point x="753" y="252"/>
      <point x="656" y="126" type="qcurve" smooth="yes"/>
      <point x="558" y="0" type="line"/>
      <point x="200" y="0" type="line"/>
      <point x="200" y="750" type="line" smooth="yes"/>
      <point x="200" y="850"/>
      <point x="500" y="1050"/>
      <point x="700" y="1050" type="qcurve" smooth="yes"/>
      <point x="750" y="1050" type="line" smooth="yes"/>
      <point x="950" y="1050"/>
      <point x="1250" y="850"/>
      <point x="1250" y="750" type="qcurve" smooth="yes"/>
    </contour>
    <contour>
      <point x="270" y="985" type="line"/>
      <point x="100" y="1068"/>
      <point x="100" y="1147" type="qcurve" smooth="yes"/>
      <point x="100" y="1202" type="line" smooth="yes"/>
      <point x="100" y="1254"/>
      <point x="422" y="1500"/>
      <point x="454" y="1500" type="qcurve" smooth="yes"/>
      <point x="491" y="1500"/>
      <point x="770" y="1280"/>
      <point x="890" y="1280" type="qcurve" smooth="yes"/>
      <point x="1006" y="1280"/>
      <point x="1006" y="1380" type="qcurve" smooth="yes"/>
      <point x="1006" y="1462"/>
      <point x="920" y="1462" type="qcurve" smooth="yes"/>
      <point x="820" y="1462"/>
      <point x="820" y="1581" type="qcurve" smooth="yes"/>
      <point x="820" y="1700"/>
      <point x="960" y="1700" type="qcurve" smooth="yes"/>
      <point x="1250" y="1700"/>
      <point x="1250" y="1400" type="qcurve" smooth="yes"/>
      <point x="1250" y="1076"/>
      <point x="890" y="1076" type="qcurve" smooth="yes"/>
      <point x="678" y="1077"/>
      <point x="465" y="1208"/>
      <point x="427" y="1208" type="qcurve" smooth="yes"/>
      <point x="404" y="1208"/>
      <point x="360" y="1174"/>
      <point x="360" y="1148" type="qcurve" smooth="yes"/>
      <point x="360" y="1118"/>
      <point x="478" y="1060" type="qcurve"/>
    </contour>
  </outline>
</glyph>
<glyph name="uni17A6" format="2">
  <advance width="2137"/>
  <unicode hex="17A6"/>
  <outline>
    <contour>
      <point x="892" y="0" type="line"/>
      <point x="892" y="1200" type="line" smooth="yes"/>
      <point x="892" y="1258"/>
      <point x="806" y="1306"/>
      <point x="750" y="1306" type="qcurve" smooth="yes"/>
      <point x="700" y="1306" type="line" smooth="yes"/>
      <point x="644" y="1306"/>
      <point x="558" y="1258"/>
      <point x="558" y="1200" type="qcurve" smooth="yes"/>
      <point x="558" y="254" type="line"/>
      <point x="618" y="314"/>
      <point x="618" y="370" type="qcurve" smooth="yes"/>
      <point x="618" y="411"/>
      <point x="565" y="411" type="qcurve" smooth="yes"/>
      <point x="550" y="411" type="line"/>
      <point x="550" y="620" type="line"/>
      <point x="565" y="620" type="line" smooth="yes"/>
      <point x="793" y="620"/>
      <point x="793" y="400" type="qcurve" smooth="yes"/>
      <point x="793" y="252"/>
      <point x="676" y="126" type="qcurve" smooth="yes"/>
      <point x="558" y="0" type="line"/>
      <point x="200" y="0" type="line"/>
      <point x="200" y="1200" type="line" smooth="yes"/>
      <point x="200" y="1300"/>
      <point x="500" y="1500"/>
      <point x="700" y="1500" type="qcurve" smooth="yes"/>
      <point x="750" y="1500" type="line" smooth="yes"/>
      <point x="950" y="1500"/>
      <point x="1250" y="1300"/>
      <point x="1250" y="1200" type="qcurve" smooth="yes"/>
      <point x="1250" y="0" type="line"/>
    </contour>
    <contour>
      <point x="1939" y="-375" type="line" smooth="yes"/>
      <point x="1939" y="-600"/>
      <point x="1415" y="-600" type="qcurve" smooth="yes"/>
      <point x="891" y="-600"/>
      <point x="891" y="-375" type="qcurve" smooth="yes"/>
      <point x="891" y="-288" type="line" smooth="yes"/>
      <point x="891" y="-229"/>
      <point x="726" y="-229" type="qcurve" smooth="yes"/>
      <point x="559" y="-229"/>
      <point x="559" y="-318" type="qcurve" smooth="yes"/>
      <point x="559" y="-480" type="line" smooth="yes"/>
      <point x="559" y="-518"/>
      <point x="593" y="-518" type="qcurve" smooth="yes"/>
      <point x="626" y="-518"/>
      <point x="626" y="-480" type="qcurve" smooth="yes"/>
      <point x="626" y="-452"/>
      <point x="580" y="-452" type="qcurve" smooth="yes"/>
      <point x="503" y="-452" type="line"/>
      <point x="503" y="-360" type="line"/>
      <point x="578" y="-360" type="line" smooth="yes"/>
      <point x="715" y="-360"/>
      <point x="715" y="-480" type="qcurve" smooth="yes"/>
      <point x="715" y="-600"/>
      <point x="473" y="-600" type="qcurve" smooth="yes"/>
      <point x="230" y="-600"/>
      <point x="230" y="-480" type="qcurve" smooth="yes"/>
      <point x="230" y="-318" type="line" smooth="yes"/>
      <point x="230" y="-70"/>
      <point x="726" y="-70" type="qcurve" smooth="yes"/>
      <point x="1220" y="-70"/>
      <point x="1220" y="-288" type="qcurve" smooth="yes"/>
      <point x="1220" y="-375" type="line" smooth="yes"/>
      <point x="1220" y="-440"/>
      <point x="1401" y="-440" type="qcurve" smooth="yes"/>
      <point x="1581" y="-440"/>
      <point x="1581" y="-375" type="qcurve" smooth="yes"/>
      <point x="1581" y="943" type="line"/>
      <point x="1511" y="996" type="line" smooth="yes"/>
      <point x="1441" y="1049"/>
      <point x="1441" y="1111" type="qcurve" smooth="yes"/>
      <point x="1441" y="1162"/>
      <point x="1492" y="1247" type="qcurve" smooth="yes"/>
      <point x="1645" y="1500" type="line"/>
      <point x="1817" y="1388"/>
      <point x="1844" y="1388" type="qcurve" smooth="yes"/>
      <point x="1871" y="1388"/>
      <point x="1871" y="1440" type="qcurve" smooth="yes"/>
      <point x="1871" y="1492"/>
      <point x="1684" y="1542"/>
      <point x="1684" y="1641" type="qcurve" smooth="yes"/>
      <point x="1684" y="1750"/>
      <point x="1807" y="1750" type="qcurve" smooth="yes"/>
      <point x="2059" y="1750"/>
      <point x="2059" y="1440" type="qcurve" smooth="yes"/>
      <point x="2059" y="1136"/>
      <point x="1904" y="1136" type="qcurve" smooth="yes"/>
      <point x="1819" y="1136"/>
      <point x="1715" y="1208" type="qcurve"/>
      <point x="1682" y="1149" type="line"/>
      <point x="1939" y="1000" type="line"/>
    </contour>
  </outline>
</glyph>
<glyph name="uni17A8" format="2">
  <advance width="1450"/>
  <unicode hex="17A8"/>
  <outline>
    <contour>
      <point x="1250" y="50" type="line" smooth="yes"/>
      <point x="1250" y="-100"/>
      <point x="1046" y="-100" type="qcurve" smooth="yes"/>
      <point x="822" y="-100"/>
      <point x="822" y="-28" type="qcurve"/>
      <point x="892" y="4"/>
      <point x="892" y="60" type="qcurve" smooth="yes"/>
      <point x="892" y="216" type="line"/>
      <point x="863" y="216"/>
      <point x="740" y="108" type="qcurve" smooth="yes"/>
      <point x="616" y="0"/>
      <point x="527" y="0" type="qcurve" smooth="yes"/>
      <point x="200" y="0"/>
      <point x="200" y="310" type="qcurve" smooth="yes"/>
      <point x="200" y="550" type="line"/>
      <point x="719" y="830" type="line" smooth="yes"/>
      <point x="892" y="923"/>
      <point x="892" y="1050" type="qcurve" smooth="yes"/>
      <point x="892" y="1200" type="line" smooth="yes"/>
      <point x="892" y="1258"/>
      <point x="806" y="1306"/>
      <point x="750" y="1306" type="qcurve" smooth="yes"/>
      <point x="700" y="1306" type="line" smooth="yes"/>
      <point x="644" y="1306"/>
      <point x="558" y="1258"/>
      <point x="558" y="1200" type="qcurve" smooth="yes"/>
      <point x="558" y="990" type="line" smooth="yes"/>
      <point x="558" y="970"/>
      <point x="582" y="970" type="qcurve" smooth="yes"/>
      <point x="606" y="970"/>
      <point x="606" y="1010" type="qcurve" smooth="yes"/>
      <point x="606" y="1045"/>
      <point x="564" y="1045" type="qcurve" smooth="yes"/>
      <point x="552" y="1045" type="line"/>
      <point x="552" y="1145" type="line"/>
      <point x="564" y="1145" type="line" smooth="yes"/>
      <point x="706" y="1145"/>
      <point x="706" y="1010" type="qcurve" smooth="yes"/>
      <point x="706" y="850"/>
      <point x="488" y="850" type="qcurve" smooth="yes"/>
      <point x="200" y="850"/>
      <point x="200" y="970" type="qcurve" smooth="yes"/>
      <point x="200" y="1200" type="line" smooth="yes"/>
      <point x="200" y="1300"/>
      <point x="500" y="1500"/>
      <point x="700" y="1500" type="qcurve" smooth="yes"/>
      <point x="750" y="1500" type="line" smooth="yes"/>
      <point x="950" y="1500"/>
      <point x="1250" y="1300"/>
      <point x="1250" y="1200" type="qcurve" smooth="yes"/>
      <point x="1250" y="1050" type="line" smooth="yes"/>
      <point x="1250" y="878"/>
      <point x="904" y="682" type="qcurve" smooth="yes"/>
      <point x="558" y="485" type="line"/>
      <point x="558" y="310" type="line" smooth="yes"/>
      <point x="558" y="254"/>
      <point x="597" y="254" type="qcurve" smooth="yes"/>
      <point x="656" y="254"/>
      <point x="738" y="337" type="qcurve" smooth="yes"/>
      <point x="819" y="420"/>
      <point x="892" y="420" type="qcurve"/>
      <point x="892" y="543" type="line"/>
      <point x="1250" y="703" type="line"/>
    </contour>
    <contour>
      <point x="352" y="1500" type="line"/>
      <point x="150" y="1587"/>
      <point x="150" y="1663" type="qcurve" smooth="yes"/>
      <point x="150" y="1739" type="line" smooth="yes"/>
      <point x="150" y="1816"/>
      <point x="392" y="1990"/>
      <point x="463" y="1990" type="qcurve" smooth="yes"/>
      <point x="533" y="1990"/>
      <point x="727" y="1837"/>
      <point x="750" y="1837" type="qcurve" smooth="yes"/>
      <point x="773" y="1837"/>
      <point x="952" y="1990"/>
      <point x="1013" y="1990" type="qcurve" smooth="yes"/>
      <point x="1073" y="1990"/>
      <point x="1258" y="1791"/>
      <point x="1285" y="1791" type="qcurve" smooth="yes"/>
      <point x="1311" y="1791"/>
      <point x="1330" y="1806" type="qcurve"/>
      <point x="1280" y="1617"/>
      <point x="1195" y="1617" type="qcurve" smooth="yes"/>
      <point x="1099" y="1617"/>
      <point x="945" y="1745"/>
      <point x="920" y="1745" type="qcurve" smooth="yes"/>
      <point x="897" y="1745"/>
      <point x="750" y="1617"/>
      <point x="710" y="1617" type="qcurve" smooth="yes"/>
      <point x="637" y="1617"/>
      <point x="466" y="1745"/>
      <point x="437" y="1745" type="qcurve" smooth="yes"/>
      <point x="404" y="1745"/>
      <point x="370" y="1718"/>
      <point x="370" y="1684" type="qcurve" smooth="yes"/>
      <point x="370" y="1663"/>
      <point x="512" y="1584" type="qcurve"/>
    </contour>
  </outline>
</glyph>
<glyph name="uni17A9" format="2">
  <advance width="1500"/>
  <unicode hex="17A9"/>
  <outline>
    <contour>
      <point x="1312" y="583" type="line"/>
      <point x="1500" y="673" type="line"/>
      <point x="1500" y="-100" type="line"/>
      <point x="1312" y="-100" type="line"/>
    </contour>
    <contour>
      <point x="1250" y="703" type="line"/>
      <point x="1250" y="50" type="line" smooth="yes"/>
      <point x="1250" y="-100"/>
      <point x="1046" y="-100" type="qcurve" smooth="yes"/>
      <point x="822" y="-100"/>
      <point x="822" y="-28" type="qcurve"/>
      <point x="892" y="4"/>
      <point x="892" y="60" type="qcurve" smooth="yes"/>
      <point x="892" y="216" type="line"/>
      <point x="863" y="216"/>
      <point x="740" y="108" type="qcurve" smooth="yes"/>
      <point x="616" y="0"/>
      <point x="527" y="0" type="qcurve" smooth="yes"/>
      <point x="200" y="0"/>
      <point x="200" y="310" type="qcurve" smooth="yes"/>
      <point x="200" y="550" type="line"/>
      <point x="719" y="830" type="line" smooth="yes"/>
      <point x="892" y="923"/>
      <point x="892" y="1050" type="qcurve" smooth="yes"/>
      <point x="892" y="1200" type="line" smooth="yes"/>
      <point x="892" y="1258"/>
      <point x="806" y="1306"/>
      <point x="750" y="1306" type="qcurve" smooth="yes"/>
      <point x="700" y="1306" type="line" smooth="yes"/>
      <point x="644" y="1306"/>
      <point x="558" y="1258"/>
      <point x="558" y="1200" type="qcurve" smooth="yes"/>
      <point x="558" y="990" type="line" smooth="yes"/>
      <point x="558" y="970"/>
      <point x="582" y="970" type="qcurve" smooth="yes"/>
      <point x="606" y="970"/>
      <point x="606" y="1010" type="qcurve" smooth="yes"/>
      <point x="606" y="1045"/>
      <point x="564" y="1045" type="qcurve" smooth="yes"/>
      <point x="552" y="1045" type="line"/>
      <point x="552" y="1145" type="line"/>
      <point x="564" y="1145" type="line" smooth="yes"/>
      <point x="706" y="1145"/>
      <point x="706" y="1010" type="qcurve" smooth="yes"/>
      <point x="706" y="850"/>
      <point x="488" y="850" type="qcurve" smooth="yes"/>
      <point x="200" y="850"/>
      <point x="200" y="970" type="qcurve" smooth="yes"/>
      <point x="200" y="1200" type="line" smooth="yes"/>
      <point x="200" y="1300"/>
      <point x="500" y="1500"/>
      <point x="700" y="1500" type="qcurve" smooth="yes"/>
      <point x="750" y="1500" type="line" smooth="yes"/>
      <point x="950" y="1500"/>
      <point x="1250" y="1300"/>
      <point x="1250" y="1200" type="qcurve" smooth="yes"/>
      <point x="1250" y="1050" type="line" smooth="yes"/>
      <point x="1250" y="878"/>
      <point x="904" y="682" type="qcurve" smooth="yes"/>
      <point x="558" y="485" type="line"/>
      <point x="558" y="310" type="line" smooth="yes"/>
      <point x="558" y="254"/>
      <point x="597" y="254" type="qcurve" smooth="yes"/>
      <point x="656" y="254"/>
      <point x="738" y="337" type="qcurve" smooth="yes"/>
      <point x="819" y="420"/>
      <point x="892" y="420" type="qcurve"/>
      <point x="892" y="543" type="line"/>
    </contour>
  </outline>
</glyph>
<glyph name="uni17AA" format="2">
  <advance width="1450"/>
  <unicode hex="17AA"/>
  <outline>
    <contour>
      <point x="1250" y="703" type="line"/>
      <point x="1250" y="50" type="line" smooth="yes"/>
      <point x="1250" y="-100"/>
      <point x="1046" y="-100" type="qcurve" smooth="yes"/>
      <point x="822" y="-100"/>
      <point x="822" y="-28" type="qcurve"/>
      <point x="892" y="4"/>
      <point x="892" y="60" type="qcurve" smooth="yes"/>
      <point x="892" y="216" type="line"/>
      <point x="863" y="216"/>
      <point x="740" y="108" type="qcurve" smooth="yes"/>
      <point x="616" y="0"/>
      <point x="527" y="0" type="qcurve" smooth="yes"/>
      <point x="200" y="0"/>
      <point x="200" y="310" type="qcurve" smooth="yes"/>
      <point x="200" y="550" type="line"/>
      <point x="719" y="830" type="line" smooth="yes"/>
      <point x="892" y="923"/>
      <point x="892" y="1050" type="qcurve" smooth="yes"/>
      <point x="892" y="1200" type="line" smooth="yes"/>
      <point x="892" y="1258"/>
      <point x="806" y="1306"/>
      <point x="750" y="1306" type="qcurve" smooth="yes"/>
      <point x="700" y="1306" type="line" smooth="yes"/>
      <point x="644" y="1306"/>
      <point x="558" y="1258"/>
      <point x="558" y="1200" type="qcurve" smooth="yes"/>
      <point x="558" y="990" type="line" smooth="yes"/>
      <point x="558" y="970"/>
      <point x="582" y="970" type="qcurve" smooth="yes"/>
      <point x="606" y="970"/>
      <point x="606" y="1010" type="qcurve" smooth="yes"/>
      <point x="606" y="1045"/>
      <point x="564" y="1045" type="qcurve" smooth="yes"/>
      <point x="552" y="1045" type="line"/>
      <point x="552" y="1145" type="line"/>
      <point x="564" y="1145" type="line" smooth="yes"/>
      <point x="706" y="1145"/>
      <point x="706" y="1010" type="qcurve" smooth="yes"/>
      <point x="706" y="850"/>
      <point x="488" y="850" type="qcurve" smooth="yes"/>
      <point x="200" y="850"/>
      <point x="200" y="970" type="qcurve" smooth="yes"/>
      <point x="200" y="1200" type="line" smooth="yes"/>
      <point x="200" y="1300"/>
      <point x="500" y="1500"/>
      <point x="700" y="1500" type="qcurve" smooth="yes"/>
      <point x="750" y="1500" type="line" smooth="yes"/>
      <point x="950" y="1500"/>
      <point x="1250" y="1300"/>
      <point x="1250" y="1200" type="qcurve" smooth="yes"/>
      <point x="1250" y="1050" type="line" smooth="yes"/>
      <point x="1250" y="878"/>
      <point x="904" y="682" type="qcurve" smooth="yes"/>
      <point x="558" y="485" type="line"/>
      <point x="558" y="310" type="line" smooth="yes"/>
      <point x="558" y="254"/>
      <point x="597" y="254" type="qcurve" smooth="yes"/>
      <point x="656" y="254"/>
      <point x="738" y="337" type="qcurve" smooth="yes"/>
      <point x="819" y="420"/>
      <point x="892" y="420" type="qcurve"/>
      <point x="892" y="543" type="line"/>
    </contour>
    <contour>
      <point x="270" y="1475" type="line"/>
      <point x="100" y="1558"/>
      <point x="100" y="1637" type="qcurve" smooth="yes"/>
      <point x="100" y="1692" type="line" smooth="yes"/>
      <point x="100" y="1744"/>
      <point x="422" y="1990"/>
      <point x="454" y="1990" type="qcurve" smooth="yes"/>
      <point x="491" y="1990"/>
      <point x="770" y="1770"/>
      <point x="890" y="1770" type="qcurve" smooth="yes"/>
      <point x="1006" y="1770"/>
      <point x="1006" y="1870" type="qcurve" smooth="yes"/>
      <point x="1006" y="1952"/>
      <point x="920" y="1952" type="qcurve" smooth="yes"/>
      <point x="820" y="1952"/>
      <point x="820" y="2071" type="qcurve" smooth="yes"/>
      <point x="820" y="2190"/>
      <point x="960" y="2190" type="qcurve" smooth="yes"/>
      <point x="1250" y="2190"/>
      <point x="1250" y="1890" type="qcurve" smooth="yes"/>
      <point x="1250" y="1566"/>
      <point x="890" y="1566" type="qcurve" smooth="yes"/>
      <point x="678" y="1567"/>
      <point x="465" y="1698"/>
      <point x="427" y="1698" type="qcurve" smooth="yes"/>
      <point x="404" y="1698"/>
      <point x="360" y="1664"/>
      <point x="360" y="1638" type="qcurve" smooth="yes"/>
      <point x="360" y="1608"/>
      <point x="478" y="1550" type="qcurve"/>
    </contour>
  </outline>
</glyph>
<glyph name="uni17AC" format="2">
  <advance width="1475"/>
  <unicode hex="17AC"/>
  <outline>
    <contour>
      <point x="1370" y="-620" type="line"/>
      <point x="1340" y="-620" type="line" smooth="yes"/>
      <point x="1113" y="-620"/>
      <point x="1051" y="-428" type="qcurve"/>
      <point x="1154" y="-252" type="line"/>
      <point x="1208" y="-380"/>
      <point x="1340" y="-380" type="qcurve" smooth="yes"/>
      <point x="1370" y="-380" type="line"/>
    </contour>
    <contour>
      <point x="816" y="-70" type="line"/>
      <point x="1250" y="-70"/>
      <point x="1250" y="-288" type="qcurve" smooth="yes"/>
      <point x="1250" y="-623"/>
      <point x="366" y="-623" type="qcurve" smooth="yes"/>
      <point x="166" y="-623"/>
      <point x="166" y="-460" type="qcurve"/>
      <point x="896" y="-430"/>
      <point x="896" y="-288" type="qcurve" smooth="yes"/>
      <point x="896" y="-228"/>
      <point x="816" y="-228" type="qcurve"/>
    </contour>
    <contour>
      <point x="1250" y="300" type="line" smooth="yes"/>
      <point x="1250" y="200"/>
      <point x="950" y="0"/>
      <point x="750" y="0" type="qcurve" smooth="yes"/>
      <point x="700" y="0" type="line" smooth="yes"/>
      <point x="500" y="0"/>
      <point x="200" y="200"/>
      <point x="200" y="300" type="qcurve" smooth="yes"/>
      <point x="200" y="943" type="line"/>
      <point x="130" y="996" type="line" smooth="yes"/>
      <point x="60" y="1049"/>
      <point x="60" y="1111" type="qcurve" smooth="yes"/>
      <point x="60" y="1162"/>
      <point x="126" y="1247" type="qcurve" smooth="yes"/>
      <point x="324" y="1500" type="line"/>
      <point x="486" y="1406" type="line" smooth="yes"/>
      <point x="540" y="1375"/>
      <point x="569" y="1375" type="qcurve" smooth="yes"/>
      <point x="607" y="1375"/>
      <point x="663" y="1385" type="qcurve"/>
      <point x="663" y="1290"/>
      <point x="575" y="1132"/>
      <point x="515" y="1132" type="qcurve" smooth="yes"/>
      <point x="474" y="1132"/>
      <point x="412" y="1169" type="qcurve" smooth="yes"/>
      <point x="344" y="1208" type="line"/>
      <point x="301" y="1149" type="line"/>
      <point x="558" y="1000" type="line"/>
      <point x="558" y="300" type="line" smooth="yes"/>
      <point x="558" y="242"/>
      <point x="644" y="194"/>
      <point x="700" y="194" type="qcurve" smooth="yes"/>
      <point x="750" y="194" type="line" smooth="yes"/>
      <point x="806" y="194"/>
      <point x="892" y="242"/>
      <point x="892" y="300" type="qcurve" smooth="yes"/>
      <point x="892" y="943" type="line"/>
      <point x="822" y="996" type="line" smooth="yes"/>
      <point x="752" y="1049"/>
      <point x="752" y="1111" type="qcurve" smooth="yes"/>
      <point x="752" y="1162"/>
      <point x="818" y="1247" type="qcurve" smooth="yes"/>
      <point x="1016" y="1500" type="line"/>
      <point x="1178" y="1406" type="line" smooth="yes"/>
      <point x="1232" y="1375"/>
      <point x="1261" y="1375" type="qcurve" smooth="yes"/>
      <point x="1299" y="1375"/>
      <point x="1355" y="1385" type="qcurve"/>
      <point x="1355" y="1290"/>
      <point x="1267" y="1132"/>
      <point x="1207" y="1132" type="qcurve" smooth="yes"/>
      <point x="1166" y="1132"/>
      <point x="1104" y="1169" type="qcurve" smooth="yes"/>
      <point x="1036" y="1208" type="line"/>
      <point x="993" y="1149" type="line"/>
      <point x="1250" y="1000" type="line"/>
    </contour>
  </outline>
</glyph>
<glyph name="uni17AE" format="2">
  <advance width="1450"/>
  <unicode hex="17AE"/>
  <outline>
    <contour>
      <point x="1250" y="0" type="line"/>
      <point x="892" y="0" type="line"/>
      <point x="892" y="1127" type="line" smooth="yes"/>
      <point x="892" y="1187"/>
      <point x="815" y="1235"/>
      <point x="790" y="1235" type="qcurve" smooth="yes"/>
      <point x="767" y="1235"/>
      <point x="670" y="1127"/>
      <point x="630" y="1127" type="qcurve" smooth="yes"/>
      <point x="577" y="1127"/>
      <point x="446" y="1235"/>
      <point x="417" y="1235" type="qcurve" smooth="yes"/>
      <point x="384" y="1235"/>
      <point x="350" y="1218"/>
      <point x="350" y="1194" type="qcurve" smooth="yes"/>
      <point x="350" y="1153"/>
      <point x="558" y="1030" type="qcurve"/>
      <point x="558" y="254" type="line"/>
      <point x="618" y="314"/>
      <point x="618" y="370" type="qcurve" smooth="yes"/>
      <point x="618" y="411"/>
      <point x="565" y="411" type="qcurve" smooth="yes"/>
      <point x="550" y="411" type="line"/>
      <point x="550" y="620" type="line"/>
      <point x="565" y="620" type="line" smooth="yes"/>
      <point x="793" y="620"/>
      <point x="793" y="400" type="qcurve" smooth="yes"/>
      <point x="793" y="252"/>
      <point x="676" y="126" type="qcurve" smooth="yes"/>
      <point x="558" y="0" type="line"/>
      <point x="200" y="0" type="line"/>
      <point x="200" y="1036" type="line"/>
      <point x="120" y="1108"/>
      <point x="120" y="1153" type="qcurve" smooth="yes"/>
      <point x="120" y="1249" type="line" smooth="yes"/>
      <point x="120" y="1326"/>
      <point x="342" y="1500"/>
      <point x="413" y="1500" type="qcurve" smooth="yes"/>
      <point x="483" y="1500"/>
      <point x="647" y="1347"/>
      <point x="670" y="1347" type="qcurve" smooth="yes"/>
      <point x="693" y="1347"/>
      <point x="822" y="1500"/>
      <point x="883" y="1500" type="qcurve" smooth="yes"/>
      <point x="963" y="1500"/>
      <point x="1250" y="1301"/>
      <point x="1250" y="1127" type="qcurve" smooth="yes"/>
    </contour>
    <contour>
      <point x="1370" y="-620" type="line"/>
      <point x="1340" y="-620" type="line" smooth="yes"/>
      <point x="1113" y="-620"/>
      <point x="1051" y="-428" type="qcurve"/>
      <point x="1154" y="-252" type="line"/>
      <point x="1208" y="-380"/>
      <point x="1340" y="-380" type="qcurve" smooth="yes"/>
      <point x="1370" y="-380" type="line"/>
    </contour>
    <contour>
      <point x="816" y="-70" type="line"/>
      <point x="1250" y="-70"/>
      <point x="1250" y="-288" type="qcurve" smooth="yes"/>
      <point x="1250" y="-623"/>
      <point x="366" y="-623" type="qcurve" smooth="yes"/>
      <point x="166" y="-623"/>
      <point x="166" y="-460" type="qcurve"/>
      <point x="896" y="-430"/>
      <point x="896" y="-288" type="qcurve" smooth="yes"/>
      <point x="896" y="-228"/>
      <point x="816" y="-228" type="qcurve"/>
    </contour>
  </outline>
</glyph>
<glyph name="uni17AF" format="2">
  <advance width="1450"/>
  <unicode hex="17AF"/>
  <outline>
    <contour>
      <point x="892" y="272" type="line"/>
      <point x="892" y="1090" type="line" smooth="yes"/>
      <point x="892" y="1146"/>
      <point x="808" y="1242"/>
      <point x="761" y="1242" type="qcurve" smooth="yes"/>
      <point x="693" y="1242"/>
      <point x="558" y="1096" type="qcurve"/>
      <point x="200" y="1096"/>
      <point x="200" y="1266" type="qcurve" smooth="yes"/>
      <point x="200" y="1332"/>
      <point x="250" y="1458"/>
      <point x="250" y="1526" type="qcurve" smooth="yes"/>
      <point x="250" y="1614"/>
      <point x="150" y="1614" type="qcurve"/>
      <point x="150" y="1740"/>
      <point x="350" y="1740" type="qcurve" smooth="yes"/>
      <point x="580" y="1740"/>
      <point x="580" y="1576" type="qcurve" smooth="yes"/>
      <point x="580" y="1494"/>
      <point x="530" y="1406"/>
      <point x="530" y="1376" type="qcurve" smooth="yes"/>
      <point x="530" y="1351"/>
      <point x="534" y="1332" type="qcurve"/>
      <point x="552" y="1360"/>
      <point x="755" y="1500"/>
      <point x="831" y="1500" type="qcurve" smooth="yes"/>
      <point x="949" y="1500"/>
      <point x="1250" y="1205"/>
      <point x="1250" y="1090" type="qcurve" smooth="yes"/>
      <point x="1250" y="0" type="line"/>
      <point x="892" y="0" type="line"/>
      <point x="725" y="163" type="line"/>
      <point x="558" y="0" type="line"/>
      <point x="200" y="0" type="line"/>
      <point x="200" y="807" type="line"/>
      <point x="185" y="807"/>
      <point x="171" y="786"/>
      <point x="171" y="765" type="qcurve" smooth="yes"/>
      <point x="171" y="740"/>
      <point x="200" y="740" type="qcurve" smooth="yes"/>
      <point x="210" y="740" type="line"/>
      <point x="210" y="610" type="line"/>
      <point x="200" y="610" type="line" smooth="yes"/>
      <point x="80" y="610"/>
      <point x="80" y="765" type="qcurve" smooth="yes"/>
      <point x="80" y="842"/>
      <point x="200" y="980"/>
      <point x="344" y="980" type="qcurve" smooth="yes"/>
      <point x="558" y="980"/>
      <point x="558" y="850" type="qcurve" smooth="yes"/>
      <point x="558" y="272" type="line"/>
      <point x="725" y="438" type="line"/>
    </contour>
  </outline>
</glyph>
<glyph name="uni17B0" format="2">
  <advance width="1450"/>
  <unicode hex="17B0"/>
  <outline>
    <contour>
      <point x="1250" y="-252" type="line" smooth="yes"/>
      <point x="1250" y="-474"/>
      <point x="913" y="-474" type="qcurve" smooth="yes"/>
      <point x="830" y="-474"/>
      <point x="748" y="-415" type="qcurve"/>
      <point x="715" y="-589"/>
      <point x="526" y="-589" type="qcurve" smooth="yes"/>
      <point x="250" y="-589"/>
      <point x="250" y="-412" type="qcurve" smooth="yes"/>
      <point x="250" y="-236"/>
      <point x="409" y="-195" type="qcurve" smooth="yes"/>
      <point x="1047" y="-31" type="line"/>
      <point x="1047" y="-208" type="line"/>
      <point x="468" y="-358" type="line" smooth="yes"/>
      <point x="429" y="-368"/>
      <point x="429" y="-407" type="qcurve" smooth="yes"/>
      <point x="429" y="-462"/>
      <point x="529" y="-462" type="qcurve" smooth="yes"/>
      <point x="622" y="-462"/>
      <point x="622" y="-335" type="qcurve" smooth="yes"/>
      <point x="622" y="-209" type="line"/>
      <point x="771" y="-209" type="line"/>
      <point x="803" y="-341"/>
      <point x="852" y="-341" type="qcurve" smooth="yes"/>
      <point x="892" y="-341"/>
      <point x="892" y="-252" type="qcurve" smooth="yes"/>
      <point x="892" y="1127" type="line" smooth="yes"/>
      <point x="892" y="1187"/>
      <point x="815" y="1235"/>
      <point x="790" y="1235" type="qcurve" smooth="yes"/>
      <point x="767" y="1235"/>
      <point x="670" y="1127"/>
      <point x="630" y="1127" type="qcurve" smooth="yes"/>
      <point x="577" y="1127"/>
      <point x="446" y="1235"/>
      <point x="417" y="1235" type="qcurve" smooth="yes"/>
      <point x="384" y="1235"/>
      <point x="350" y="1218"/>
      <point x="350" y="1194" type="qcurve" smooth="yes"/>
      <point x="350" y="1153"/>
      <point x="558" y="1030" type="qcurve"/>
      <point x="558" y="254" type="line"/>
      <point x="618" y="314"/>
      <point x="618" y="370" type="qcurve" smooth="yes"/>
      <point x="618" y="411"/>
      <point x="565" y="411" type="qcurve" smooth="yes"/>
      <point x="550" y="411" type="line"/>
      <point x="550" y="620" type="line"/>
      <point x="565" y="620" type="line" smooth="yes"/>
      <point x="793" y="620"/>
      <point x="793" y="400" type="qcurve" smooth="yes"/>
      <point x="793" y="252"/>
      <point x="676" y="126" type="qcurve" smooth="yes"/>
      <point x="558" y="0" type="line"/>
      <point x="200" y="0" type="line"/>
      <point x="200" y="1036" type="line"/>
      <point x="120" y="1108"/>
      <point x="120" y="1153" type="qcurve" smooth="yes"/>
      <point x="120" y="1249" type="line" smooth="yes"/>
      <point x="120" y="1326"/>
      <point x="342" y="1500"/>
      <point x="413" y="1500" type="qcurve" smooth="yes"/>
      <point x="483" y="1500"/>
      <point x="647" y="1347"/>
      <point x="670" y="1347" type="qcurve" smooth="yes"/>
      <point x="693" y="1347"/>
      <point x="822" y="1500"/>
      <point x="883" y="1500" type="qcurve" smooth="yes"/>
      <point x="963" y="1500"/>
      <point x="1250" y="1301"/>
      <point x="1250" y="1127" type="qcurve" smooth="yes"/>
    </contour>
  </outline>
</glyph>
<glyph name="uni17B2" format="2">
  <advance width="1450"/>
  <unicode hex="17B2"/>
  <outline>
    <contour>
      <point x="601" y="467" type="line"/>
      <point x="850" y="660" type="line" smooth="yes"/>
      <point x="940" y="736"/>
      <point x="940" y="855" type="qcurve" smooth="yes"/>
      <point x="940" y="915"/>
      <point x="835" y="915" type="qcurve" smooth="yes"/>
      <point x="730" y="915"/>
      <point x="730" y="855" type="qcurve" smooth="yes"/>
      <point x="730" y="793"/>
      <point x="768" y="793" type="qcurve" smooth="yes"/>
      <point x="797" y="793"/>
      <point x="840" y="813" type="qcurve"/>
      <point x="830" y="695"/>
      <point x="757" y="695" type="qcurve" smooth="yes"/>
      <point x="590" y="695"/>
      <point x="590" y="855" type="qcurve" smooth="yes"/>
      <point x="590" y="1075"/>
      <point x="875" y="1075" type="qcurve" smooth="yes"/>
      <point x="1250" y="1075"/>
      <point x="1250" y="855" type="qcurve" smooth="yes"/>
      <point x="1250" y="736"/>
      <point x="1054" y="591" type="qcurve" smooth="yes"/>
      <point x="709" y="358" type="line"/>
    </contour>
    <contour>
      <point x="940" y="387" type="line" smooth="yes"/>
      <point x="940" y="509"/>
      <point x="848" y="509" type="qcurve"/>
      <point x="848" y="627" type="line"/>
      <point x="1250" y="627"/>
      <point x="1250" y="387" type="qcurve" smooth="yes"/>
      <point x="1250" y="300" type="line" smooth="yes"/>
      <point x="1250" y="200"/>
      <point x="950" y="0"/>
      <point x="750" y="0" type="qcurve" smooth="yes"/>
      <point x="700" y="0" type="line" smooth="yes"/>
      <point x="500" y="0"/>
      <point x="200" y="200"/>
      <point x="200" y="300" type="qcurve" smooth="yes"/>
      <point x="200" y="1200" type="line" smooth="yes"/>
      <point x="200" y="1300"/>
      <point x="500" y="1500"/>
      <point x="700" y="1500" type="qcurve" smooth="yes"/>
      <point x="750" y="1500" type="line" smooth="yes"/>
      <point x="950" y="1500"/>
      <point x="1250" y="1300"/>
      <point x="1250" y="1200" type="qcurve"/>
      <point x="892" y="1200" type="line"/>
      <point x="892" y="1258"/>
      <point x="806" y="1306"/>
      <point x="750" y="1306" type="qcurve" smooth="yes"/>
      <point x="700" y="1306" type="line" smooth="yes"/>
      <point x="644" y="1306"/>
      <point x="558" y="1258"/>
      <point x="558" y="1200" type="qcurve" smooth="yes"/>
      <point x="558" y="300" type="line" smooth="yes"/>
      <point x="558" y="242"/>
      <point x="644" y="194"/>
      <point x="700" y="194" type="qcurve" smooth="yes"/>
      <point x="750" y="194" type="line" smooth="yes"/>
      <point x="846" y="194"/>
      <point x="940" y="242"/>
      <point x="940" y="300" type="qcurve" smooth="yes"/>
    </contour>
  </outline>
</glyph>
<glyph name="uni17B6" format="2">
  <advance width="688"/>
  <unicode hex="17B6"/>
  <outline>
    <contour>
      <point x="200" y="0" type="line"/>
      <point x="200" y="1098" type="line" smooth="yes"/>
      <point x="200" y="1127"/>
      <point x="37" y="1246"/>
      <point x="-31" y="1246" type="qcurve" smooth="yes"/>
      <point x="-78" y="1246"/>
      <point x="-351" y="1003" type="qcurve"/>
      <point x="-351" y="1260"/>
      <point x="-48" y="1500"/>
      <point x="63" y="1500" type="qcurve" smooth="yes"/>
      <point x="192" y="1500"/>
      <point x="558" y="1223"/>
      <point x="558" y="1098" type="qcurve" smooth="yes"/>
      <point x="558" y="0" type="line"/>
    </contour>
  </outline>
</glyph>
<glyph name="uni17B7" format="2">
  <unicode hex="17B7"/>
  <outline>
    <contour>
      <point x="-200" y="1760" type="line"/>
      <point x="-900" y="1760" type="line" smooth="yes"/>
      <point x="-1170" y="1760"/>
      <point x="-1170" y="1960" type="qcurve" smooth="yes"/>
      <point x="-1170" y="2210"/>
      <point x="-830" y="2210" type="qcurve" smooth="yes"/>
      <point x="-550" y="2210"/>
      <point x="-309" y="2004" type="qcurve" smooth="yes"/>
      <point x="-200" y="1910" type="line"/>
    </contour>
    <contour>
      <point x="-520" y="1910" type="line"/>
      <point x="-629" y="2010"/>
      <point x="-830" y="2010" type="qcurve" smooth="yes"/>
      <point x="-910" y="2010"/>
      <point x="-910" y="1960" type="qcurve" smooth="yes"/>
      <point x="-910" y="1910"/>
      <point x="-850" y="1910" type="qcurve" smooth="yes"/>
    </contour>
  </outline>
</glyph>
<glyph name="uni17B8" format="2">
  <unicode hex="17B8"/>
  <outline>
    <contour>
      <point x="-200" y="1817" type="line"/>
      <point x="-450" y="1817" type="line"/>
      <point x="-450" y="2250" type="line"/>
      <point x="-200" y="2250" type="line"/>
    </contour>
    <contour>
      <point x="-309" y="1994" type="qcurve" smooth="yes"/>
      <point x="-200" y="1900" type="line"/>
      <point x="-200" y="1750" type="line"/>
      <point x="-900" y="1750" type="line" smooth="yes"/>
      <point x="-1170" y="1750"/>
      <point x="-1170" y="1950" type="qcurve" smooth="yes"/>
      <point x="-1170" y="2200"/>
      <point x="-830" y="2200" type="qcurve" smooth="yes"/>
      <point x="-550" y="2200"/>
    </contour>
    <contour>
      <point x="-520" y="1900" type="line"/>
      <point x="-629" y="2000"/>
      <point x="-830" y="2000" type="qcurve" smooth="yes"/>
      <point x="-910" y="2000"/>
      <point x="-910" y="1950" type="qcurve" smooth="yes"/>
      <point x="-910" y="1900"/>
      <point x="-850" y="1900" type="qcurve" smooth="yes"/>
    </contour>
  </outline>
</glyph>
<glyph name="uni17B9" format="2">
  <unicode hex="17B9"/>
  <outline>
    <contour>
      <point x="-200" y="2080" type="qcurve" smooth="yes"/>
      <point x="-200" y="1860"/>
      <point x="-435" y="1860" type="qcurve"/>
      <point x="-435" y="2000" type="line"/>
      <point x="-360" y="2000"/>
      <point x="-360" y="2075" type="qcurve" smooth="yes"/>
      <point x="-360" y="2160"/>
      <point x="-455" y="2160" type="qcurve" smooth="yes"/>
      <point x="-550" y="2160"/>
      <point x="-550" y="2080" type="qcurve"/>
      <point x="-630" y="2080" type="line"/>
      <point x="-630" y="2300"/>
      <point x="-415" y="2300" type="qcurve" smooth="yes"/>
      <point x="-200" y="2300"/>
    </contour>
    <contour>
      <point x="-309" y="1994" type="qcurve" smooth="yes"/>
      <point x="-200" y="1900" type="line"/>
      <point x="-200" y="1750" type="line"/>
      <point x="-900" y="1750" type="line" smooth="yes"/>
      <point x="-1170" y="1750"/>
      <point x="-1170" y="1950" type="qcurve" smooth="yes"/>
      <point x="-1170" y="2200"/>
      <point x="-830" y="2200" type="qcurve" smooth="yes"/>
      <point x="-550" y="2200"/>
    </contour>
    <contour>
      <point x="-520" y="1900" type="line"/>
      <point x="-629" y="2000"/>
      <point x="-830" y="2000" type="qcurve" smooth="yes"/>
      <point x="-910" y="2000"/>
      <point x="-910" y="1950" type="qcurve" smooth="yes"/>
      <point x="-910" y="1900"/>
      <point x="-850" y="1900" type="qcurve" smooth="yes"/>
    </contour>
  </outline>
</glyph>
<glyph name="uni17BB" format="2">
  <unicode hex="17BB"/>
  <outline>
    <contour>
      <point x="-500" y="-650" type="line"/>
      <point x="-500" y="-300" type="line"/>
      <point x="-580" y="-300"/>
      <point x="-580" y="-200" type="qcurve" smooth="yes"/>
      <point x="-580" y="-100"/>
      <point x="-390" y="-100" type="qcurve" smooth="yes"/>
      <point x="-200" y="-100"/>
      <point x="-200" y="-220" type="qcurve" smooth="yes"/>
      <point x="-200" y="-650" type="line"/>
    </contour>
  </outline>
</glyph>
<glyph name="uni17BC" format="2">
  <unicode hex="17BC"/>
  <outline>
    <contour>
      <point x="-960" y="-491" type="qcurve" smooth="yes"/>
      <point x="-960" y="-471"/>
      <point x="-954" y="-451" type="qcurve" smooth="yes"/>
      <point x="-904" y="-300" type="line"/>
      <point x="-964" y="-300"/>
      <point x="-964" y="-200" type="qcurve" smooth="yes"/>
      <point x="-964" y="-100"/>
      <point x="-784" y="-100" type="qcurve" smooth="yes"/>
      <point x="-591" y="-100"/>
      <point x="-591" y="-225" type="qcurve" smooth="yes"/>
      <point x="-591" y="-277"/>
      <point x="-612" y="-333" type="qcurve" smooth="yes"/>
      <point x="-633" y="-389" type="line" smooth="yes"/>
      <point x="-640" y="-407"/>
      <point x="-640" y="-429" type="qcurve" smooth="yes"/>
      <point x="-640" y="-460"/>
      <point x="-610" y="-460" type="qcurve" smooth="yes"/>
      <point x="-567" y="-460"/>
      <point x="-432" y="-100"/>
      <point x="-328" y="-100" type="qcurve" smooth="yes"/>
      <point x="-203" y="-100"/>
      <point x="-203" y="-169" type="qcurve" smooth="yes"/>
      <point x="-203" y="-256"/>
      <point x="-339" y="-650"/>
      <point x="-620" y="-650" type="qcurve" smooth="yes"/>
      <point x="-960" y="-650"/>
    </contour>
  </outline>
</glyph>
<glyph name="uni17BD" format="2">
  <unicode hex="17BD"/>
  <outline>
    <contour>
      <point x="-664" y="-187" type="qcurve" smooth="yes"/>
      <point x="-664" y="-235"/>
      <point x="-764" y="-395"/>
      <point x="-764" y="-419" type="qcurve" smooth="yes"/>
      <point x="-764" y="-440"/>
      <point x="-743" y="-440" type="qcurve" smooth="yes"/>
      <point x="-684" y="-440"/>
      <point x="-597" y="-313" type="qcurve"/>
      <point x="-557" y="-313" type="line"/>
      <point x="-536" y="-440"/>
      <point x="-493" y="-440" type="qcurve" smooth="yes"/>
      <point x="-447" y="-440"/>
      <point x="-382" y="-100" type="qcurve"/>
      <point x="-203" y="-100"/>
      <point x="-203" y="-198" type="qcurve" smooth="yes"/>
      <point x="-203" y="-296"/>
      <point x="-261" y="-650"/>
      <point x="-461" y="-650" type="qcurve" smooth="yes"/>
      <point x="-551" y="-650"/>
      <point x="-610" y="-503" type="qcurve"/>
      <point x="-757" y="-650"/>
      <point x="-906" y="-650" type="qcurve" smooth="yes"/>
      <point x="-1049" y="-650"/>
      <point x="-1049" y="-521" type="qcurve" smooth="yes"/>
      <point x="-1049" y="-444"/>
      <point x="-930" y="-295"/>
      <point x="-930" y="-264" type="qcurve" smooth="yes"/>
      <point x="-930" y="-230"/>
      <point x="-965" y="-230" type="qcurve" smooth="yes"/>
      <point x="-1001" y="-230"/>
      <point x="-1029" y="-250" type="qcurve"/>
      <point x="-1029" y="-100"/>
      <point x="-827" y="-100" type="qcurve" smooth="yes"/>
      <point x="-664" y="-100"/>
    </contour>
  </outline>
</glyph>
<glyph name="uni17C1" format="2">
  <advance width="713"/>
  <unicode hex="17C1"/>
  <outline>
    <contour>
      <point x="165" y="963" type="line"/>
      <point x="108" y="1006" type="line" smooth="yes"/>
      <point x="50" y="1049"/>
      <point x="50" y="1111" type="qcurve" smooth="yes"/>
      <point x="50" y="1162"/>
      <point x="116" y="1247" type="qcurve" smooth="yes"/>
      <point x="314" y="1500" type="line"/>
      <point x="476" y="1406" type="line" smooth="yes"/>
      <point x="530" y="1375"/>
      <point x="559" y="1375" type="qcurve" smooth="yes"/>
      <point x="597" y="1375"/>
      <point x="653" y="1385" type="qcurve"/>
      <point x="653" y="1290"/>
      <point x="565" y="1132"/>
      <point x="505" y="1132" type="qcurve" smooth="yes"/>
      <point x="464" y="1132"/>
      <point x="402" y="1169" type="qcurve" smooth="yes"/>
      <point x="334" y="1208" type="line"/>
      <point x="291" y="1149" type="line"/>
      <point x="523" y="1000" type="line"/>
      <point x="523" y="234" type="line"/>
      <point x="573" y="284"/>
      <point x="573" y="315" type="qcurve" smooth="yes"/>
      <point x="573" y="361"/>
      <point x="530" y="361" type="qcurve" smooth="yes"/>
      <point x="515" y="361" type="line"/>
      <point x="515" y="520" type="line"/>
      <point x="530" y="520" type="line" smooth="yes"/>
      <point x="708" y="520"/>
      <point x="708" y="345" type="qcurve" smooth="yes"/>
      <point x="708" y="252"/>
      <point x="616" y="126" type="qcurve" smooth="yes"/>
      <point x="523" y="0" type="line"/>
      <point x="165" y="0" type="line"/>
    </contour>
  </outline>
</glyph>
<glyph name="uni17C2" format="2">
  <advance width="713"/>
  <unicode hex="17C2"/>
  <outline>
    <contour>
      <point x="165" y="963" type="line"/>
      <point x="108" y="1006" type="line" smooth="yes"/>
      <point x="50" y="1049"/>
      <point x="50" y="1111" type="qcurve" smooth="yes"/>
      <point x="50" y="1162"/>
      <point x="116" y="1247" type="qcurve" smooth="yes"/>
      <point x="314" y="1500" type="line"/>
      <point x="476" y="1406" type="line" smooth="yes"/>
      <point x="530" y="1375"/>
      <point x="559" y="1375" type="qcurve" smooth="yes"/>
      <point x="597" y="1375"/>
      <point x="653" y="1385" type="qcurve"/>
      <point x="653" y="1290"/>
      <point x="565" y="1132"/>
      <point x="505" y="1132" type="qcurve" smooth="yes"/>
      <point x="464" y="1132"/>
      <point x="402" y="1169" type="qcurve" smooth="yes"/>
      <point x="334" y="1208" type="line"/>
      <point x="291" y="1149" type="line"/>
      <point x="523" y="1000" type="line"/>
      <point x="523" y="234" type="line"/>
      <point x="573" y="284"/>
      <point x="573" y="315" type="qcurve" smooth="yes"/>
      <point x="573" y="361"/>
      <point x="530" y="361" type="qcurve" smooth="yes"/>
      <point x="515" y="361" type="line"/>
      <point x="515" y="520" type="line"/>
      <point x="530" y="520" type="line" smooth="yes"/>
      <point x="708" y="520"/>
      <point x="708" y="345" type="qcurve" smooth="yes"/>
      <point x="708" y="252"/>
      <point x="616" y="126" type="qcurve" smooth="yes"/>
      <point x="523" y="0" type="line"/>
      <point x="165" y="0" type="line"/>
    </contour>
    <contour>
      <point x="290" y="1876" type="line"/>
      <point x="265" y="1876"/>
      <point x="265" y="1854" type="qcurve" smooth="yes"/>
      <point x="265" y="1831"/>
      <point x="290" y="1831" type="qcurve" smooth="yes"/>
      <point x="390" y="1831"/>
      <point x="390" y="1936" type="qcurve" smooth="yes"/>
      <point x="390" y="2084"/>
      <point x="270" y="2084" type="qcurve"/>
      <point x="270" y="2190"/>
      <point x="400" y="2190" type="qcurve" smooth="yes"/>
      <point x="670" y="2190"/>
      <point x="670" y="1935" type="qcurve" smooth="yes"/>
      <point x="670" y="1640"/>
      <point x="360" y="1640" type="qcurve" smooth="yes"/>
      <point x="50" y="1640"/>
      <point x="50" y="1804" type="qcurve" smooth="yes"/>
      <point x="50" y="1967"/>
      <point x="230" y="1967" type="qcurve" smooth="yes"/>
      <point x="290" y="1967" type="line"/>
    </contour>
  </outline>
</glyph>
<glyph name="uni17C3" format="2">
  <advance width="713"/>
  <unicode hex="17C3"/>
  <outline>
    <contour>
      <point x="165" y="963" type="line"/>
      <point x="108" y="1006" type="line" smooth="yes"/>
      <point x="50" y="1049"/>
      <point x="50" y="1111" type="qcurve" smooth="yes"/>
      <point x="50" y="1162"/>
      <point x="116" y="1247" type="qcurve" smooth="yes"/>
      <point x="314" y="1500" type="line"/>
      <point x="476" y="1406" type="line" smooth="yes"/>
      <point x="530" y="1375"/>
      <point x="559" y="1375" type="qcurve" smooth="yes"/>
      <point x="597" y="1375"/>
      <point x="653" y="1385" type="qcurve"/>
      <point x="653" y="1290"/>
      <point x="565" y="1132"/>
      <point x="505" y="1132" type="qcurve" smooth="yes"/>
      <point x="464" y="1132"/>
      <point x="402" y="1169" type="qcurve" smooth="yes"/>
      <point x="334" y="1208" type="line"/>
      <point x="291" y="1149" type="line"/>
      <point x="523" y="1000" type="line"/>
      <point x="523" y="234" type="line"/>
      <point x="573" y="284"/>
      <point x="573" y="315" type="qcurve" smooth="yes"/>
      <point x="573" y="361"/>
      <point x="530" y="361" type="qcurve" smooth="yes"/>
      <point x="515" y="361" type="line"/>
      <point x="515" y="520" type="line"/>
      <point x="530" y="520" type="line" smooth="yes"/>
      <point x="708" y="520"/>
      <point x="708" y="345" type="qcurve" smooth="yes"/>
      <point x="708" y="252"/>
      <point x="616" y="126" type="qcurve" smooth="yes"/>
      <point x="523" y="0" type="line"/>
      <point x="165" y="0" type="line"/>
    </contour>
    <contour>
      <point x="320" y="1852" type="line"/>
      <point x="320" y="1782"/>
      <point x="375" y="1782" type="qcurve" smooth="yes"/>
      <point x="430" y="1782"/>
      <point x="430" y="1873" type="qcurve" smooth="yes"/>
      <point x="430" y="1953"/>
      <point x="350" y="1953" type="qcurve" smooth="yes"/>
      <point x="310" y="1953" type="line" smooth="yes"/>
      <point x="110" y="1953"/>
      <point x="110" y="2075" type="qcurve" smooth="yes"/>
      <point x="110" y="2148"/>
      <point x="10" y="2148" type="qcurve"/>
      <point x="10" y="2270"/>
      <point x="180" y="2270" type="qcurve" smooth="yes"/>
      <point x="390" y="2270"/>
      <point x="390" y="2075" type="qcurve"/>
      <point x="410" y="2075" type="line" smooth="yes"/>
      <point x="660" y="2075"/>
      <point x="660" y="1873" type="qcurve" smooth="yes"/>
      <point x="660" y="1640"/>
      <point x="385" y="1640" type="qcurve" smooth="yes"/>
      <point x="110" y="1640"/>
      <point x="110" y="1852" type="qcurve"/>
    </contour>
  </outline>
</glyph>
<glyph name="uni17C5" format="2">
  <advance width="688"/>
  <unicode hex="17C5"/>
  <outline>
    <contour>
      <point x="-250" y="1348" type="qcurve" smooth="yes"/>
      <point x="-250" y="1396"/>
      <point x="-98" y="1500"/>
      <point x="63" y="1500" type="qcurve" smooth="yes"/>
      <point x="192" y="1500"/>
      <point x="278" y="1433" type="qcurve" smooth="yes"/>
      <point x="480" y="1282" type="line" smooth="yes"/>
      <point x="558" y="1223"/>
      <point x="558" y="1128" type="qcurve" smooth="yes"/>
      <point x="558" y="0" type="line"/>
      <point x="200" y="0" type="line"/>
      <point x="200" y="1128" type="line"/>
      <point x="17" y="1296"/>
      <point x="-41" y="1296" type="qcurve" smooth="yes"/>
      <point x="-78" y="1296"/>
      <point x="-201" y="1203" type="qcurve"/>
      <point x="-250" y="1300"/>
    </contour>
    <contour>
      <point x="300" y="1118" type="line"/>
      <point x="300" y="1694" type="line" smooth="yes"/>
      <point x="300" y="1747"/>
      <point x="190" y="1747" type="qcurve"/>
      <point x="190" y="1897"/>
      <point x="395" y="1897" type="qcurve" smooth="yes"/>
      <point x="630" y="1897"/>
      <point x="630" y="1694" type="qcurve" smooth="yes"/>
      <point x="630" y="1334" type="line" smooth="yes"/>
      <point x="630" y="1196"/>
      <point x="295" y="1064" type="qcurve"/>
    </contour>
  </outline>
</glyph>
<glyph name="uni17C6" format="2">
  <unicode hex="17C6"/>
  <outline>
    <contour>
      <point x="-815" y="2035" type="qcurve" smooth="yes"/>
      <point x="-815" y="1940"/>
      <point x="-715" y="1940" type="qcurve" smooth="yes"/>
      <point x="-615" y="1940"/>
      <point x="-615" y="2035" type="qcurve" smooth="yes"/>
      <point x="-615" y="2130"/>
      <point x="-715" y="2130" type="qcurve" smooth="yes"/>
      <point x="-815" y="2130"/>
    </contour>
    <contour>
      <point x="-390" y="2035" type="qcurve" smooth="yes"/>
      <point x="-390" y="1760"/>
      <point x="-715" y="1760" type="qcurve" smooth="yes"/>
      <point x="-1040" y="1760"/>
      <point x="-1040" y="2035" type="qcurve" smooth="yes"/>
      <point x="-1040" y="2310"/>
      <point x="-715" y="2310" type="qcurve" smooth="yes"/>
      <point x="-390" y="2310"/>
    </contour>
  </outline>
</glyph>
<glyph name="uni17C7" format="2">
  <advance width="885"/>
  <unicode hex="17C7"/>
  <outline>
    <contour>
      <point x="350" y="275" type="qcurve" smooth="yes"/>
      <point x="350" y="200"/>
      <point x="425" y="200" type="qcurve" smooth="yes"/>
      <point x="500" y="200"/>
      <point x="500" y="275" type="qcurve" smooth="yes"/>
      <point x="500" y="350"/>
      <point x="425" y="350" type="qcurve" smooth="yes"/>
      <point x="350" y="350"/>
    </contour>
    <contour>
      <point x="750" y="275" type="qcurve" smooth="yes"/>
      <point x="750" y="0"/>
      <point x="425" y="0" type="qcurve" smooth="yes"/>
      <point x="100" y="0"/>
      <point x="100" y="275" type="qcurve" smooth="yes"/>
      <point x="100" y="550"/>
      <point x="425" y="550" type="qcurve" smooth="yes"/>
      <point x="750" y="550"/>
    </contour>
    <contour>
      <point x="350" y="1225" type="qcurve" smooth="yes"/>
      <point x="350" y="1150"/>
      <point x="425" y="1150" type="qcurve" smooth="yes"/>
      <point x="500" y="1150"/>
      <point x="500" y="1225" type="qcurve" smooth="yes"/>
      <point x="500" y="1300"/>
      <point x="425" y="1300" type="qcurve" smooth="yes"/>
      <point x="350" y="1300"/>
    </contour>
    <contour>
      <point x="750" y="1225" type="qcurve" smooth="yes"/>
      <point x="750" y="950"/>
      <point x="425" y="950" type="qcurve" smooth="yes"/>
      <point x="100" y="950"/>
      <point x="100" y="1225" type="qcurve" smooth="yes"/>
      <point x="100" y="1500"/>
      <point x="425" y="1500" type="qcurve" smooth="yes"/>
      <point x="750" y="1500"/>
    </contour>
  </outline>
</glyph>
<glyph name="uni17C8" format="2">
  <advance width="760"/>
  <unicode hex="17C8"/>
  <outline>
    <contour>
      <point x="550" y="162" type="qcurve" smooth="yes"/>
      <point x="550" y="120"/>
      <point x="497" y="43"/>
      <point x="403" y="0"/>
      <point x="350" y="0" type="qcurve" smooth="yes"/>
      <point x="299" y="0"/>
      <point x="203" y="43"/>
      <point x="150" y="120"/>
      <point x="150" y="162" type="qcurve" smooth="yes"/>
      <point x="150" y="204"/>
      <point x="203" y="282"/>
      <point x="299" y="324"/>
      <point x="350" y="324" type="qcurve" smooth="yes"/>
      <point x="401" y="324"/>
      <point x="495" y="282"/>
      <point x="550" y="204"/>
    </contour>
    <contour>
      <point x="550" y="1298" type="qcurve" smooth="yes"/>
      <point x="550" y="1256"/>
      <point x="497" y="1179"/>
      <point x="403" y="1136"/>
      <point x="350" y="1136" type="qcurve" smooth="yes"/>
      <point x="299" y="1136"/>
      <point x="203" y="1179"/>
      <point x="150" y="1256"/>
      <point x="150" y="1298" type="qcurve" smooth="yes"/>
      <point x="150" y="1340"/>
      <point x="203" y="1418"/>
      <point x="299" y="1460"/>
      <point x="350" y="1460" type="qcurve" smooth="yes"/>
      <point x="401" y="1460"/>
      <point x="495" y="1418"/>
      <point x="550" y="1340"/>
    </contour>
  </outline>
</glyph>
<glyph name="uni17C9" format="2">
  <unicode hex="17C9"/>
  <outline>
    <contour>
      <point x="-717" y="2260" type="line"/>
      <point x="-717" y="1860" type="line" smooth="yes"/>
      <point x="-717" y="1780"/>
      <point x="-840" y="1760" type="qcurve"/>
      <point x="-967" y="1780"/>
      <point x="-967" y="1860" type="qcurve" smooth="yes"/>
      <point x="-967" y="2260" type="line"/>
    </contour>
    <contour>
      <point x="-332" y="2260" type="line"/>
      <point x="-332" y="1860" type="line" smooth="yes"/>
      <point x="-332" y="1780"/>
      <point x="-455" y="1760" type="qcurve"/>
      <point x="-582" y="1780"/>
      <point x="-582" y="1860" type="qcurve" smooth="yes"/>
      <point x="-582" y="2260" type="line"/>
    </contour>
  </outline>
</glyph>
<glyph name="uni17CA" format="2">
  <unicode hex="17CA"/>
  <outline>
    <contour>
      <point x="-700" y="1705" type="qcurve" smooth="yes"/>
      <point x="-677" y="1705"/>
      <point x="-498" y="1830"/>
      <point x="-437" y="1830" type="qcurve" smooth="yes"/>
      <point x="-377" y="1830"/>
      <point x="-192" y="1667"/>
      <point x="-165" y="1667" type="qcurve" smooth="yes"/>
      <point x="-139" y="1667"/>
      <point x="-120" y="1679" type="qcurve"/>
      <point x="-170" y="1525"/>
      <point x="-255" y="1525" type="qcurve" smooth="yes"/>
      <point x="-351" y="1525"/>
      <point x="-505" y="1629"/>
      <point x="-530" y="1629" type="qcurve" smooth="yes"/>
      <point x="-553" y="1629"/>
      <point x="-700" y="1525"/>
      <point x="-740" y="1525" type="qcurve" smooth="yes"/>
      <point x="-813" y="1525"/>
      <point x="-984" y="1629"/>
      <point x="-1013" y="1629" type="qcurve" smooth="yes"/>
      <point x="-1046" y="1629"/>
      <point x="-1080" y="1607"/>
      <point x="-1080" y="1580" type="qcurve" smooth="yes"/>
      <point x="-1080" y="1562"/>
      <point x="-938" y="1530" type="qcurve"/>
      <point x="-1098" y="1478" type="line"/>
      <point x="-1280" y="1533"/>
      <point x="-1280" y="1625" type="qcurve" smooth="yes"/>
      <point x="-1280" y="1688"/>
      <point x="-1058" y="1830"/>
      <point x="-987" y="1830" type="qcurve" smooth="yes"/>
      <point x="-917" y="1830"/>
      <point x="-723" y="1705"/>
    </contour>
  </outline>
</glyph>
<glyph name="uni17CB" format="2">
  <unicode hex="17CB"/>
  <outline>
    <contour>
      <point x="-500" y="2300" type="line"/>
      <point x="-500" y="1850" type="line" smooth="yes"/>
      <point x="-500" y="1770"/>
      <point x="-650" y="1750" type="qcurve"/>
      <point x="-800" y="1774"/>
      <point x="-800" y="1872" type="qcurve" smooth="yes"/>
      <point x="-800" y="2300" type="line"/>
    </contour>
  </outline>
</glyph>
<glyph name="uni17CC" format="2">
  <unicode hex="17CC"/>
  <outline>
    <contour>
      <point x="-525" y="1720" type="line"/>
      <point x="-651" y="1867"/>
      <point x="-720" y="1867" type="qcurve" smooth="yes"/>
      <point x="-792" y="1867"/>
      <point x="-874" y="1843" type="qcurve"/>
      <point x="-868" y="1927" type="line"/>
      <point x="-775" y="2015"/>
      <point x="-660" y="2015" type="qcurve" smooth="yes"/>
      <point x="-463" y="2015"/>
      <point x="-312" y="1762" type="qcurve"/>
    </contour>
    <contour>
      <point x="-487" y="2310" type="line"/>
      <point x="-487" y="2209"/>
      <point x="-675" y="1868"/>
      <point x="-823" y="1765" type="qcurve"/>
      <point x="-1138" y="1765" type="line"/>
      <point x="-881" y="1903"/>
      <point x="-719" y="2238"/>
      <point x="-719" y="2310" type="qcurve"/>
    </contour>
  </outline>
</glyph>
